<?xml version="1.0" standalone="no"?>
<!DOCTYPE svg PUBLIC "-//W3C//DTD SVG 20010904//EN"
 "http://www.w3.org/TR/2001/REC-SVG-20010904/DTD/svg10.dtd">
<svg version="1.0" xmlns="http://www.w3.org/2000/svg"
 width="500.000000pt" height="500.000000pt" viewBox="0 0 500.000000 500.000000"
 preserveAspectRatio="xMidYMid meet">
<metadata>
Created by potrace 1.16, written by Peter Selinger 2001-2019
</metadata>
<g transform="translate(0.000000,500.000000) scale(0.100000,-0.100000)"
fill="#000000" stroke="none">
<path d="M0 2500 l0 -2500 2500 0 2500 0 0 2500 0 2500 -2500 0 -2500 0 0
-2500z m2817 2431 c70 -11 171 -29 223 -41 112 -24 317 -88 326 -101 3 -5 13
-9 22 -9 19 0 333 -153 354 -173 7 -6 29 -21 48 -31 34 -19 178 -124 250 -182
19 -15 92 -86 162 -156 122 -123 233 -258 314 -383 56 -87 56 -87 133 -240 68
-135 99 -211 141 -340 11 -33 25 -76 32 -95 22 -67 68 -311 67 -360 0 -19 -11
28 -25 104 -85 492 -308 935 -643 1279 -139 143 -238 226 -394 331 -294 198
-631 329 -987 382 -122 19 -426 25 -595 12 l-90 -6 70 13 c115 21 440 19 592
-4z m-727 -26 c-82 -17 -107 -17 -55 0 22 8 58 13 80 13 35 0 31 -2 -25 -13z
m-216 -50 c-402 -112 -758 -320 -1053 -615 -386 -387 -630 -889 -696 -1430 -9
-71 -13 -89 -14 -57 -2 72 34 279 72 417 58 210 159 442 274 629 63 101 181
264 239 327 275 303 536 491 884 639 136 59 343 124 390 124 14 0 -29 -15 -96
-34z m1001 -49 c483 -91 870 -287 1209 -616 465 -450 707 -1024 707 -1675 0
-383 -79 -720 -246 -1050 -330 -654 -942 -1109 -1660 -1236 -152 -27 -475 -37
-626 -19 -517 59 -988 284 -1352 645 -372 369 -591 803 -673 1335 -27 170 -24
500 4 677 74 456 249 834 547 1181 338 394 814 663 1325 751 164 29 170 29
435 26 172 -2 265 -7 330 -19z m2033 -2291 c0 -82 -3 -175 -6 -205 -4 -30 -7
62 -7 205 0 143 3 235 7 205 3 -30 6 -122 6 -205z m-4801 -88 c-1 -45 -3 -5
-3 88 0 94 2 130 3 82 2 -48 2 -125 0 -170z m42 -367 c12 -57 14 -76 5 -68
-10 11 -44 232 -43 283 1 35 5 19 14 -57 7 -58 18 -130 24 -158z m4731 60
c-11 -64 -41 -198 -69 -306 -5 -17 -14 -39 -20 -50 -12 -18 -12 -18 -6 1 34
105 92 380 96 454 l2 26 4 -25 c3 -14 -1 -59 -7 -100z m-4665 -348 c-5 -6 -46
135 -51 177 -2 20 9 -11 25 -69 17 -57 28 -106 26 -108z m34 -87 c0 -5 -6 1
-14 15 -8 14 -14 34 -14 45 0 13 5 8 14 -15 7 -19 14 -39 14 -45z m4516 -8
c-9 -23 -21 -50 -26 -59 -5 -10 -9 -23 -9 -28 0 -22 -115 -249 -182 -359 -38
-63 -105 -161 -150 -218 -137 -175 -371 -400 -508 -489 -25 -16 -47 -31 -50
-34 -9 -9 -65 -46 -80 -53 -8 -4 -37 -21 -65 -37 -50 -30 -243 -127 -280 -140
-11 -4 -39 -15 -62 -24 -89 -33 -120 -44 -174 -60 -117 -34 -78 -13 66 34 514
171 954 510 1257 969 80 120 189 335 239 468 19 51 36 87 38 82 2 -6 -4 -29
-14 -52z m-4471 -100 c20 -49 55 -125 77 -169 22 -44 36 -78 32 -75 -18 11
-153 303 -153 330 0 18 6 5 44 -86z m218 -406 c100 -152 166 -233 296 -365
216 -220 488 -409 745 -518 43 -18 74 -34 68 -36 -8 -3 -69 23 -181 77 -268
130 -597 391 -775 616 -22 27 -47 58 -56 67 -44 49 -199 286 -198 303 0 6 6 2
12 -9 7 -10 47 -71 89 -135z m1188 -942 c12 -7 11 -8 -5 -8 -11 0 -29 7 -40
15 -19 16 -19 16 5 9 14 -4 32 -11 40 -16z m70 -24 c23 -9 28 -14 15 -14 -11
0 -31 6 -45 14 -31 18 -16 18 30 0z m127 -36 c43 -12 121 -30 173 -39 52 -10
80 -19 62 -19 -18 -1 -54 4 -80 10 -134 30 -219 52 -232 60 -24 13 -6 11 77
-12z m1173 -20 c-33 -14 -168 -39 -200 -38 -26 1 169 45 205 47 16 1 15 -1 -5
-9z m-565 -54 c88 0 198 3 245 7 74 5 79 5 40 -5 -59 -14 -520 -14 -580 1 -38
9 -32 10 45 4 50 -4 162 -7 250 -7z"/>
<path d="M2270 4779 c-315 -31 -668 -154 -944 -328 -290 -182 -561 -456 -735
-744 -401 -664 -439 -1487 -101 -2182 330 -679 954 -1139 1700 -1251 157 -24
463 -24 620 0 479 73 907 284 1244 614 352 345 567 754 657 1252 27 146 37
451 20 611 -29 271 -105 538 -221 775 -418 851 -1303 1346 -2240 1253z m540
-45 c404 -59 776 -225 1098 -492 416 -344 699 -853 778 -1402 24 -163 25 -630
2 -689 -5 -14 -25 -87 -43 -161 -190 -769 -751 -1371 -1497 -1604 -243 -76
-428 -101 -712 -93 -340 9 -588 69 -891 217 -238 116 -432 257 -616 447 -323
335 -517 719 -605 1198 -27 145 -27 586 -1 730 56 303 144 547 285 782 368
619 997 1018 1707 1083 127 11 359 4 495 -16z"/>
<path d="M2622 4574 c-15 -11 -22 -25 -22 -50 0 -28 6 -38 33 -54 17 -11 39
-20 48 -20 18 0 33 -26 23 -41 -8 -14 -56 -11 -74 6 -15 13 -19 13 -36 0 -19
-15 -19 -15 3 -34 53 -45 129 -32 155 25 10 20 8 29 -8 51 -11 15 -36 32 -55
38 -37 13 -50 41 -23 52 10 3 30 -1 45 -9 25 -15 29 -15 41 -1 32 39 -81 72
-130 37z"/>
<path d="M2825 4558 c-9 -42 -45 -212 -45 -215 0 -2 10 -3 23 -3 16 0 26 9 34
31 14 36 29 31 38 -12 5 -20 16 -34 32 -40 14 -5 28 -8 30 -6 2 3 -6 28 -17
58 l-21 53 30 26 c17 14 31 28 31 33 0 16 -45 5 -78 -20 l-35 -26 7 26 c3 15
9 47 13 72 5 41 4 45 -15 45 -14 0 -23 -8 -27 -22z"/>
<path d="M2387 4533 c-9 -8 -9 -66 -1 -127 5 -35 11 -46 25 -46 15 0 19 10 21
63 3 56 5 62 26 65 16 3 22 10 22 28 0 26 -18 32 -38 12 -9 -9 -12 -9 -12 0 0
13 -32 17 -43 5z"/>
<path d="M3016 4523 c-4 -9 0 -23 9 -32 13 -14 17 -14 32 1 13 14 14 20 3 32
-16 21 -36 20 -44 -1z"/>
<path d="M2233 4520 c-46 -19 -58 -98 -22 -144 25 -32 84 -36 119 -8 20 17 21
19 5 32 -11 9 -19 10 -23 3 -13 -19 -49 -24 -62 -8 -17 21 -11 25 47 34 43 6
48 9 45 31 -2 29 -45 70 -70 69 -9 0 -27 -4 -39 -9z m56 -44 c10 -12 6 -15
-19 -21 -37 -8 -48 -1 -30 20 16 19 34 19 49 1z"/>
<path d="M3115 4498 c-2 -7 -18 -50 -35 -96 -35 -96 -36 -105 -14 -126 26 -26
47 -20 41 12 -4 17 5 59 25 115 26 74 29 90 17 98 -19 12 -29 11 -34 -3z"/>
<path d="M2060 4488 c-14 -6 -36 -12 -49 -14 -13 -1 -24 -4 -26 -6 -1 -2 9
-52 24 -113 24 -98 29 -110 50 -113 22 -3 23 -2 16 39 -6 37 -5 41 10 36 17
-7 55 8 67 27 4 6 8 30 8 54 0 35 -6 49 -29 73 -32 32 -35 33 -71 17z m50 -73
c13 -40 2 -65 -31 -65 -13 0 -21 12 -29 40 -13 47 -7 60 25 60 18 0 26 -8 35
-35z"/>
<path d="M2980 4390 c-13 -44 -21 -82 -19 -84 2 -2 12 -6 23 -8 15 -2 22 10
42 77 17 60 20 81 11 87 -26 17 -35 5 -57 -72z"/>
<path d="M3176 4376 c-40 -98 -42 -122 -14 -140 22 -14 49 7 31 25 -8 8 -1 36
27 103 21 50 36 94 33 99 -2 4 -12 7 -22 7 -13 0 -28 -25 -55 -94z"/>
<path d="M1682 4432 c-9 -7 -2 -32 31 -106 46 -104 64 -124 97 -106 25 14 26
30 1 37 -13 3 -32 35 -58 94 -37 87 -46 97 -71 81z"/>
<path d="M1854 4426 c-35 -16 -44 -32 -44 -83 0 -38 44 -93 75 -93 24 0 72 27
79 45 13 34 5 81 -17 107 -28 34 -54 40 -93 24z m66 -72 c20 -61 -26 -90 -55
-34 -19 38 -19 57 2 68 25 14 41 4 53 -34z"/>
<path d="M3265 4340 c-22 -25 -14 -62 20 -84 14 -9 25 -21 25 -26 0 -18 -39
-10 -53 10 -13 19 -47 19 -47 0 0 -18 63 -60 91 -60 59 0 73 71 19 100 -23 12
-27 40 -6 40 8 0 21 -9 29 -20 9 -13 20 -18 31 -14 23 9 20 19 -15 48 -36 31
-69 33 -94 6z"/>
<path d="M1582 4304 c-48 -33 -47 -91 0 -141 30 -32 81 -31 113 2 14 13 25 31
25 40 0 22 -33 18 -48 -6 -8 -13 -21 -19 -35 -17 -33 4 -25 20 21 46 23 13 42
28 42 33 0 19 -49 59 -72 59 -13 0 -34 -7 -46 -16z m63 -33 c5 -9 -31 -41 -47
-41 -10 0 -11 34 -1 43 10 10 41 8 48 -2z"/>
<path d="M3481 4198 c-56 -83 -60 -93 -44 -102 10 -5 20 -9 22 -9 2 1 21 28
43 60 l40 58 -7 -83 c-7 -84 1 -112 30 -112 6 0 40 41 75 91 59 86 62 93 45
105 -17 12 -22 9 -53 -39 -53 -80 -54 -80 -46 10 7 84 -1 113 -30 113 -7 0
-40 -41 -75 -92z"/>
<path d="M1478 4239 c-15 -8 -15 -13 2 -69 10 -33 16 -60 13 -60 -3 0 -23 16
-46 35 -44 38 -56 42 -75 23 -8 -8 6 -24 60 -65 39 -29 74 -53 76 -53 3 0 13
7 23 16 16 15 16 19 -3 87 -26 93 -29 98 -50 86z"/>
<path d="M1288 4104 c-49 -26 -49 -95 -1 -140 36 -33 77 -31 114 5 32 33 37
56 13 65 -23 9 -24 8 -24 -14 0 -23 -35 -44 -58 -35 -14 5 -9 14 28 46 l45 40
-28 24 c-32 29 -51 30 -89 9z m47 -34 c8 -13 -13 -40 -31 -40 -17 0 -18 37 -1
43 19 8 25 8 32 -3z"/>
<path d="M3659 4051 c-41 -41 -40 -90 2 -125 37 -32 69 -34 69 -6 0 13 -7 20
-18 20 -23 0 -42 19 -42 42 0 27 23 22 55 -12 35 -37 48 -38 63 -5 18 39 14
69 -11 93 -34 32 -82 29 -118 -7z m99 -38 c4 -27 -5 -29 -30 -6 -24 22 -23 35
5 31 14 -2 23 -11 25 -25z"/>
<path d="M1095 4001 c-16 -10 -41 -31 -54 -46 l-23 -28 81 -81 82 -81 44 47
c51 53 57 84 25 136 -22 36 -74 72 -105 72 -11 0 -33 -8 -50 -19z m104 -66
c37 -43 37 -47 9 -79 l-23 -25 -55 51 -54 50 23 19 c35 29 65 24 100 -16z"/>
<path d="M3895 3990 c-4 -6 -16 -10 -26 -7 -19 5 -47 -18 -36 -30 4 -3 -11
-26 -33 -49 -45 -49 -48 -63 -21 -88 23 -21 44 -12 36 15 -9 26 50 86 68 70
17 -13 38 5 30 25 -3 8 1 21 8 30 10 12 9 18 -3 30 -12 12 -18 13 -23 4z"/>
<path d="M3896 3826 c-69 -97 -58 -126 35 -88 52 22 52 20 11 -35 -25 -34 -24
-59 2 -69 15 -6 156 53 156 65 0 3 -4 12 -9 19 -7 11 -19 9 -60 -12 -28 -15
-51 -24 -51 -20 0 3 14 26 31 51 28 40 30 47 16 60 -13 13 -20 13 -62 -6 -27
-12 -50 -20 -52 -18 -2 2 10 21 27 42 30 38 35 65 14 72 -7 2 -32 -25 -58 -61z"/>
<path d="M901 3786 c-10 -11 -5 -28 19 -76 l31 -61 -48 6 c-26 3 -57 8 -68 10
-12 3 -25 -3 -32 -14 -10 -15 0 -26 82 -83 72 -51 96 -63 104 -54 8 10 -6 25
-59 61 -39 27 -70 50 -70 52 0 2 32 0 71 -3 l71 -7 -31 61 c-17 34 -29 62 -25
62 3 0 35 -21 70 -46 48 -34 68 -44 76 -36 7 7 10 13 7 15 -11 9 -165 114
-175 120 -7 4 -17 0 -23 -7z"/>
<path d="M1860 3770 c0 -6 47 -10 120 -10 73 0 120 4 120 10 0 6 -47 10 -120
10 -73 0 -120 -4 -120 -10z"/>
<path d="M2140 3770 c0 -6 61 -10 163 -10 108 0 157 4 147 10 -20 13 -310 13
-310 0z"/>
<path d="M2570 3770 c0 -6 38 -10 95 -10 57 0 95 4 95 10 0 6 -38 10 -95 10
-57 0 -95 -4 -95 -10z"/>
<path d="M2925 3770 c-4 -6 30 -10 94 -10 61 0 101 4 101 10 0 6 -38 10 -94
10 -53 0 -98 -4 -101 -10z"/>
<path d="M1860 3700 c0 -6 47 -10 120 -10 73 0 120 4 120 10 0 6 -47 10 -120
10 -73 0 -120 -4 -120 -10z"/>
<path d="M2140 3700 c0 -6 70 -10 190 -10 120 0 190 4 190 10 0 6 -70 10 -190
10 -120 0 -190 -4 -190 -10z"/>
<path d="M2570 3700 c0 -6 44 -10 111 -10 71 0 108 4 104 10 -3 6 -52 10 -111
10 -63 0 -104 -4 -104 -10z"/>
<path d="M2900 3700 c0 -6 43 -10 110 -10 67 0 110 4 110 10 0 6 -43 10 -110
10 -67 0 -110 -4 -110 -10z"/>
<path d="M1930 3633 c0 -9 14 -13 45 -13 33 0 45 4 45 15 0 12 -11 15 -45 13
-30 -1 -45 -6 -45 -15z"/>
<path d="M2215 3642 c-15 -15 0 -22 45 -22 35 0 50 4 50 14 0 9 -14 13 -45 13
-24 0 -47 -2 -50 -5z"/>
<path d="M2427 3643 c-17 -16 -3 -23 43 -23 38 0 50 4 50 15 0 11 -11 15 -43
15 -24 0 -47 -3 -50 -7z"/>
<path d="M2640 3633 c0 -10 21 -13 86 -13 64 0 85 3 81 13 -6 18 -167 19 -167
0z"/>
<path d="M2876 3634 c-4 -11 11 -14 84 -14 72 0 90 3 90 15 0 21 -166 20 -174
-1z"/>
<path d="M4033 3605 c-29 -29 -34 -40 -28 -63 9 -38 44 -72 74 -72 58 0 120
64 104 107 -25 71 -94 84 -150 28z m105 -35 c2 -19 -5 -30 -28 -43 -37 -23
-60 -16 -60 16 0 51 82 76 88 27z"/>
<path d="M1930 3567 c0 -8 16 -13 45 -14 34 -2 45 1 45 12 0 11 -12 15 -45 15
-30 0 -45 -4 -45 -13z"/>
<path d="M2210 3565 c0 -13 22 -15 134 -15 106 0 136 3 146 15 11 13 -5 15
-134 15 -123 0 -146 -2 -146 -15z"/>
<path d="M2636 3565 c4 -10 20 -15 50 -15 32 0 44 4 44 15 0 11 -12 15 -50 15
-40 0 -48 -3 -44 -15z"/>
<path d="M2747 3564 c7 -18 74 -16 81 4 2 8 -10 12 -42 12 -37 0 -44 -3 -39
-16z"/>
<path d="M2850 3564 c0 -12 9 -14 42 -12 59 4 63 28 4 28 -35 0 -46 -4 -46
-16z"/>
<path d="M2950 3565 c0 -13 11 -16 50 -14 34 2 50 7 50 16 0 9 -15 13 -50 13
-38 0 -50 -4 -50 -15z"/>
<path d="M747 3539 c-16 -9 -72 -108 -65 -114 2 -1 47 -26 100 -54 l97 -52 30
53 c37 63 37 68 10 103 -18 22 -28 26 -55 23 -23 -3 -34 0 -34 8 0 14 -38 44
-55 44 -5 0 -18 -5 -28 -11z m60 -45 c3 -9 -2 -31 -11 -50 -16 -34 -16 -34
-46 -19 -35 18 -35 18 -13 56 19 32 59 40 70 13z m92 -38 c12 -14 7 -36 -17
-73 -13 -21 -16 -22 -43 -7 -33 17 -35 24 -14 64 17 33 54 41 74 16z"/>
<path d="M1930 3500 c0 -5 20 -10 44 -10 25 0 48 5 51 10 4 6 -13 10 -44 10
-28 0 -51 -4 -51 -10z"/>
<path d="M2210 3500 c0 -6 53 -10 140 -10 87 0 140 4 140 10 0 6 -53 10 -140
10 -87 0 -140 -4 -140 -10z"/>
<path d="M2635 3500 c-4 -6 13 -10 44 -10 28 0 51 5 51 10 0 6 -20 10 -44 10
-25 0 -48 -4 -51 -10z"/>
<path d="M2770 3500 c0 -6 30 -10 69 -10 39 0 73 5 76 10 4 6 -22 10 -69 10
-44 0 -76 -4 -76 -10z"/>
<path d="M2950 3500 c0 -5 23 -10 50 -10 28 0 50 5 50 10 0 6 -22 10 -50 10
-27 0 -50 -4 -50 -10z"/>
<path d="M4148 3454 c-71 -36 -74 -39 -58 -64 8 -13 17 -11 63 12 l54 26 21
-20 c18 -19 23 -19 37 -8 16 13 16 15 -1 30 -11 8 -19 21 -20 28 -3 42 -9 41
-96 -4z"/>
<path d="M1968 3442 c-56 -5 -46 -22 12 -22 28 0 50 4 50 9 0 13 -19 17 -62
13z"/>
<path d="M2437 3442 c-38 -8 -13 -22 38 -22 30 0 55 4 55 9 0 9 -64 18 -93 13z"/>
<path d="M2210 3430 c0 -5 23 -10 50 -10 28 0 50 5 50 10 0 6 -22 10 -50 10
-27 0 -50 -4 -50 -10z"/>
<path d="M2635 3430 c-4 -6 13 -10 44 -10 28 0 51 5 51 10 0 6 -20 10 -44 10
-25 0 -48 -4 -51 -10z"/>
<path d="M2795 3430 c3 -5 26 -10 51 -10 24 0 44 5 44 10 0 6 -23 10 -51 10
-31 0 -48 -4 -44 -10z"/>
<path d="M2950 3430 c0 -5 23 -10 50 -10 28 0 50 5 50 10 0 6 -22 10 -50 10
-27 0 -50 -4 -50 -10z"/>
<path d="M4246 3354 c-55 -24 -101 -46 -103 -48 -2 -2 -1 -11 3 -20 5 -12 14
-15 45 -10 21 4 39 3 39 0 0 -4 -11 -22 -24 -39 -18 -24 -22 -37 -15 -54 4
-13 10 -23 13 -23 2 0 18 23 36 50 18 28 33 50 35 50 1 0 21 -6 43 -14 40 -15
41 -14 33 7 -5 13 -25 28 -52 38 l-44 17 40 17 c22 9 50 21 62 25 15 6 20 15
16 29 -3 12 -10 21 -17 20 -6 0 -56 -21 -110 -45z"/>
<path d="M1860 3365 c0 -13 16 -15 118 -13 153 4 151 22 -3 26 -99 2 -115 0
-115 -13z"/>
<path d="M2140 3365 c0 -13 25 -15 187 -13 138 2 187 6 191 16 3 9 -39 12
-187 12 -164 0 -191 -2 -191 -15z"/>
<path d="M2570 3365 c0 -12 16 -15 80 -15 64 0 80 3 80 15 0 12 -16 15 -80 15
-64 0 -80 -3 -80 -15z"/>
<path d="M2817 3364 c6 -17 44 -15 51 4 2 8 -7 12 -27 12 -23 0 -29 -4 -24
-16z"/>
<path d="M2950 3365 c0 -12 16 -15 85 -15 69 0 85 3 85 15 0 12 -16 15 -85 15
-69 0 -85 -3 -85 -15z"/>
<path d="M631 3328 c-18 -43 -12 -60 13 -39 19 16 168 -52 160 -73 -3 -8 -1
-17 5 -20 6 -4 20 12 31 34 23 45 18 70 -8 47 -15 -13 -26 -10 -89 19 -56 25
-73 38 -73 54 0 34 -20 22 -39 -22z"/>
<path d="M1860 3300 c0 -6 47 -10 120 -10 73 0 120 4 120 10 0 6 -47 10 -120
10 -73 0 -120 -4 -120 -10z"/>
<path d="M2140 3300 c0 -12 286 -12 315 0 12 5 -45 9 -147 9 -106 1 -168 -3
-168 -9z"/>
<path d="M2570 3300 c0 -6 33 -10 80 -10 47 0 80 4 80 10 0 6 -33 10 -80 10
-47 0 -80 -4 -80 -10z"/>
<path d="M2950 3300 c0 -6 35 -10 85 -10 50 0 85 4 85 10 0 6 -35 10 -85 10
-50 0 -85 -4 -85 -10z"/>
<path d="M1029 2742 c-62 -55 -46 -177 27 -208 47 -20 87 -10 119 28 37 44 16
62 -24 20 -31 -34 -45 -38 -84 -23 -48 19 -61 118 -21 162 23 25 78 25 104 -1
23 -23 40 -26 40 -6 0 25 -50 56 -91 56 -28 0 -47 -8 -70 -28z"/>
<path d="M2530 2768 c0 -2 20 -55 44 -118 59 -154 67 -155 124 -13 44 114 50
137 30 131 -12 -4 -28 -42 -73 -162 l-18 -49 -36 104 c-25 71 -42 105 -54 107
-9 2 -17 2 -17 0z"/>
<path d="M2770 2750 c0 -13 5 -20 13 -17 6 2 12 10 12 17 0 7 -6 15 -12 18 -8
2 -13 -5 -13 -18z"/>
<path d="M3010 2750 c0 -13 5 -20 13 -17 6 2 12 10 12 17 0 7 -6 15 -12 18 -8
2 -13 -5 -13 -18z"/>
<path d="M4030 2731 l0 -39 -44 5 c-37 5 -46 2 -60 -18 -9 -13 -16 -42 -16
-65 0 -52 25 -86 63 -85 15 1 38 1 52 2 l25 1 0 119 c0 73 -4 119 -10 119 -5
0 -10 -17 -10 -39z m-14 -76 c24 -37 12 -93 -22 -101 -35 -9 -56 14 -56 60 0
65 46 89 78 41z"/>
<path d="M2083 2753 c-7 -3 -13 -15 -13 -28 0 -13 -6 -26 -12 -28 -10 -4 -10
-7 -1 -14 7 -5 13 -39 15 -78 3 -68 4 -70 31 -73 29 -4 37 12 12 22 -11 4 -15
21 -15 66 0 47 3 60 15 60 8 0 15 5 15 10 0 6 -6 10 -14 10 -9 0 -16 12 -18
28 -2 18 -8 27 -15 25z"/>
<path d="M2873 2699 c-12 -4 -26 -17 -32 -28 -14 -26 12 -57 59 -69 25 -6 35
-14 35 -28 0 -24 -46 -32 -65 -10 -13 17 -40 22 -40 8 0 -20 43 -46 75 -46 43
0 67 20 63 53 -3 25 -17 35 -82 60 -23 10 -26 14 -16 26 16 20 39 19 62 -2 21
-19 37 -9 22 14 -13 22 -53 32 -81 22z"/>
<path d="M1257 2688 c-40 -31 -43 -111 -5 -144 26 -24 85 -22 111 4 25 26 28
89 4 125 -14 21 -25 27 -55 27 -21 0 -46 -6 -55 -12z m84 -24 c7 -9 13 -31 13
-49 0 -18 -6 -40 -13 -49 -17 -21 -55 -21 -72 0 -16 19 -15 79 1 99 16 20 54
19 71 -1z"/>
<path d="M1420 2613 c0 -67 3 -83 15 -83 12 0 15 13 15 58 0 64 16 96 46 90
16 -3 19 -13 22 -76 2 -55 6 -72 17 -72 12 0 15 14 15 59 0 61 15 91 46 91 22
0 30 -30 33 -117 1 -18 6 -33 11 -33 15 0 13 143 -2 158 -15 15 -60 16 -76 0
-8 -8 -15 -8 -24 0 -8 6 -37 10 -66 10 l-52 -1 0 -84z"/>
<path d="M1690 2578 c0 -98 3 -118 15 -118 11 0 15 11 15 40 0 43 2 45 31 30
14 -8 27 -7 48 4 34 18 41 34 41 87 0 58 -25 79 -95 77 l-55 -2 0 -118z m108
90 c7 -7 12 -30 12 -53 0 -46 -13 -65 -47 -65 -26 0 -43 27 -43 69 0 49 48 79
78 49z"/>
<path d="M1882 2623 c3 -74 4 -78 31 -91 24 -12 31 -11 53 2 13 9 24 12 24 6
0 -5 7 -10 15 -10 12 0 15 16 15 85 0 69 -3 85 -15 85 -12 0 -15 -13 -15 -59
0 -66 -17 -94 -54 -89 -19 3 -21 10 -24 76 -2 56 -6 72 -18 72 -12 0 -14 -14
-12 -77z"/>
<path d="M2170 2678 c-22 -24 -27 -86 -10 -118 12 -22 64 -42 88 -33 22 8 52
34 52 45 0 13 -27 9 -40 -7 -18 -21 -57 -19 -70 4 -19 36 -12 41 56 41 63 0
65 1 59 23 -16 50 -34 67 -75 67 -27 0 -45 -7 -60 -22z m88 -10 c25 -25 13
-38 -33 -38 -48 0 -55 9 -29 34 18 19 45 21 62 4z"/>
<path d="M2340 2614 c0 -68 3 -84 15 -84 11 0 15 13 15 54 0 70 7 86 36 86 14
0 24 6 24 15 0 10 -12 14 -45 13 l-45 -1 0 -83z"/>
<path d="M2770 2615 c0 -69 3 -85 15 -85 12 0 15 16 15 85 0 69 -3 85 -15 85
-12 0 -15 -16 -15 -85z"/>
<path d="M3010 2615 c0 -69 3 -85 15 -85 12 0 15 16 15 85 0 69 -3 85 -15 85
-12 0 -15 -16 -15 -85z"/>
<path d="M3091 2674 c-56 -71 7 -171 89 -143 37 14 50 36 50 88 0 54 -26 81
-79 81 -31 0 -44 -6 -60 -26z m93 -10 c19 -18 21 -85 4 -102 -31 -31 -88 3
-88 53 0 29 28 65 50 65 10 0 26 -7 34 -16z"/>
<path d="M3270 2615 c0 -68 3 -85 15 -85 11 0 15 16 17 66 2 51 7 70 21 78 34
21 52 -4 55 -78 2 -50 6 -66 17 -66 22 0 21 133 -1 154 -18 19 -75 21 -92 4
-9 -9 -12 -9 -12 0 0 7 -4 12 -10 12 -6 0 -10 -35 -10 -85z"/>
<path d="M3557 2682 c-10 -10 -17 -22 -17 -25 0 -13 27 -7 40 8 18 22 57 19
70 -5 12 -23 10 -24 -52 -35 -68 -11 -85 -74 -26 -94 24 -9 38 -8 59 3 16 8
29 10 29 5 0 -5 7 -9 15 -9 13 0 14 12 9 73 -4 39 -11 78 -17 85 -15 19 -91
15 -110 -6z m93 -91 c0 -25 -24 -43 -52 -39 -32 4 -31 40 2 49 41 12 50 10 50
-10z"/>
<path d="M3730 2613 c0 -67 3 -83 15 -83 12 0 15 13 15 59 0 75 21 102 64 85
12 -5 16 -21 16 -75 0 -55 3 -69 15 -69 12 0 15 14 15 66 0 94 -8 104 -80 102
l-60 -2 0 -83z"/>
<path d="M420 2260 c0 -100 3 -120 15 -120 13 0 15 20 15 120 0 100 -2 120
-15 120 -12 0 -15 -20 -15 -120z"/>
<path d="M1432 2263 c2 -79 7 -118 15 -120 8 -3 13 12 15 44 l3 48 58 6 c67 7
88 23 89 68 2 54 -24 71 -109 71 l-74 0 3 -117z m146 56 c4 -35 -19 -51 -70
-47 -42 3 -43 4 -46 41 l-3 38 58 -3 c54 -3 58 -5 61 -29z"/>
<path d="M2630 2365 c0 -8 7 -15 15 -15 8 0 15 7 15 15 0 8 -7 15 -15 15 -8 0
-15 -7 -15 -15z"/>
<path d="M3172 2263 l3 -118 88 -3 c73 -2 87 0 87 13 0 12 -14 15 -70 15 l-70
0 0 40 0 39 62 3 c38 2 63 8 66 16 3 9 -14 12 -62 12 l-66 0 0 35 0 34 67 3
c42 2 68 8 71 16 3 9 -19 12 -87 12 l-92 0 3 -117z"/>
<path d="M4190 2365 c0 -8 7 -15 15 -15 8 0 15 7 15 15 0 8 -7 15 -15 15 -8 0
-15 -7 -15 -15z"/>
<path d="M4450 2259 c0 -92 3 -120 13 -117 8 3 13 39 15 121 2 100 0 117 -13
117 -13 0 -15 -19 -15 -121z"/>
<path d="M4107 2363 c-4 -3 -7 -15 -7 -25 0 -10 -4 -18 -10 -18 -5 0 -10 -7
-10 -15 0 -8 5 -15 10 -15 6 0 10 -28 10 -63 0 -36 5 -68 12 -75 17 -17 48
-15 48 3 0 8 -7 15 -15 15 -12 0 -15 13 -15 60 0 47 3 60 15 60 8 0 15 7 15
15 0 8 -7 15 -15 15 -9 0 -15 9 -15 25 0 24 -10 32 -23 18z"/>
<path d="M504 2307 c-10 -27 1 -160 14 -165 9 -3 12 12 12 53 0 68 13 95 44
95 28 0 36 -21 36 -98 0 -82 24 -63 30 24 5 69 5 69 35 69 l30 0 3 -73 c4 -93
26 -95 30 -3 4 94 -29 132 -88 101 -14 -8 -25 -7 -40 2 -15 10 -27 10 -50 1
-16 -6 -30 -7 -30 -2 0 14 -20 11 -26 -4z"/>
<path d="M789 2299 c-16 -16 -18 -23 -9 -29 7 -4 20 0 31 11 23 23 42 24 63 3
24 -24 20 -31 -25 -38 -65 -10 -81 -22 -77 -59 4 -40 43 -57 88 -40 18 7 32 7
36 2 15 -25 24 -2 24 59 0 87 -16 112 -71 112 -26 0 -46 -7 -60 -21z m101 -84
c0 -16 -35 -55 -49 -55 -46 0 -57 46 -13 56 15 3 32 7 37 9 20 7 25 5 25 -10z"/>
<path d="M983 2305 c-28 -20 -39 -76 -23 -114 15 -37 59 -57 89 -41 18 9 21 8
21 -8 0 -41 -48 -56 -82 -25 -20 18 -34 12 -24 -12 7 -20 53 -37 80 -29 50 15
56 31 56 141 0 91 -9 128 -23 91 -4 -10 -7 -10 -18 0 -18 16 -50 15 -76 -3z
m71 -21 c16 -16 20 -33 16 -69 -3 -29 -19 -45 -46 -45 -44 0 -60 74 -24 110
24 24 34 25 54 4z"/>
<path d="M1165 2295 c-19 -18 -25 -35 -25 -65 0 -73 71 -114 128 -74 25 17 29
44 7 44 -8 0 -15 -4 -15 -10 0 -5 -9 -14 -21 -20 -16 -9 -26 -8 -45 5 -44 28
-31 45 35 45 33 0 62 4 65 9 9 14 -15 71 -34 81 -32 17 -70 11 -95 -15z m76
-5 c36 -20 23 -40 -26 -40 -50 0 -57 11 -23 34 27 19 24 19 49 6z"/>
<path d="M1652 2233 c2 -58 7 -88 16 -91 9 -3 12 14 12 60 0 66 10 88 42 88
10 0 18 7 18 15 0 18 -31 20 -48 3 -9 -9 -12 -9 -12 0 0 7 -7 12 -15 12 -13 0
-15 -14 -13 -87z"/>
<path d="M1789 2310 c-25 -15 -42 -65 -35 -105 12 -62 78 -85 130 -44 22 17
26 28 26 69 0 41 -4 52 -26 69 -28 22 -68 27 -95 11z m69 -26 c31 -21 31 -87
0 -108 -12 -9 -26 -16 -30 -16 -19 0 -48 43 -48 70 0 27 29 70 48 70 4 0 18
-7 30 -16z"/>
<path d="M1965 2295 c-54 -53 -18 -155 54 -155 30 0 76 43 65 61 -9 15 -22 10
-29 -10 -8 -27 -34 -34 -61 -16 -19 12 -24 24 -24 55 0 31 5 43 24 55 25 17
51 12 60 -11 7 -18 26 -18 26 -1 0 22 -34 47 -64 47 -15 0 -37 -11 -51 -25z"/>
<path d="M2131 2296 c-34 -36 -32 -103 3 -133 33 -28 79 -30 106 -3 24 24 26
40 5 40 -8 0 -15 -4 -15 -10 0 -5 -9 -14 -21 -20 -16 -9 -26 -8 -45 5 -44 28
-31 45 36 45 59 0 60 0 60 28 0 64 -85 95 -129 48z m83 -12 c26 -25 19 -34
-29 -34 -50 0 -57 11 -23 34 28 20 33 20 52 0z"/>
<path d="M2310 2300 c-11 -11 -20 -24 -20 -28 0 -18 27 -40 62 -52 47 -14 57
-29 33 -47 -25 -17 -31 -17 -55 7 -11 11 -24 20 -30 20 -18 0 -10 -29 12 -44
48 -34 122 -7 116 42 -2 21 -12 30 -45 42 -56 21 -68 33 -49 49 16 13 56 6 56
-10 0 -5 7 -9 15 -9 22 0 19 27 -4 40 -31 16 -69 12 -91 -10z"/>
<path d="M2477 2302 c-33 -37 -19 -62 48 -84 46 -15 54 -32 24 -48 -18 -10
-26 -8 -50 9 -33 25 -39 26 -39 8 0 -44 84 -63 120 -27 36 36 23 64 -41 85
-51 17 -64 39 -28 50 13 4 27 1 38 -9 19 -17 41 -21 41 -8 0 18 -38 42 -67 42
-16 0 -37 -8 -46 -18z"/>
<path d="M2634 2307 c-10 -27 1 -160 14 -165 9 -3 12 19 12 87 0 56 -4 91 -10
91 -6 0 -13 -6 -16 -13z"/>
<path d="M2710 2229 c0 -68 3 -90 13 -87 7 3 14 31 17 74 5 67 6 69 34 72 38
5 46 -10 46 -86 0 -46 3 -63 13 -60 19 7 21 125 2 154 -17 27 -62 33 -84 12
-11 -10 -14 -10 -18 0 -13 35 -23 2 -23 -79z"/>
<path d="M2913 2305 c-27 -19 -40 -77 -25 -110 18 -39 58 -60 87 -47 22 10 25
9 25 -6 0 -41 -48 -56 -82 -25 -20 18 -34 12 -24 -12 7 -20 53 -37 80 -29 50
15 56 31 56 141 0 62 -4 103 -10 103 -5 0 -10 -5 -10 -10 0 -7 -6 -7 -19 0
-27 14 -53 13 -78 -5z m67 -15 c47 -25 27 -120 -25 -120 -45 0 -62 73 -25 110
23 23 25 23 50 10z"/>
<path d="M3406 2307 c-12 -9 -17 -23 -14 -42 3 -25 10 -31 51 -44 48 -15 64
-42 31 -55 -25 -10 -33 -7 -55 15 -14 14 -24 18 -31 11 -15 -15 27 -52 60 -52
37 0 72 26 72 54 0 29 -17 44 -58 52 -45 9 -59 29 -32 44 17 9 26 8 46 -5 35
-23 53 -14 26 13 -25 25 -69 29 -96 9z"/>
<path d="M3565 2300 c-27 -30 -7 -66 44 -80 48 -13 60 -28 36 -47 -25 -17 -31
-17 -55 7 -11 11 -24 20 -30 20 -18 0 -10 -29 12 -44 48 -34 122 -7 116 42 -2
22 -12 30 -53 45 -61 22 -61 23 -45 42 16 19 34 19 54 0 19 -19 36 -19 36 0 0
36 -86 48 -115 15z"/>
<path d="M3745 2295 c-36 -35 -35 -105 1 -134 32 -25 71 -27 102 -5 25 17 29
44 7 44 -8 0 -15 -4 -15 -10 0 -5 -9 -14 -21 -20 -16 -9 -26 -8 -45 5 -44 28
-31 45 36 45 59 0 60 0 60 28 0 36 -37 72 -74 72 -15 0 -37 -10 -51 -25z m76
-5 c36 -20 23 -40 -26 -40 -50 0 -57 11 -23 34 27 19 24 19 49 6z"/>
<path d="M3910 2230 c0 -73 3 -90 15 -90 12 0 15 14 15 64 0 55 3 67 22 80 38
27 57 6 60 -71 2 -42 8 -68 16 -71 20 -6 17 142 -4 162 -18 18 -65 21 -81 5
-8 -8 -13 -8 -17 0 -18 28 -26 3 -26 -79z"/>
<path d="M4190 2229 c0 -68 3 -90 13 -87 8 3 13 33 15 91 2 73 0 87 -13 87
-12 0 -15 -16 -15 -91z"/>
<path d="M4280 2302 c-35 -28 -16 -47 19 -21 23 17 32 19 50 10 23 -13 29 -41
9 -41 -34 0 -89 -23 -99 -41 -8 -16 -7 -26 6 -45 17 -26 52 -32 88 -13 16 9
22 9 25 0 2 -6 9 -11 16 -11 19 0 8 152 -12 168 -23 18 -76 15 -102 -6z m86
-105 c-7 -31 -52 -45 -74 -23 -21 21 -1 44 41 48 40 4 41 4 33 -25z"/>
<path d="M4536 2307 c-12 -9 -17 -23 -14 -42 3 -25 10 -31 51 -44 33 -10 47
-20 47 -33 0 -10 -4 -18 -9 -18 -5 0 -16 -3 -24 -6 -9 -3 -25 4 -37 16 -15 15
-25 19 -32 12 -15 -15 27 -52 60 -52 37 0 72 26 72 54 0 29 -17 44 -58 52 -45
9 -59 29 -32 44 17 9 26 8 45 -4 30 -20 35 -20 35 -1 0 31 -70 46 -104 22z"/>
<path d="M1900 1870 c0 -47 4 -80 10 -80 6 0 10 15 10 34 0 34 1 35 41 38 50
4 67 32 43 67 -12 16 -26 21 -60 21 l-44 0 0 -80z m96 45 c9 -23 -15 -45 -47
-45 -26 0 -29 4 -29 30 0 28 3 30 35 30 23 0 38 -6 41 -15z"/>
<path d="M2740 1920 c0 -27 -2 -29 -24 -20 -33 12 -66 -12 -66 -50 0 -39 24
-60 66 -57 l34 2 0 78 c0 42 -2 77 -5 77 -3 0 -5 -13 -5 -30z m-10 -45 c15
-18 6 -61 -15 -69 -37 -14 -65 26 -45 64 13 24 42 26 60 5z"/>
<path d="M2850 1870 l0 -80 41 0 c22 0 49 5 60 10 20 11 26 54 9 65 -7 4 -7
12 0 25 13 24 13 26 -6 44 -9 10 -33 16 -60 16 l-44 0 0 -80z m95 35 c0 -16
-8 -21 -37 -23 -35 -3 -38 -1 -38 23 0 24 3 26 38 23 29 -2 37 -7 37 -23z m-1
-48 c29 -21 10 -47 -35 -47 -37 0 -39 2 -39 30 0 26 4 30 28 30 16 0 36 -6 46
-13z"/>
<path d="M2062 1894 c-40 -28 -21 -104 27 -104 24 0 48 20 56 47 4 17 -1 29
-19 48 -29 29 -34 30 -64 9z m62 -20 c17 -43 -6 -81 -43 -69 -44 14 -32 85 13
85 13 0 27 -7 30 -16z"/>
<path d="M2362 1894 c-30 -21 -31 -79 -1 -94 23 -13 69 -6 69 10 0 6 -11 5
-25 -2 -21 -9 -29 -9 -42 5 -22 21 -10 32 34 32 43 0 52 16 24 44 -25 25 -30
26 -59 5z m56 -21 c2 -9 -8 -13 -32 -13 -28 0 -34 3 -29 16 7 18 54 16 61 -3z"/>
<path d="M2552 1894 c-38 -26 -21 -104 23 -104 22 0 45 12 45 23 0 7 -4 7 -12
-1 -16 -16 -34 -15 -52 4 -23 23 -11 33 34 29 46 -4 53 12 20 45 -24 24 -29
24 -58 4z m56 -21 c2 -9 -8 -13 -33 -13 -33 0 -36 2 -25 15 15 18 51 16 58 -2z"/>
<path d="M2171 1895 c-1 -21 26 -96 35 -96 5 0 13 16 18 35 12 46 22 46 33 -1
5 -21 13 -38 17 -38 5 0 17 24 27 53 10 28 14 52 9 52 -5 0 -12 -16 -16 -35
-9 -50 -21 -52 -34 -5 -13 49 -27 51 -36 5 -6 -35 -24 -58 -24 -33 -1 17 -28
76 -29 63z"/>
<path d="M2460 1842 c0 -33 4 -51 10 -47 6 3 10 21 10 40 0 23 7 39 22 49 21
15 21 15 -10 13 -32 -2 -32 -3 -32 -55z"/>
<path d="M3010 1854 c25 -56 25 -80 3 -94 -17 -10 -17 -11 1 -8 14 2 28 24 48
72 32 78 31 76 20 76 -5 0 -14 -18 -21 -40 -14 -46 -25 -45 -41 5 -6 19 -16
35 -20 35 -5 0 0 -21 10 -46z"/>
<path d="M1613 1660 c-44 -26 -65 -63 -65 -110 2 -99 104 -161 191 -116 47 25
55 41 28 59 -20 13 -26 13 -42 1 -32 -24 -81 -18 -105 13 -50 64 24 138 103
102 34 -15 75 5 56 27 -37 45 -114 56 -166 24z"/>
<path d="M1880 1662 c-64 -34 -88 -118 -50 -179 54 -88 197 -81 236 12 19 46
18 73 -4 114 -35 65 -115 88 -182 53z m119 -68 c27 -34 27 -64 1 -92 -27 -29
-76 -29 -107 0 -30 28 -29 63 2 93 33 34 77 33 104 -1z"/>
<path d="M2110 1585 c0 -131 19 -164 96 -165 25 0 47 6 54 15 13 16 34 10 24
-6 -4 -7 7 -9 27 -7 l33 3 0 125 1 125 -30 0 -30 0 -3 -85 c-3 -91 -17 -120
-57 -120 -40 0 -54 29 -57 120 -3 84 -3 85 -30 88 l-28 3 0 -96z"/>
<path d="M2380 1550 l0 -130 30 0 30 0 0 80 c0 73 3 83 25 105 13 14 28 25 33
25 5 0 12 11 14 25 4 19 1 25 -13 25 -10 0 -24 -7 -33 -15 -8 -8 -17 -15 -20
-15 -3 0 -6 7 -6 15 0 10 -10 15 -30 15 l-30 0 0 -130z"/>
<path d="M2566 1659 c-56 -44 -22 -119 60 -135 36 -7 59 -27 49 -44 -10 -16
-56 -12 -77 7 -15 13 -23 14 -43 5 -32 -15 -31 -25 1 -51 19 -15 41 -21 79
-21 67 0 105 27 105 74 0 41 -22 62 -88 81 -54 16 -68 39 -32 50 12 4 31 0 45
-9 21 -14 25 -14 46 2 l22 18 -28 22 c-37 29 -103 30 -139 1z"/>
<path d="M2832 1664 c-86 -44 -87 -185 -1 -230 37 -19 93 -18 135 2 39 19 40
21 18 45 -14 16 -19 16 -52 2 -32 -13 -39 -13 -69 1 -18 9 -33 22 -33 31 0 12
17 15 95 15 l95 0 0 35 c0 26 -9 45 -33 71 -40 44 -102 55 -155 28z m112 -60
c28 -27 18 -34 -49 -34 -36 0 -65 3 -65 7 0 3 7 15 17 25 20 22 76 24 97 2z"/>
<path d="M3058 1674 c-2 -1 -2 -59 0 -128 l3 -126 30 0 29 0 0 83 c0 87 10
113 45 119 13 2 21 12 23 31 4 31 -12 35 -46 11 -19 -13 -22 -13 -22 0 0 10
-10 14 -30 14 -16 -1 -31 -2 -32 -4z"/>
<path d="M3263 1660 c-75 -45 -84 -148 -19 -207 28 -26 44 -33 76 -33 22 0 50
6 61 13 17 10 23 10 26 0 3 -7 18 -13 34 -13 l30 0 -3 128 c-3 124 -3 127 -26
128 -12 1 -26 -6 -31 -14 -7 -13 -11 -13 -32 2 -31 22 -77 20 -116 -4z m122
-65 c30 -30 31 -54 4 -89 -40 -50 -129 -22 -129 41 0 32 43 73 75 73 14 0 37
-11 50 -25z"/>
<path d="M1329 947 c-56 -71 -83 -111 -67 -99 23 18 102 122 97 127 -3 2 -16
-10 -30 -28z"/>
<path d="M3626 971 c-8 -13 97 -142 107 -132 5 5 -14 38 -43 75 -55 70 -56 71
-64 57z"/>
<path d="M1350 873 l-44 -66 34 -28 c43 -36 87 -39 99 -6 5 12 6 27 4 34 -2 6
4 14 15 17 24 8 35 32 24 52 -8 14 -72 64 -81 64 -3 0 -26 -30 -51 -67z m94
26 c32 -25 32 -63 1 -67 -11 -1 -33 8 -49 21 -26 21 -27 25 -15 45 17 27 29
28 63 1z m-36 -69 c28 -25 31 -33 22 -50 -14 -26 -34 -25 -76 1 l-34 21 17 29
c22 36 31 36 71 -1z"/>
<path d="M3580 877 c-25 -12 -41 -57 -21 -57 6 0 11 6 11 14 0 22 29 41 42 28
8 -8 4 -19 -16 -42 -29 -36 -31 -41 -14 -58 19 -19 40 -14 76 17 l33 28 -38
41 c-43 47 -40 46 -73 29z m64 -56 c16 -25 -27 -62 -47 -42 -7 7 -5 17 8 31
20 22 31 25 39 11z"/>
<path d="M3455 851 c-6 -11 9 -23 19 -14 9 9 7 23 -3 23 -6 0 -12 -4 -16 -9z"/>
<path d="M1507 808 c-46 -80 -61 -114 -45 -101 8 7 25 35 37 62 16 32 28 48
37 44 8 -3 14 1 14 10 0 33 -19 25 -43 -15z"/>
<path d="M3485 811 c-7 -13 47 -101 62 -101 18 0 17 2 -18 59 -35 55 -35 56
-44 42z"/>
<path d="M3399 810 c-8 -28 -5 -68 5 -64 7 3 20 -11 29 -31 19 -39 42 -54 60
-36 8 8 7 11 -4 11 -22 0 -52 56 -44 81 5 15 4 19 -5 14 -6 -4 -18 1 -25 11
-8 11 -15 17 -16 14z"/>
<path d="M1524 735 c-6 -36 -8 -68 -6 -70 3 -3 28 15 56 38 78 66 83 66 43 -6
-20 -37 -33 -67 -29 -67 7 0 82 132 82 144 0 14 -21 3 -72 -39 -30 -25 -58
-45 -62 -45 -4 0 -4 25 -1 55 10 77 0 69 -11 -10z"/>
<path d="M3308 711 c-6 -11 -18 -17 -26 -13 -8 3 -13 1 -11 -4 2 -5 12 -30 23
-57 10 -26 25 -47 32 -47 18 0 18 4 -5 48 -14 27 -16 43 -10 55 17 29 38 19
62 -30 31 -59 45 -40 15 21 -24 51 -58 62 -80 27z"/>
<path d="M1745 645 c-15 -42 -26 -77 -24 -79 10 -8 75 -26 94 -26 42 0 83 67
71 116 -6 23 -69 64 -99 64 -9 0 -25 -30 -42 -75z m96 35 c25 -14 25 -70 1
-100 -16 -19 -24 -22 -55 -16 -41 8 -42 10 -23 57 7 19 16 42 19 52 7 19 29
22 58 7z"/>
<path d="M3064 655 c3 -8 9 -23 13 -32 5 -13 2 -15 -10 -10 -10 4 -28 1 -42
-5 -20 -9 -25 -19 -25 -48 0 -58 58 -94 90 -56 6 8 19 12 27 9 11 -5 15 -2 11
8 -2 8 -13 44 -24 82 -11 41 -24 67 -32 67 -9 0 -12 -6 -8 -15z m21 -79 c13
-19 14 -29 5 -45 -22 -41 -70 -15 -70 38 0 36 43 41 65 7z"/>
<path d="M3166 654 c-22 -22 -20 -70 4 -94 11 -11 24 -20 29 -20 25 0 59 21
64 39 7 27 -4 27 -21 0 -8 -12 -21 -19 -34 -17 -37 5 -31 27 11 44 47 19 50
27 19 48 -29 20 -52 20 -72 0z m61 -20 c2 -7 -10 -17 -27 -22 -26 -10 -30 -9
-30 7 0 10 3 21 7 25 10 10 46 3 50 -10z"/>
<path d="M1940 650 c0 -5 5 -10 10 -10 6 0 10 5 10 10 0 6 -4 10 -10 10 -5 0
-10 -4 -10 -10z"/>
<path d="M1925 608 c-24 -65 -32 -108 -21 -108 7 0 18 19 25 43 7 23 15 50 17
60 6 19 -14 24 -21 5z"/>
<path d="M2150 600 c0 -5 5 -10 10 -10 6 0 10 5 10 10 0 6 -4 10 -10 10 -5 0
-10 -4 -10 -10z"/>
<path d="M1987 572 c-36 -40 -8 -108 40 -99 18 3 23 0 21 -12 -4 -23 -46 -26
-69 -5 -17 15 -19 15 -19 1 0 -32 76 -51 98 -24 13 16 42 133 35 141 -3 2 -11
2 -18 0 -7 -3 -16 -1 -20 5 -10 17 -50 13 -68 -7z m76 -21 c2 -9 0 -27 -4 -40
-7 -17 -15 -22 -36 -19 -36 4 -42 39 -14 67 23 23 47 19 54 -8z"/>
<path d="M2220 579 c0 -7 -8 -18 -17 -25 -12 -9 -14 -13 -5 -14 10 0 13 -14
10 -52 -3 -50 -2 -53 22 -56 19 -2 22 0 10 7 -20 12 -15 91 6 91 8 0 14 5 14
10 0 6 -4 10 -10 10 -5 0 -10 9 -10 20 0 11 -4 20 -10 20 -5 0 -10 -5 -10 -11z"/>
<path d="M2605 565 c-51 -50 -16 -148 53 -148 33 0 72 27 72 50 0 19 -10 16
-36 -12 -28 -30 -35 -31 -65 -6 -26 21 -32 79 -10 105 17 20 55 21 71 1 14
-17 40 -20 40 -6 0 17 -43 41 -73 41 -16 0 -38 -10 -52 -25z"/>
<path d="M2440 495 c0 -50 4 -85 10 -85 6 0 10 35 10 85 0 50 -4 85 -10 85 -6
0 -10 -35 -10 -85z"/>
<path d="M2876 564 c-9 -8 -16 -31 -16 -49 0 -44 34 -70 73 -56 28 11 43 29
32 39 -3 4 -11 -1 -16 -11 -12 -21 -42 -22 -58 -3 -14 17 -8 22 42 31 41 8 47
23 19 48 -23 21 -56 22 -76 1z m61 -20 c4 -12 -45 -29 -54 -20 -3 3 -3 12 1
21 7 18 47 17 53 -1z"/>
<path d="M2136 541 c-3 -17 -9 -44 -12 -60 -3 -16 -1 -32 5 -35 14 -9 36 103
23 116 -7 7 -12 -1 -16 -21z"/>
<path d="M2800 549 c0 -6 -9 -8 -21 -4 -17 6 -20 4 -16 -12 3 -10 9 -37 12
-60 9 -56 30 -57 22 -2 -4 32 -1 45 14 60 23 23 24 29 4 29 -8 0 -15 -5 -15
-11z"/>
<path d="M2300 525 c-10 -12 -10 -15 3 -15 9 0 18 4 21 9 8 13 46 1 46 -13 0
-7 -19 -16 -42 -22 -42 -9 -56 -27 -40 -50 4 -6 30 -14 58 -17 l51 -6 -5 57
c-3 31 -10 60 -16 64 -19 13 -63 9 -76 -7z m70 -59 c0 -21 -27 -38 -50 -31
-27 8 -21 27 11 36 36 10 39 10 39 -5z"/>
</g>
</svg>
