<?xml version="1.0" standalone="no"?>
<!DOCTYPE svg PUBLIC "-//W3C//DTD SVG 20010904//EN"
 "http://www.w3.org/TR/2001/REC-SVG-20010904/DTD/svg10.dtd">
<svg version="1.0" xmlns="http://www.w3.org/2000/svg"
 width="500.000000pt" height="500.000000pt" viewBox="0 0 500.000000 500.000000"
 preserveAspectRatio="xMidYMid meet">
<metadata>
Created by potrace 1.16, written by Peter Selinger 2001-2019
</metadata>
<g transform="translate(0.000000,500.000000) scale(0.100000,-0.100000)"
fill="#000000" stroke="none">
<path d="M0 2500 l0 -2500 2500 0 2500 0 0 2500 0 2500 -2500 0 -2500 0 0
-2500z m4502 1688 l3 -212 105 -42 c58 -23 139 -54 180 -69 41 -15 81 -32 88
-38 9 -7 12 -167 12 -738 l0 -729 -374 0 c-327 0 -377 -2 -390 -16 -20 -19
-21 -44 -2 -44 8 0 18 -4 21 -10 4 -7 -3 -7 -20 0 -33 13 -37 10 -60 -40 l-18
-40 -766 -2 c-421 -1 -1166 -3 -1655 -3 l-889 0 2 -340 c1 -186 5 -343 8 -349
3 -5 1 -6 -5 -2 -5 3 -13 0 -15 -6 -3 -7 -6 135 -6 315 -1 303 -2 328 -18 333
-19 6 -85 31 -118 45 -57 23 -131 52 -235 89 -63 23 -131 48 -150 55 l-35 13
-5 713 c-3 393 -4 724 -2 737 3 22 4 22 191 22 l188 0 -5 208 c-2 114 -1 243
2 285 l8 77 1979 0 1979 0 2 -212z m-292 -1923 c33 -19 21 -19 -21 0 -19 8
-27 14 -19 14 8 0 26 -6 40 -14z m65 -25 c8 -13 -5 -13 -25 0 -13 8 -13 10 2
10 9 0 20 -4 23 -10z m55 -20 c24 -15 7 -18 -20 -3 -14 7 -18 13 -10 13 8 0
22 -4 30 -10z m-2799 -236 c8 -10 10 -21 3 -31 -5 -8 -7 -51 -4 -95 5 -83 -1
-97 -35 -84 -11 4 -15 23 -15 81 0 44 4 75 10 75 6 0 5 8 -2 19 -9 15 -9 23 1
35 17 20 25 20 42 0z m-480 -13 c23 -19 24 -20 5 -34 -16 -12 -24 -12 -44 -1
-27 14 -51 9 -69 -14 -18 -22 -16 -67 3 -86 18 -19 65 -21 81 -5 15 15 43 4
43 -15 0 -23 -41 -46 -83 -46 -31 0 -46 7 -73 34 -29 29 -34 41 -34 81 0 38 5
52 29 76 24 23 38 29 74 29 29 0 53 -7 68 -19z m599 -5 c0 -15 -7 -26 -17 -29
-10 -3 -2 -5 17 -6 23 0 30 2 22 8 -19 12 -11 45 12 49 24 5 40 -13 31 -35 -4
-10 -6 -55 -5 -101 1 -82 1 -83 -22 -80 -21 3 -23 9 -26 61 -3 48 -6 57 -22
57 -16 0 -19 -9 -22 -57 -3 -51 -6 -58 -25 -61 -22 -3 -23 0 -23 57 0 48 -3
61 -15 61 -8 0 -15 9 -15 20 0 11 7 20 15 20 8 0 15 6 15 14 0 22 29 46 56 46
19 0 24 -5 24 -24z m968 3 c2 -10 -6 -19 -20 -24 -18 -6 -20 -8 -6 -12 26 -7
31 -34 8 -40 -17 -5 -20 -14 -20 -59 0 -47 -2 -54 -20 -54 -18 0 -20 7 -20 55
0 42 -3 55 -15 55 -8 0 -15 9 -15 20 0 11 7 20 15 20 8 0 15 5 15 12 0 38 71
63 78 27z m222 3 c19 -16 20 -19 7 -30 -11 -10 -20 -10 -41 -1 -52 24 -98 -23
-82 -84 8 -34 51 -51 85 -34 31 15 51 12 51 -9 0 -21 -64 -46 -98 -38 -92 22
-117 147 -39 194 40 25 88 25 117 2z m660 -87 c0 -98 -1 -105 -20 -105 -19 0
-20 7 -20 98 0 100 3 112 27 112 10 0 13 -24 13 -105z m338 82 c4 -20 -25 -34
-40 -19 -15 15 -1 44 19 40 10 -2 19 -11 21 -21z m-1727 -40 c25 -7 25 -37 -1
-37 -16 0 -20 -7 -20 -35 0 -29 4 -35 21 -35 29 0 22 -44 -8 -48 -34 -5 -63
31 -63 78 0 22 -4 40 -10 40 -5 0 -10 9 -10 20 0 11 5 20 10 20 6 0 10 9 10
19 0 29 44 33 48 5 2 -12 12 -24 23 -27z m-681 23 c0 -13 7 -20 20 -20 13 0
20 -7 20 -20 0 -14 -7 -20 -21 -20 -17 0 -20 -5 -17 -32 2 -21 8 -33 18 -33 9
0 15 -9 15 -25 0 -18 -6 -26 -22 -28 -34 -5 -63 31 -63 78 0 22 -4 40 -10 40
-5 0 -10 9 -10 20 0 11 5 20 10 20 6 0 10 9 10 20 0 15 7 20 25 20 18 0 25 -5
25 -20z m2310 1 c0 -10 9 -21 20 -24 11 -3 20 -10 20 -17 0 -7 -9 -14 -20 -17
-15 -4 -20 -14 -20 -38 0 -24 5 -34 20 -38 31 -8 25 -37 -8 -37 -38 0 -52 17
-52 63 0 26 -6 45 -17 53 -17 13 -17 15 0 28 9 7 17 21 17 30 0 9 8 16 20 16
13 0 20 -7 20 -19z m-2531 -34 c7 -6 17 -20 21 -32 7 -17 9 -14 9 13 1 30 3
33 34 32 17 -1 41 0 52 2 15 2 20 -3 20 -22 0 -17 -5 -25 -18 -25 -25 0 -37
-23 -37 -73 0 -39 -2 -43 -22 -40 -18 2 -24 11 -26 36 -3 32 -4 32 -58 32 -37
0 -53 -4 -49 -11 4 -6 22 -8 45 -4 48 8 63 -10 30 -37 -71 -58 -167 34 -114
110 28 40 76 48 113 19z m760 12 c36 -13 44 -33 39 -105 l-3 -49 -49 -3 c-34
-2 -54 3 -67 14 -16 15 -20 15 -41 0 -33 -23 -75 -20 -103 9 -50 49 -17 135
51 135 42 0 74 -15 74 -35 0 -19 -40 -31 -51 -14 -13 21 -44 -2 -44 -32 0 -22
4 -24 47 -24 29 0 48 4 48 11 0 17 26 35 63 45 32 8 31 8 -8 6 -29 -1 -40 2
-40 13 0 10 34 37 51 40 1 0 15 -5 33 -11z m277 -2 c21 -7 44 -45 44 -72 0
-11 -14 -15 -56 -15 -38 0 -53 -3 -48 -11 4 -7 21 -9 45 -5 45 7 59 -7 33 -35
-25 -28 -79 -25 -109 6 -34 33 -33 78 3 114 27 28 46 31 88 18z m242 -22 c29
-35 29 -79 -3 -110 -65 -65 -173 9 -133 91 27 57 94 66 136 19z m522 5 c11
-11 21 -28 21 -37 1 -10 4 -2 8 17 6 34 7 35 55 37 28 1 56 -3 63 -9 10 -8 17
-8 25 0 19 19 66 14 78 -7 5 -11 10 -45 10 -75 0 -49 -3 -56 -19 -56 -17 0
-20 8 -23 53 -3 44 -6 52 -23 52 -17 0 -20 -8 -23 -52 -3 -45 -6 -53 -23 -53
-16 0 -19 7 -19 50 0 37 -4 52 -16 57 -29 11 -40 -11 -43 -89 -1 -11 -9 -18
-21 -18 -16 0 -20 7 -21 38 -1 21 -4 28 -6 16 -11 -57 -98 -79 -134 -35 -43
52 -8 131 58 131 20 0 41 -8 53 -20z m420 -7 c35 -44 22 -105 -26 -123 -17 -7
-32 -6 -45 0 -17 10 -19 7 -19 -25 0 -31 -3 -35 -25 -35 -25 0 -25 0 -25 98 0
54 2 101 5 104 3 2 29 5 59 6 48 1 58 -2 76 -25z m219 10 c11 -10 22 -29 23
-43 3 -23 0 -25 -49 -28 -29 -2 -53 -7 -53 -13 0 -17 31 -22 56 -9 34 19 57
-2 31 -27 -24 -24 -83 -22 -108 3 -65 66 29 176 100 117z m189 -61 c3 -67 1
-72 -18 -72 -18 0 -20 6 -20 76 0 66 2 75 18 72 14 -3 18 -16 20 -76z m137 72
c8 -4 22 -19 31 -35 28 -55 -9 -113 -73 -113 -44 0 -73 32 -73 79 0 54 60 90
115 69z m180 -11 c10 -9 15 -35 15 -74 0 -52 -2 -59 -20 -59 -17 0 -20 7 -20
50 0 36 -4 52 -15 56 -26 10 -45 -16 -45 -62 0 -37 -3 -44 -20 -44 -18 0 -20
7 -20 74 l0 73 55 1 c36 0 60 -5 70 -15z m180 -413 c-4 -6 -140 -10 -373 -10
l-367 -1 -25 -33 c-96 -126 -255 -301 -440 -486 -176 -176 -197 -196 -325
-305 -38 -33 -74 -65 -80 -71 -5 -6 -37 -33 -70 -60 -33 -27 -62 -52 -65 -55
-15 -17 -57 -39 -73 -39 -41 0 -335 252 -618 530 -64 63 -125 120 -135 127
-18 12 -18 12 1 6 11 -4 -21 38 -71 94 -106 118 -244 287 -244 298 0 4 444 5
988 2 786 -5 1883 2 1900 11 2 1 0 -2 -3 -8z m-3555 -20 c8 -5 11 -10 5 -10
-5 0 -17 5 -25 10 -8 5 -10 10 -5 10 6 0 17 -5 25 -10z m80 -30 c8 -5 11 -10
5 -10 -5 0 -17 5 -25 10 -8 5 -10 10 -5 10 6 0 17 -5 25 -10z m130 -50 c8 -5
11 -10 5 -10 -5 0 -17 5 -25 10 -8 5 -10 10 -5 10 6 0 17 -5 25 -10z m80 -30
c8 -5 11 -10 5 -10 -5 0 -17 5 -25 10 -8 5 -10 10 -5 10 6 0 17 -5 25 -10z
m55 -28 c-3 -3 -11 0 -18 7 -9 10 -8 11 6 5 10 -3 15 -9 12 -12z m86 -27 c19
-8 27 -14 19 -14 -14 0 -72 28 -59 29 4 0 22 -7 40 -15z m94 -35 c13 -6 15 -9
5 -9 -8 0 -22 4 -30 9 -18 12 -2 12 25 0z m56 -28 c-7 -2 -18 1 -23 6 -8 8 -4
9 13 5 13 -4 18 -8 10 -11z m74 -22 c13 -6 15 -9 5 -9 -8 0 -22 4 -30 9 -18
12 -2 12 25 0z m105 -42 c10 -6 7 -7 -10 -2 -14 3 -32 11 -40 16 -10 6 -7 7
10 2 14 -3 32 -11 40 -16z m100 -38 c8 -5 11 -10 5 -10 -5 0 -17 5 -25 10 -8
5 -10 10 -5 10 6 0 17 -5 25 -10z m80 -30 c8 -5 11 -10 5 -10 -5 0 -17 5 -25
10 -8 5 -10 10 -5 10 6 0 17 -5 25 -10z"/>
<path d="M1740 4230 c0 -40 4 -70 10 -70 6 0 10 30 10 70 0 40 -4 70 -10 70
-6 0 -10 -30 -10 -70z"/>
<path d="M3142 4244 c-30 -20 -29 -59 2 -79 19 -13 29 -14 45 -5 27 14 27 24
0 17 -31 -8 -49 2 -49 28 0 26 18 36 49 28 24 -6 29 12 5 21 -22 9 -27 8 -52
-10z"/>
<path d="M3252 4244 c-30 -21 -29 -59 3 -80 23 -15 27 -15 50 0 32 21 33 59 3
80 -12 9 -25 16 -28 16 -3 0 -16 -7 -28 -16z m42 -10 c20 -8 21 -53 1 -60 -8
-4 -22 -1 -30 6 -18 15 -20 46 -2 53 6 3 13 6 14 6 1 1 8 -2 17 -5z"/>
<path d="M3425 4248 c-2 -7 -5 -26 -7 -43 -2 -22 -8 -30 -23 -30 -16 0 -21 8
-23 38 -4 49 -22 48 -22 -3 0 -45 19 -61 63 -53 25 5 27 9 27 54 0 47 -6 62
-15 37z"/>
<path d="M3469 4257 c-5 -13 -2 -97 4 -97 4 0 7 12 7 27 0 14 7 34 15 43 14
16 14 18 -5 23 -11 3 -20 4 -21 4z"/>
<path d="M3548 4253 c-27 -7 -22 -42 7 -53 14 -5 25 -15 25 -21 0 -7 -9 -9
-25 -5 -14 4 -25 2 -25 -3 0 -14 41 -21 62 -10 29 15 19 41 -19 53 -32 10 -29
30 2 22 27 -7 35 8 9 18 -9 3 -16 5 -17 5 -1 -1 -10 -3 -19 -6z"/>
<path d="M3640 4240 c-11 -11 -20 -27 -20 -35 0 -16 35 -55 49 -55 17 0 41 12
41 20 0 5 -12 8 -26 7 -15 -1 -29 4 -31 11 -3 8 7 12 31 12 40 0 47 17 20 44
-21 21 -40 20 -64 -4z m58 -17 c2 -8 -6 -13 -22 -13 -25 0 -33 10 -19 24 10
10 36 3 41 -11z"/>
<path d="M3763 4252 c-20 -3 -23 -9 -23 -48 0 -24 5 -44 10 -44 6 0 10 12 10
27 0 14 7 35 17 45 19 21 16 25 -14 20z"/>
<path d="M3821 4241 c-12 -12 -21 -28 -21 -36 0 -22 39 -57 57 -51 8 3 23 6
34 6 16 0 19 7 19 45 0 38 -3 45 -19 45 -11 0 -26 3 -34 6 -9 3 -25 -4 -36
-15z m63 -23 c8 -14 7 -21 -6 -34 -30 -30 -75 9 -48 42 16 18 39 15 54 -8z"/>
<path d="M1448 4238 c15 -8 22 -20 22 -40 0 -15 -5 -28 -12 -28 -6 0 -8 -3 -4
-7 8 -8 36 23 36 39 0 13 -39 48 -52 47 -7 0 -3 -5 10 -11z"/>
<path d="M1798 4236 c-25 -18 -22 -49 5 -72 l22 -19 -19 23 c-14 16 -16 22 -5
22 11 0 11 2 -1 10 -13 9 -12 13 9 30 26 22 16 27 -11 6z"/>
<path d="M1400 4219 c-14 -26 -8 -44 22 -60 l23 -11 -22 21 c-26 25 -27 26
-13 52 6 10 8 19 6 19 -3 0 -10 -9 -16 -21z"/>
<path d="M1840 4226 c0 -9 5 -16 10 -16 6 0 10 4 10 9 0 6 -4 13 -10 16 -5 3
-10 -1 -10 -9z"/>
<path d="M4490 3895 c0 -45 4 -65 13 -65 8 0 11 15 10 47 -1 27 -2 56 -2 66
-1 9 -5 17 -11 17 -6 0 -10 -28 -10 -65z"/>
<path d="M2072 3663 c-70 -34 -82 -132 -22 -185 64 -58 180 -21 180 58 l0 34
-50 0 c-37 0 -50 -4 -50 -14 0 -10 13 -16 38 -18 l37 -3 -27 -27 c-32 -33 -66
-36 -102 -7 -55 43 -21 139 50 139 17 0 35 -5 41 -11 13 -13 33 -4 33 16 0 13
-49 35 -79 35 -9 0 -31 -8 -49 -17z"/>
<path d="M2830 3560 c0 -101 2 -110 19 -110 17 0 19 9 20 110 2 105 1 110 -19
110 -19 0 -20 -6 -20 -110z"/>
<path d="M2285 3585 c-52 -51 -17 -135 56 -135 52 0 79 27 79 78 0 75 -83 110
-135 57z m90 -25 c24 -26 13 -68 -20 -76 -32 -8 -55 11 -55 45 0 50 42 67 75
31z"/>
<path d="M2465 3585 c-51 -50 -15 -135 57 -135 68 0 105 59 74 118 -26 50 -91
58 -131 17z m90 -25 c24 -26 13 -68 -20 -76 -33 -8 -55 11 -55 47 0 46 44 63
75 29z"/>
<path d="M2650 3583 c-28 -36 -26 -78 6 -110 25 -25 43 -27 87 -8 15 6 16 4 9
-16 -13 -35 -36 -45 -65 -30 -34 18 -54 5 -31 -20 27 -30 87 -26 113 7 18 22
21 41 21 113 l0 87 -60 1 c-53 2 -61 -1 -80 -24z m88 -15 c18 -18 15 -66 -5
-76 -10 -6 -28 -6 -40 -1 -40 15 -26 89 17 89 9 0 21 -5 28 -12z"/>
<path d="M2915 3585 c-51 -50 -17 -135 54 -135 47 0 82 23 64 41 -10 10 -16
10 -25 1 -22 -22 -78 -8 -78 20 0 4 27 8 60 8 52 0 60 3 60 19 0 10 -9 30 -21
45 -28 35 -80 36 -114 1z m93 -22 c2 -9 -9 -13 -38 -13 -37 0 -41 2 -30 16 15
17 61 15 68 -3z"/>
<path d="M3344 3295 c-9 -23 3 -45 25 -45 23 0 35 28 20 46 -15 18 -38 18 -45
-1z"/>
<path d="M1250 3159 l0 -142 68 5 c116 8 164 47 165 135 1 98 -50 143 -162
143 l-71 0 0 -141z m122 90 c105 -29 77 -179 -33 -179 l-39 0 0 88 c0 49 3 92
7 95 9 9 22 9 65 -4z"/>
<path d="M2198 3171 c-27 -70 -48 -133 -48 -140 0 -6 9 -11 21 -11 13 0 25 11
35 35 14 34 16 35 70 35 53 0 55 -1 70 -35 11 -27 20 -35 40 -35 21 0 25 4 19
18 -4 9 -27 72 -52 140 -45 120 -46 122 -77 122 -31 0 -32 -2 -78 -129z m92
44 c5 -14 13 -37 16 -50 6 -23 3 -25 -30 -25 -20 0 -36 1 -36 3 0 10 33 97 36
97 3 0 9 -11 14 -25z"/>
<path d="M2872 3163 c3 -135 4 -138 26 -141 22 -3 22 -3 22 137 l0 141 -25 0
-26 0 3 -137z"/>
<path d="M1760 3254 c0 -17 -6 -28 -20 -31 -11 -3 -20 -13 -20 -23 0 -10 9
-20 20 -23 17 -4 20 -14 20 -65 0 -52 3 -63 22 -76 35 -25 68 -21 68 8 0 18
-6 25 -22 28 -20 3 -23 10 -26 56 -3 50 -2 52 22 52 19 0 26 5 26 20 0 15 -7
20 -25 20 -21 0 -25 5 -25 30 0 23 -4 30 -20 30 -15 0 -20 -7 -20 -26z"/>
<path d="M3200 3250 c0 -20 -5 -30 -15 -30 -8 0 -15 -9 -15 -20 0 -11 6 -20
14 -20 10 0 15 -19 18 -66 5 -74 20 -94 70 -94 23 0 28 4 28 24 0 18 -6 25
-22 28 -20 3 -23 10 -26 56 -3 50 -2 52 22 52 19 0 26 5 26 20 0 15 -7 20 -25
20 -21 0 -25 5 -25 30 0 25 -4 30 -25 30 -21 0 -25 -5 -25 -30z"/>
<path d="M1573 3223 c-28 -5 -49 -31 -37 -43 6 -6 22 -5 42 2 36 14 65 3 70
-26 3 -13 -1 -16 -22 -10 -56 14 -106 -17 -106 -66 0 -48 75 -81 108 -48 10
10 15 10 21 -1 5 -7 17 -11 27 -9 17 3 19 13 19 80 0 64 -3 81 -20 97 -21 20
-66 31 -102 24z m55 -109 c29 -8 28 -29 -2 -49 -39 -26 -82 8 -50 40 17 17 20
17 52 9z"/>
<path d="M1924 3220 c-29 -11 -39 -29 -25 -43 8 -8 14 -8 23 1 17 17 54 15 72
-4 22 -22 20 -37 -5 -29 -35 11 -88 -4 -105 -30 -28 -43 5 -95 60 -95 17 0 38
6 45 13 11 10 14 10 18 0 3 -7 13 -13 24 -13 17 0 19 8 19 83 0 67 -3 87 -17
100 -23 20 -81 29 -109 17z m71 -113 c17 -13 17 -15 -4 -36 -25 -25 -49 -24
-65 2 -9 15 -7 21 8 33 25 18 37 18 61 1z"/>
<path d="M2511 3213 c-18 -12 -26 -13 -29 -5 -2 7 -12 12 -23 12 -17 0 -19 -8
-19 -101 0 -97 1 -100 22 -97 19 3 21 10 23 65 1 70 16 95 54 91 25 -3 26 -6
31 -78 5 -68 7 -75 28 -78 21 -3 22 -1 22 76 0 61 -4 85 -17 100 -25 30 -63
36 -92 15z"/>
<path d="M2688 3214 c-16 -8 -28 -19 -28 -25 0 -15 30 -23 43 -10 24 24 77 6
77 -26 0 -9 -8 -11 -25 -7 -55 14 -105 -18 -105 -66 0 -48 62 -76 111 -50 13
7 19 7 19 0 0 -5 11 -10 25 -10 24 0 25 2 25 70 0 84 -13 116 -53 130 -39 13
-56 12 -89 -6z m83 -104 c18 0 8 -30 -15 -45 -29 -19 -56 -10 -56 20 0 24 22
36 48 29 8 -2 18 -4 23 -4z"/>
<path d="M3473 3211 c-45 -28 -61 -85 -39 -133 19 -39 51 -58 99 -58 36 0 77
24 77 44 0 21 -31 28 -50 11 -23 -20 -46 -19 -70 5 -25 25 -26 62 -2 83 21 19
63 22 78 7 11 -11 44 -4 44 10 0 16 -39 41 -71 46 -24 3 -44 -1 -66 -15z"/>
<path d="M3690 3223 c-26 -10 -50 -35 -50 -53 0 -23 29 -47 76 -63 21 -8 39
-20 39 -28 0 -17 -43 -25 -58 -10 -14 14 -44 14 -53 -1 -12 -19 35 -48 78 -48
67 0 108 63 63 100 -6 5 -29 16 -50 23 -22 8 -41 19 -43 25 -6 18 28 27 49 14
21 -13 49 -6 49 12 0 25 -63 43 -100 29z"/>
<path d="M2954 3188 c7 -18 26 -61 41 -96 l28 -63 -22 -45 -21 -45 27 3 c24 3
33 16 84 133 32 72 58 133 58 138 1 4 -10 7 -23 7 -19 0 -28 -10 -45 -49 -11
-27 -21 -54 -21 -60 0 -29 -21 -5 -42 49 -20 53 -26 60 -51 60 -27 0 -27 0
-13 -32z"/>
<path d="M3342 3123 c3 -93 4 -98 26 -101 22 -3 22 -1 22 97 l0 101 -25 0 -26
0 3 -97z"/>
<path d="M1633 2794 c-44 -22 -76 -76 -76 -129 0 -109 109 -176 209 -129 36
17 43 34 21 52 -8 7 -18 6 -31 -4 -31 -22 -91 -18 -123 10 -23 20 -28 32 -28
71 0 39 5 51 28 71 31 26 83 32 119 13 16 -9 24 -8 36 4 13 14 11 18 -19 36
-41 25 -92 27 -136 5z"/>
<path d="M2394 2795 c-8 -21 2 -45 19 -45 21 0 38 25 31 44 -8 20 -43 21 -50
1z"/>
<path d="M2542 2798 c-14 -7 -26 -24 -29 -41 -4 -17 -14 -32 -25 -34 -25 -7
-24 -43 2 -43 18 0 20 -7 20 -78 0 -71 2 -78 20 -78 18 0 20 7 20 78 l0 78 45
0 45 0 0 -74 c0 -65 2 -74 19 -79 11 -3 22 -2 25 1 3 3 6 47 6 99 l0 93 -63 0
c-35 0 -66 3 -70 6 -11 11 5 34 24 34 14 0 19 7 19 25 0 28 -18 32 -58 13z"/>
<path d="M2640 2796 c-18 -22 -5 -48 22 -44 17 2 23 10 23 28 0 29 -26 38 -45
16z"/>
<path d="M2250 2750 c0 -23 -4 -30 -20 -30 -12 0 -20 -7 -20 -16 0 -9 9 -18
20 -21 17 -5 20 -14 20 -60 0 -65 11 -89 44 -97 33 -8 56 2 56 25 0 14 -7 19
-25 19 -24 0 -25 3 -25 54 0 49 2 55 22 58 34 5 37 38 4 38 -22 0 -26 4 -26
30 0 25 -4 30 -25 30 -21 0 -25 -5 -25 -30z"/>
<path d="M3170 2750 c0 -19 -5 -30 -14 -30 -23 0 -29 -31 -6 -37 17 -5 20 -14
20 -62 0 -69 15 -92 60 -94 29 -2 36 2 38 20 2 16 -3 22 -20 25 -20 3 -23 9
-26 55 -3 47 -1 52 20 55 33 5 37 38 4 38 -22 0 -26 4 -26 30 0 25 -4 30 -25
30 -21 0 -25 -5 -25 -30z"/>
<path d="M1878 2713 c-32 -20 -48 -52 -48 -99 0 -81 103 -124 166 -70 27 23
28 23 7 34 -16 9 -24 8 -33 -3 -18 -22 -57 -18 -82 8 l-23 22 78 3 77 3 0 30
c0 40 -48 89 -87 89 -15 0 -40 -8 -55 -17z m88 -40 c17 -17 16 -18 -30 -21
-55 -4 -64 1 -46 23 17 20 54 19 76 -2z"/>
<path d="M2130 2713 c-17 -12 -25 -13 -28 -5 -2 7 -12 12 -23 12 -17 0 -19 -8
-19 -95 0 -95 0 -95 25 -95 24 0 25 2 25 63 0 68 10 87 47 87 18 0 23 6 23 25
0 29 -16 32 -50 8z"/>
<path d="M2754 2696 c-70 -70 -25 -176 75 -176 28 0 81 33 81 50 0 15 -35 16
-61 1 -24 -13 -29 -13 -53 2 -19 13 -26 26 -26 50 0 18 5 38 12 45 14 14 74
16 82 3 7 -11 46 -3 46 9 0 19 -55 50 -87 50 -26 0 -43 -8 -69 -34z"/>
<path d="M2966 2714 c-26 -15 -27 -17 -12 -32 12 -13 19 -13 28 -4 19 19 66
15 78 -8 12 -22 11 -23 -42 -20 -28 1 -44 -5 -63 -24 -30 -31 -31 -45 -4 -80
22 -28 56 -34 91 -15 11 6 23 7 27 3 3 -5 14 -10 24 -10 15 -2 17 8 17 81 0
68 -3 85 -19 99 -27 25 -90 30 -125 10z m88 -107 c17 -13 17 -14 1 -30 -9 -9
-27 -17 -41 -17 -32 0 -43 28 -19 46 24 17 36 18 59 1z"/>
<path d="M3324 2696 c-38 -38 -44 -77 -20 -125 27 -52 103 -67 151 -29 26 20
26 22 10 34 -15 11 -21 11 -39 -1 -27 -19 -51 -19 -70 1 -28 27 -18 34 53 34
39 0 73 5 76 10 12 20 -16 80 -45 95 -46 24 -78 19 -116 -19z m97 -16 c33 -18
21 -30 -31 -30 -51 0 -64 11 -32 29 22 13 39 13 63 1z"/>
<path d="M2390 2626 c0 -92 0 -94 25 -98 l25 -5 0 98 c0 99 0 99 -25 99 -25 0
-25 0 -25 -94z"/>
<path d="M222 2355 c7 -7 680 -7 687 0 2 3 -152 5 -344 5 -192 0 -346 -2 -343
-5z"/>
<path d="M2550 2348 c0 -4 56 -8 125 -8 69 0 125 3 125 8 0 4 -56 7 -125 8
-69 0 -125 -3 -125 -8z"/>
<path d="M2880 2350 c0 -5 9 -10 20 -10 11 0 20 5 20 10 0 6 -9 10 -20 10 -11
0 -20 -4 -20 -10z"/>
<path d="M3000 2349 c-25 -3 29 -7 119 -7 90 -1 161 1 157 6 -9 8 -212 10
-276 1z"/>
<path d="M3970 2350 c-51 -6 -49 -7 30 -8 55 0 78 2 65 8 -11 5 -24 8 -30 8
-5 -1 -35 -4 -65 -8z"/>
<path d="M3533 2343 c59 -2 154 -2 210 0 56 1 8 3 -108 3 -115 0 -161 -2 -102
-3z"/>
<path d="M1148 1883 c6 -2 18 -2 25 0 6 3 1 5 -13 5 -14 0 -19 -2 -12 -5z"/>
<path d="M1920 1824 c0 -9 7 -14 17 -12 25 5 28 28 4 28 -12 0 -21 -6 -21 -16z"/>
<path d="M2198 1883 c6 -2 18 -2 25 0 6 3 1 5 -13 5 -14 0 -19 -2 -12 -5z"/>
<path d="M2400 1869 c-13 -24 2 -49 31 -49 22 0 35 36 19 55 -17 21 -37 19
-50 -6z"/>
<path d="M2932 1878 c-29 -29 3 -82 36 -61 25 15 22 67 -3 71 -11 1 -26 -3
-33 -10z"/>
<path d="M3347 1883 c-12 -11 -8 -50 7 -62 30 -25 71 24 46 54 -13 16 -42 20
-53 8z"/>
<path d="M3580 1885 c-11 -13 -8 -15 19 -15 33 0 42 14 15 24 -21 8 -20 8 -34
-9z"/>
<path d="M3912 1878 c-29 -29 3 -82 36 -61 25 15 22 67 -3 71 -11 1 -26 -3
-33 -10z"/>
<path d="M3257 1473 c18 -2 50 -2 70 0 21 2 7 4 -32 4 -38 0 -55 -2 -38 -4z"/>
<path d="M3383 1473 c9 -2 25 -2 35 0 9 3 1 5 -18 5 -19 0 -27 -2 -17 -5z"/>
<path d="M3458 1473 c12 -2 32 -2 45 0 12 2 2 4 -23 4 -25 0 -35 -2 -22 -4z"/>
<path d="M3530 1469 c0 -5 5 -7 10 -4 6 3 10 8 10 11 0 2 -4 4 -10 4 -5 0 -10
-5 -10 -11z"/>
</g>
</svg>
