<?xml version="1.0" standalone="no"?>
<!DOCTYPE svg PUBLIC "-//W3C//DTD SVG 20010904//EN"
 "http://www.w3.org/TR/2001/REC-SVG-20010904/DTD/svg10.dtd">
<svg version="1.0" xmlns="http://www.w3.org/2000/svg"
 width="500.000000pt" height="500.000000pt" viewBox="0 0 500.000000 500.000000"
 preserveAspectRatio="xMidYMid meet">
<metadata>
Created by potrace 1.16, written by Peter Selinger 2001-2019
</metadata>
<g transform="translate(0.000000,500.000000) scale(0.100000,-0.100000)"
fill="#000000" stroke="none">
<path d="M0 2500 l0 -2500 2500 0 2500 0 0 2500 0 2500 -2500 0 -2500 0 0
-2500z m2811 2434 c57 -9 127 -19 154 -24 74 -12 244 -57 300 -79 11 -5 47
-18 80 -31 111 -41 352 -157 375 -180 7 -7 38 -26 75 -46 41 -23 205 -145 263
-197 187 -166 341 -344 457 -526 6 -9 12 -18 15 -21 23 -21 190 -350 190 -374
0 -3 9 -25 19 -49 19 -39 71 -199 91 -277 34 -134 51 -233 55 -335 2 -38 1
-54 -1 -35 -65 518 -251 959 -557 1325 -83 99 -270 281 -356 345 -18 14 -45
34 -59 46 -26 20 -115 78 -217 142 -136 84 -358 180 -535 230 -158 45 -182 50
-350 73 -269 37 -614 19 -875 -47 -419 -105 -810 -326 -1105 -625 -63 -64
-124 -127 -135 -140 -192 -234 -319 -447 -420 -707 -188 -481 -216 -1041 -77
-1542 164 -589 560 -1113 1077 -1423 184 -111 353 -187 531 -239 278 -83 402
-100 714 -101 197 -1 229 -2 165 -9 -204 -23 -572 11 -800 72 -22 6 -54 15
-71 19 -47 12 -131 43 -204 74 -180 77 -230 100 -230 110 0 4 -9 7 -20 7 -11
0 -20 4 -20 9 0 5 -9 13 -21 16 -22 7 -225 140 -247 162 -7 7 -16 13 -20 13
-4 0 -20 12 -37 28 -16 15 -46 40 -65 56 -78 64 -210 197 -275 277 -85 105
-104 129 -127 164 -15 22 -40 58 -55 80 -28 39 -51 79 -127 217 -95 174 -210
520 -236 713 -37 271 -43 447 -22 640 22 207 35 280 79 435 14 47 27 94 30
105 5 21 12 41 33 90 7 17 16 39 20 50 25 66 64 161 70 170 4 6 29 51 55 100
156 292 387 562 667 777 45 35 103 77 128 92 76 46 83 50 125 77 60 38 269
136 350 164 28 9 59 21 70 25 21 9 95 31 160 48 22 6 58 15 80 21 22 6 89 18
150 26 60 9 111 18 114 21 2 2 109 4 236 4 161 0 263 -5 336 -16z m-71 -104
c210 -26 404 -74 601 -150 95 -36 284 -132 363 -185 29 -19 58 -35 64 -35 6 0
15 -6 19 -13 4 -6 44 -39 88 -71 99 -74 106 -79 224 -197 120 -120 145 -148
206 -229 27 -36 61 -82 77 -102 15 -20 28 -40 28 -44 0 -4 11 -21 24 -39 32
-42 146 -261 184 -355 58 -142 107 -313 149 -525 23 -115 26 -586 5 -705 -34
-190 -101 -437 -146 -535 -7 -16 -33 -73 -56 -125 -61 -133 -180 -329 -259
-427 -14 -18 -39 -49 -56 -69 -92 -115 -286 -296 -432 -405 -286 -212 -708
-374 -1068 -410 -188 -18 -477 -11 -645 17 -71 12 -267 64 -350 93 -156 54
-376 157 -421 197 -8 8 -18 14 -22 14 -8 0 -125 80 -217 149 -71 53 -292 268
-353 342 -203 251 -329 482 -431 794 -26 81 -56 206 -82 350 -22 114 -29 434
-15 580 29 286 123 605 252 850 23 44 48 93 56 108 8 15 33 53 54 85 22 31 51
73 64 93 125 190 377 432 612 588 103 69 276 162 355 193 225 87 411 137 608
163 119 16 408 18 520 5z m2157 -2417 c-1 -59 -3 -13 -3 102 0 116 2 164 3
108 2 -56 2 -151 0 -210z m-16 -248 c-5 -27 -13 -72 -17 -100 -9 -73 -68 -298
-95 -362 -5 -13 -13 -33 -18 -45 -18 -47 -33 -84 -47 -111 -8 -16 -14 -33 -14
-38 0 -37 -226 -421 -281 -479 -8 -8 -40 -47 -71 -86 -112 -138 -315 -324
-473 -434 -27 -19 -52 -37 -55 -40 -3 -3 -16 -11 -30 -19 -14 -8 -52 -30 -85
-49 -108 -63 -188 -102 -312 -153 -13 -5 -33 -13 -45 -18 -74 -31 -267 -88
-343 -101 -137 -23 -197 -31 -213 -27 -9 3 -3 5 13 6 109 4 443 93 605 161
176 73 460 234 460 260 0 6 4 9 9 5 10 -6 192 140 277 221 301 290 527 664
648 1070 33 112 84 370 88 445 1 28 2 26 6 -11 2 -25 -1 -67 -7 -95z"/>
<path d="M2290 4783 c-69 -4 -210 -28 -315 -54 -515 -127 -951 -421 -1280
-864 -17 -22 -34 -47 -40 -56 -5 -10 -33 -55 -61 -101 -161 -263 -268 -560
-310 -868 -23 -164 -23 -460 -1 -627 26 -191 97 -451 161 -583 14 -30 26 -57
26 -62 0 -6 53 -106 124 -233 92 -164 276 -381 466 -547 71 -62 243 -188 257
-188 4 0 14 -6 22 -14 41 -35 236 -133 363 -182 489 -187 1074 -193 1563 -13
84 30 322 146 372 180 23 16 44 29 48 29 3 0 23 12 43 27 20 15 62 45 92 67
209 152 415 374 562 605 47 74 148 260 148 273 0 5 9 27 21 49 60 119 139 404
164 599 22 163 22 435 1 604 -44 348 -173 686 -375 985 -20 29 -43 63 -51 75
-32 48 -157 193 -211 245 -96 93 -157 148 -229 202 -106 79 -176 129 -184 129
-4 0 -25 12 -49 27 -215 140 -611 270 -891 294 -104 8 -311 9 -436 2z m581
-52 c226 -41 396 -97 596 -198 355 -178 642 -430 860 -755 222 -331 341 -683
375 -1116 22 -282 -41 -710 -138 -931 -13 -29 -24 -57 -24 -61 0 -23 -148
-310 -176 -341 -8 -8 -14 -19 -14 -23 0 -4 -28 -46 -61 -93 -340 -470 -827
-784 -1380 -888 -290 -55 -529 -55 -817 -1 -581 110 -1085 446 -1420 946 -319
477 -443 1055 -347 1625 25 152 77 346 115 431 11 26 20 51 20 55 0 16 140
292 164 324 12 16 26 38 29 49 8 21 20 37 136 181 189 234 387 402 657 558
181 104 452 198 682 236 173 29 169 29 407 26 171 -2 246 -7 336 -24z"/>
<path d="M2628 4590 c-53 -41 -27 -112 46 -125 38 -8 53 -30 35 -51 -15 -18
-35 -18 -69 3 -24 14 -31 14 -45 3 -14 -12 -14 -15 1 -31 10 -11 34 -24 55
-29 61 -17 119 22 119 78 0 24 -54 72 -80 72 -21 0 -44 25 -35 40 9 14 51 13
75 -2 16 -10 23 -10 35 3 14 14 14 17 -3 32 -10 9 -38 20 -63 23 -36 5 -49 2
-71 -16z"/>
<path d="M2825 4483 c-15 -65 -28 -122 -29 -128 0 -5 11 -11 26 -13 23 -3 27
1 30 25 5 44 35 42 44 -2 4 -25 14 -40 30 -47 36 -17 39 -4 15 58 -23 61 -23
63 32 95 10 5 15 14 12 20 -10 16 -40 10 -75 -16 -18 -14 -35 -23 -37 -21 -2
2 3 32 12 66 13 52 14 65 3 71 -28 18 -36 5 -63 -108z"/>
<path d="M2374 4458 c4 -51 8 -93 9 -95 2 -1 12 0 23 3 18 5 20 12 16 60 -5
58 7 84 39 84 12 0 19 7 19 20 0 23 -29 27 -48 8 -9 -9 -12 -9 -12 0 0 7 -12
12 -26 12 l-27 0 7 -92z"/>
<path d="M3052 4538 c-7 -7 -12 -18 -12 -24 0 -15 35 -28 50 -19 16 10 12 42
-6 49 -20 8 -18 8 -32 -6z"/>
<path d="M2189 4511 c-36 -36 -38 -75 -6 -122 29 -44 88 -52 131 -18 25 20 26
23 11 32 -12 6 -25 5 -40 -3 -28 -15 -59 -10 -63 12 -2 13 9 17 57 23 34 4 61
9 61 11 0 3 -6 20 -14 39 -26 62 -89 74 -137 26z m86 -31 c0 -10 -12 -16 -32
-18 -35 -3 -36 -2 -27 23 8 21 59 17 59 -5z"/>
<path d="M3145 4483 c-8 -19 -27 -71 -42 -115 l-27 -80 23 -19 c13 -11 27 -19
31 -19 13 0 21 33 10 40 -8 5 0 37 24 102 20 53 36 100 36 106 0 5 -9 12 -20
15 -16 4 -24 -2 -35 -30z"/>
<path d="M2018 4486 c-9 -8 -24 -12 -37 -9 -33 8 -33 -13 -3 -132 24 -93 31
-110 47 -110 17 0 20 6 17 43 -2 40 -1 42 21 37 15 -4 32 1 51 16 25 20 28 27
23 67 -3 24 -14 56 -24 71 -23 31 -73 40 -95 17z m52 -41 c7 -9 13 -32 14 -53
1 -33 -2 -37 -25 -40 -22 -3 -29 2 -38 29 -19 56 -13 76 25 78 6 1 17 -6 24
-14z"/>
<path d="M3242 4432 c-70 -157 -76 -174 -65 -191 5 -9 18 -18 28 -19 21 -5 39
19 23 30 -8 4 -1 31 24 85 50 108 53 120 30 132 -17 9 -22 4 -40 -37z"/>
<path d="M3007 4388 c-27 -82 -25 -97 9 -98 9 0 64 149 64 174 0 3 -10 6 -23
6 -20 0 -26 -11 -50 -82z"/>
<path d="M1633 4427 c-21 -12 -21 -13 31 -116 28 -58 57 -106 64 -109 7 -2 23
-1 37 2 17 4 22 11 18 26 -3 11 -12 19 -20 18 -10 -2 -30 30 -61 94 -45 92
-48 97 -69 85z"/>
<path d="M1814 4430 c-54 -22 -68 -86 -31 -141 29 -43 64 -56 103 -38 42 20
59 62 45 109 -18 60 -69 90 -117 70z m72 -93 c5 -23 2 -34 -11 -43 -22 -16
-39 -9 -54 22 -16 36 -14 62 6 73 23 13 50 -10 59 -52z"/>
<path d="M3304 4325 c-19 -29 -12 -58 21 -79 25 -17 34 -46 14 -46 -19 0 -49
21 -49 34 0 9 -7 12 -20 9 -27 -7 -25 -19 9 -54 32 -31 86 -40 109 -17 23 23
14 65 -20 92 -26 20 -30 28 -21 37 10 10 18 8 37 -10 19 -18 28 -21 42 -13 16
9 15 13 -13 41 -40 39 -85 42 -109 6z"/>
<path d="M1509 4271 c-34 -35 -36 -54 -9 -98 27 -46 63 -66 99 -58 31 7 71 47
71 70 0 24 -27 24 -39 -1 -8 -17 -19 -24 -40 -24 -49 0 -45 18 9 45 57 29 62
44 24 74 -38 30 -80 27 -115 -8z m81 -24 c0 -11 -39 -37 -55 -37 -8 0 -6 36 2
43 12 12 53 7 53 -6z"/>
<path d="M3547 4189 c-81 -107 -83 -111 -59 -126 17 -10 24 -4 61 49 24 33 44
58 46 56 2 -2 0 -42 -5 -88 -8 -86 -3 -110 25 -110 7 0 39 35 71 78 31 42 63
84 71 93 11 13 10 18 -5 32 -17 16 -21 13 -66 -48 -26 -36 -49 -65 -50 -65 -2
0 0 19 5 43 14 75 11 142 -9 160 -16 15 -22 10 -85 -74z"/>
<path d="M1404 4207 c-2 -7 5 -39 16 -71 11 -33 20 -61 20 -62 0 -2 -24 14
-52 36 -60 45 -58 45 -83 26 -18 -13 -18 -14 4 -26 13 -6 46 -29 74 -51 57
-43 65 -45 91 -26 18 13 17 17 -8 100 -18 59 -31 87 -42 87 -8 0 -17 -6 -20
-13z"/>
<path d="M1207 4052 c-35 -36 -35 -80 -2 -120 30 -36 68 -47 107 -31 27 11 58
53 58 79 0 18 -37 11 -43 -9 -6 -25 -39 -42 -58 -31 -11 7 -5 18 29 53 l44 44
-30 22 c-41 29 -73 26 -105 -7z m69 -24 c7 -11 -29 -48 -47 -48 -14 0 -11 48
4 53 21 9 36 7 43 -5z"/>
<path d="M3738 4030 c-28 -17 -61 -78 -54 -104 14 -58 106 -107 106 -56 0 13
-7 20 -18 20 -26 0 -54 33 -46 54 8 22 11 21 56 -20 44 -40 57 -40 76 0 36 72
-49 147 -120 106z m82 -44 c7 -10 8 -21 3 -31 -9 -15 -12 -14 -33 3 -13 11
-20 24 -16 30 10 16 31 15 46 -2z"/>
<path d="M1005 3931 c-73 -68 -73 -62 -8 -124 32 -30 73 -67 90 -82 l33 -26
40 43 c62 66 65 110 12 166 -56 61 -118 69 -167 23z m108 -36 c44 -31 56 -65
33 -100 -9 -14 -21 -25 -27 -25 -6 0 -34 23 -62 50 l-52 50 28 25 c35 31 34
31 80 0z"/>
<path d="M3965 3930 c-4 -6 -19 -9 -33 -8 -20 2 -27 -2 -27 -14 0 -10 -19 -37
-43 -61 -47 -48 -49 -57 -26 -93 13 -19 19 -22 30 -13 8 7 12 19 9 28 -8 25
60 88 77 73 8 -6 19 -7 28 -2 12 7 12 11 0 25 -12 15 -12 19 4 31 11 7 16 20
13 29 -7 17 -23 20 -32 5z"/>
<path d="M4005 3816 c-6 -8 -32 -42 -58 -76 -45 -58 -47 -63 -32 -80 16 -18
18 -18 72 1 62 21 61 26 6 -49 -22 -29 -22 -31 -5 -50 17 -20 17 -20 99 11 79
31 101 51 68 63 -9 4 -37 -3 -63 -14 -26 -11 -49 -19 -51 -16 -3 2 7 17 21 32
38 41 48 63 35 83 -10 16 -14 16 -65 -2 -70 -24 -70 -24 -41 9 44 48 51 61 44
82 -7 24 -16 25 -30 6z"/>
<path d="M1860 3770 c0 -6 45 -10 115 -10 70 0 115 4 115 10 0 6 -45 10 -115
10 -70 0 -115 -4 -115 -10z"/>
<path d="M2140 3770 c0 -6 62 -10 168 -10 111 0 162 4 152 10 -20 13 -320 13
-320 0z"/>
<path d="M2560 3770 c0 -6 40 -10 100 -10 60 0 100 4 100 10 0 6 -40 10 -100
10 -60 0 -100 -4 -100 -10z"/>
<path d="M2920 3770 c0 -6 40 -10 100 -10 60 0 100 4 100 10 0 6 -40 10 -100
10 -60 0 -100 -4 -100 -10z"/>
<path d="M821 3706 c-10 -12 -5 -28 23 -80 l35 -65 -77 2 c-110 3 -108 -14 13
-92 53 -33 100 -61 106 -61 18 0 9 30 -13 43 -67 41 -128 81 -128 83 0 1 35 0
77 -3 l77 -6 -37 66 c-20 37 -33 67 -29 67 4 0 38 -21 76 -45 75 -49 86 -53
86 -31 0 11 -107 86 -186 129 -7 4 -17 0 -23 -7z"/>
<path d="M1860 3705 c0 -12 19 -15 115 -15 96 0 115 3 115 15 0 12 -19 15
-115 15 -96 0 -115 -3 -115 -15z"/>
<path d="M2140 3705 c0 -13 27 -15 191 -15 148 0 190 3 187 13 -4 9 -53 13
-191 15 -162 2 -187 0 -187 -13z"/>
<path d="M2560 3705 c0 -12 19 -15 110 -15 91 0 110 3 110 15 0 12 -19 15
-110 15 -91 0 -110 -3 -110 -15z"/>
<path d="M2900 3705 c0 -12 18 -15 104 -15 83 0 105 3 110 15 5 13 -11 15
-104 15 -91 0 -110 -3 -110 -15z"/>
<path d="M1930 3637 c0 -10 14 -14 45 -13 30 0 45 5 45 13 0 9 -15 13 -45 13
-31 0 -45 -4 -45 -13z"/>
<path d="M2210 3635 c0 -12 10 -15 47 -12 66 4 70 27 4 27 -39 0 -51 -4 -51
-15z"/>
<path d="M2420 3635 c0 -12 11 -15 50 -13 72 4 76 28 5 28 -43 0 -55 -3 -55
-15z"/>
<path d="M2632 3638 c3 -8 32 -13 92 -14 59 -1 86 2 83 10 -2 7 -39 12 -91 14
-67 2 -87 0 -84 -10z"/>
<path d="M2877 3643 c-18 -17 0 -21 80 -20 59 1 88 6 90 15 4 9 -17 12 -79 12
-47 0 -88 -3 -91 -7z"/>
<path d="M2214 3581 c-16 -16 12 -21 130 -21 95 0 137 4 144 13 8 9 -19 12
-130 12 -77 0 -142 -2 -144 -4z"/>
<path d="M2630 3573 c0 -9 15 -13 50 -13 33 0 50 4 50 13 0 8 -17 12 -50 13
-35 0 -50 -3 -50 -13z"/>
<path d="M2740 3573 c0 -9 16 -13 46 -13 59 0 55 22 -4 24 -28 1 -42 -3 -42
-11z"/>
<path d="M2850 3573 c0 -16 76 -18 85 -3 3 6 3 10 -2 11 -58 5 -83 2 -83 -8z"/>
<path d="M2950 3573 c0 -9 16 -13 52 -13 42 0 50 3 40 13 -18 17 -92 17 -92 0z"/>
<path d="M1930 3570 c0 -5 20 -10 45 -10 25 0 45 5 45 10 0 6 -20 10 -45 10
-25 0 -45 -4 -45 -10z"/>
<path d="M4120 3539 c-29 -10 -60 -56 -60 -87 0 -31 48 -82 77 -82 55 0 113
49 113 97 0 65 -60 98 -130 72z m80 -44 c18 -21 4 -49 -35 -68 -31 -15 -36
-15 -50 -1 -23 23 -18 40 18 63 38 25 51 26 67 6z"/>
<path d="M1930 3505 c0 -11 12 -15 45 -15 33 0 45 4 45 15 0 11 -12 15 -45 15
-33 0 -45 -4 -45 -15z"/>
<path d="M2210 3505 c0 -13 23 -15 148 -15 131 1 145 2 128 15 -29 22 -276 22
-276 0z"/>
<path d="M2630 3505 c0 -11 12 -15 50 -15 40 0 48 3 44 15 -4 10 -20 15 -50
15 -32 0 -44 -4 -44 -15z"/>
<path d="M2766 3505 c5 -11 23 -15 75 -15 55 0 69 3 69 15 0 12 -15 15 -75 15
-62 0 -73 -2 -69 -15z"/>
<path d="M2950 3506 c0 -12 12 -16 51 -16 66 0 62 24 -4 28 -37 2 -47 0 -47
-12z"/>
<path d="M1930 3435 c0 -13 9 -16 48 -13 26 2 47 8 47 13 0 6 -21 11 -47 13
-39 3 -48 0 -48 -13z"/>
<path d="M2210 3436 c0 -12 12 -16 51 -16 66 0 62 24 -4 28 -37 2 -47 0 -47
-12z"/>
<path d="M2420 3436 c0 -13 12 -16 56 -16 73 0 70 24 -4 28 -42 2 -52 0 -52
-12z"/>
<path d="M2630 3435 c0 -11 12 -15 50 -15 38 0 50 4 50 15 0 11 -12 15 -50 15
-38 0 -50 -4 -50 -15z"/>
<path d="M2790 3435 c0 -11 12 -15 50 -15 38 0 50 4 50 15 0 11 -12 15 -50 15
-38 0 -50 -4 -50 -15z"/>
<path d="M2950 3435 c0 -11 12 -15 50 -15 38 0 50 4 50 15 0 11 -12 15 -50 15
-38 0 -50 -4 -50 -15z"/>
<path d="M674 3432 c-7 -4 -26 -33 -43 -64 l-31 -58 107 -50 c58 -27 110 -50
115 -50 9 0 58 105 58 125 0 7 -10 24 -21 39 -17 21 -29 27 -53 25 -22 -2 -40
4 -56 19 -24 22 -55 28 -76 14z m66 -57 c0 -12 -18 -61 -27 -74 -5 -7 -63 21
-63 31 0 17 29 66 42 71 18 6 48 -11 48 -28z m90 -23 c21 -17 21 -18 5 -60
-10 -23 -19 -42 -21 -42 -2 0 -19 7 -38 16 -31 15 -34 19 -24 43 10 28 37 61
48 61 4 0 18 -8 30 -18z"/>
<path d="M4212 3349 c-76 -35 -82 -40 -72 -58 11 -22 25 -20 92 15 31 16 33
16 49 -5 9 -11 24 -21 33 -21 26 0 30 22 8 41 -12 9 -18 19 -13 21 6 2 5 12
-2 24 -12 22 -12 22 -95 -17z"/>
<path d="M1860 3365 c0 -12 19 -15 115 -15 96 0 115 3 115 15 0 12 -19 15
-115 15 -96 0 -115 -3 -115 -15z"/>
<path d="M2140 3365 c0 -13 27 -15 184 -15 154 0 185 2 190 15 5 13 -20 15
-184 15 -162 0 -190 -2 -190 -15z"/>
<path d="M2560 3365 c0 -12 16 -15 85 -15 69 0 85 3 85 15 0 12 -16 15 -85 15
-69 0 -85 -3 -85 -15z"/>
<path d="M2812 3368 c7 -19 45 -21 51 -4 5 12 -1 16 -24 16 -20 0 -29 -4 -27
-12z"/>
<path d="M2950 3365 c0 -12 16 -15 85 -15 69 0 85 3 85 15 0 12 -16 15 -85 15
-69 0 -85 -3 -85 -15z"/>
<path d="M1860 3300 c0 -6 45 -10 115 -10 70 0 115 4 115 10 0 6 -45 10 -115
10 -70 0 -115 -4 -115 -10z"/>
<path d="M2140 3300 c0 -13 290 -13 310 0 10 6 -39 10 -147 10 -102 0 -163 -4
-163 -10z"/>
<path d="M2560 3300 c0 -6 35 -10 85 -10 50 0 85 4 85 10 0 6 -35 10 -85 10
-50 0 -85 -4 -85 -10z"/>
<path d="M2950 3300 c0 -6 35 -10 85 -10 50 0 85 4 85 10 0 6 -35 10 -85 10
-50 0 -85 -4 -85 -10z"/>
<path d="M4375 3261 c-22 -10 -71 -28 -110 -41 -38 -12 -72 -24 -73 -26 -2 -1
-1 -12 3 -23 5 -18 12 -20 46 -15 47 8 49 0 10 -41 -27 -27 -28 -33 -17 -59
l12 -29 39 52 c21 28 43 51 48 51 4 0 22 -7 38 -16 35 -17 44 -14 35 13 -3 11
-28 28 -54 39 l-47 20 72 22 c66 21 71 25 64 45 -11 28 -19 30 -66 8z"/>
<path d="M561 3198 c-13 -31 -15 -45 -7 -50 6 -4 16 -1 22 7 10 14 22 12 98
-16 74 -27 86 -34 81 -50 -4 -13 -2 -19 8 -19 19 0 50 87 36 96 -6 3 -16 -1
-22 -9 -11 -14 -22 -12 -94 15 -64 23 -83 34 -83 49 0 33 -20 21 -39 -23z"/>
<path d="M1210 2650 c0 -99 3 -120 15 -120 11 0 15 19 17 93 l3 92 30 -90 c36
-108 55 -119 78 -48 9 27 25 69 36 93 l20 45 0 -92 c1 -76 4 -93 16 -93 23 0
22 228 -1 237 -23 9 -31 -5 -65 -102 -16 -49 -32 -91 -34 -93 -2 -2 -18 42
-36 97 -29 90 -35 101 -56 101 -23 0 -23 -1 -23 -120z"/>
<path d="M1830 2650 c0 -100 3 -120 15 -120 12 0 15 13 15 59 0 41 5 65 16 75
38 39 64 10 64 -71 0 -49 3 -63 15 -63 21 0 22 142 0 160 -17 14 -52 17 -77 6
-16 -7 -18 -2 -18 33 0 30 -4 41 -15 41 -12 0 -15 -20 -15 -120z"/>
<path d="M2020 2750 c0 -11 5 -20 10 -20 6 0 10 9 10 20 0 11 -4 20 -10 20 -5
0 -10 -9 -10 -20z"/>
<path d="M2560 2650 l0 -120 75 0 c60 0 75 3 75 15 0 12 -13 15 -60 15 l-60 0
0 105 c0 87 -3 105 -15 105 -12 0 -15 -20 -15 -120z"/>
<path d="M3410 2750 c0 -11 7 -20 15 -20 8 0 15 9 15 20 0 11 -7 20 -15 20 -8
0 -15 -9 -15 -20z"/>
<path d="M1513 2695 c-18 -8 -33 -21 -33 -30 0 -19 17 -19 36 0 17 17 42 19
63 6 24 -15 4 -38 -39 -44 -49 -6 -70 -22 -70 -52 0 -35 21 -45 91 -43 l64 2
-5 73 c-3 39 -9 76 -15 82 -18 18 -60 21 -92 6z m77 -104 c0 -26 -24 -43 -57
-39 -40 4 -39 40 2 49 50 11 55 10 55 -10z"/>
<path d="M1703 2700 c-30 -12 -43 -41 -43 -93 0 -56 22 -77 79 -77 35 0 43 4
53 25 15 33 0 46 -19 18 -17 -25 -52 -30 -71 -11 -7 7 -12 31 -12 55 0 32 5
45 20 53 22 12 60 5 60 -11 0 -5 7 -9 15 -9 18 0 19 9 2 32 -17 21 -56 30 -84
18z"/>
<path d="M2150 2700 c-8 -5 -25 -7 -37 -3 -23 5 -23 3 -23 -81 0 -70 3 -86 15
-86 12 0 15 13 15 59 0 41 5 65 16 75 38 39 64 10 64 -71 0 -49 3 -63 15 -63
12 0 15 14 15 70 0 57 -4 74 -20 90 -22 22 -37 25 -60 10z"/>
<path d="M2314 2699 c-45 -23 -60 -113 -24 -149 26 -26 90 -27 113 -2 10 10
17 22 17 25 0 13 -27 7 -40 -8 -18 -21 -57 -19 -70 4 -18 35 -12 42 38 40 69
-2 72 -1 72 25 0 50 -61 87 -106 65z m64 -31 c25 -25 13 -38 -33 -38 -33 0
-45 4 -45 15 0 29 56 45 78 23z"/>
<path d="M2779 2695 c-50 -27 -61 -104 -22 -147 22 -25 94 -24 116 0 10 10 17
22 17 25 0 13 -27 7 -40 -8 -18 -21 -57 -19 -70 4 -18 34 -11 38 50 36 59 -2
60 -2 60 24 -1 30 -16 53 -47 69 -27 15 -32 15 -64 -3z m71 -34 c15 -30 14
-31 -35 -31 -30 0 -45 4 -45 13 0 37 62 51 80 18z"/>
<path d="M2958 2695 c-16 -9 -28 -22 -28 -30 0 -20 26 -19 34 0 7 19 50 19 66
0 17 -21 6 -32 -40 -38 -49 -6 -70 -22 -70 -52 0 -35 20 -44 91 -43 l64 1 -5
73 c-3 40 -10 78 -15 83 -19 19 -69 22 -97 6z m82 -98 c0 -28 -26 -49 -55 -45
-42 4 -42 40 0 49 48 10 55 10 55 -4z"/>
<path d="M3155 2693 c-8 -8 -15 -10 -15 -4 0 6 -7 11 -15 11 -12 0 -15 -16
-15 -85 0 -69 3 -85 15 -85 11 0 15 12 15 44 0 59 15 96 39 96 10 0 21 6 24
14 8 20 -30 27 -48 9z"/>
<path d="M3272 2694 c-12 -8 -22 -10 -22 -5 0 6 -7 11 -15 11 -12 0 -15 -16
-15 -85 0 -69 3 -85 15 -85 11 0 15 12 15 48 0 54 18 95 43 100 34 7 47 -17
47 -84 0 -36 4 -64 10 -64 6 0 10 31 10 74 0 66 -3 77 -22 90 -12 9 -27 16
-33 16 -6 0 -21 -7 -33 -16z"/>
<path d="M3538 2696 c-16 -8 -28 -11 -28 -5 0 5 -7 9 -15 9 -12 0 -15 -16 -15
-85 0 -69 3 -85 15 -85 11 0 15 13 15 53 0 58 20 97 50 97 27 0 34 -17 35 -84
0 -37 5 -61 13 -64 9 -3 12 17 12 72 0 66 -3 77 -22 90 -27 19 -26 19 -60 2z"/>
<path d="M3705 2699 c-33 -19 -45 -41 -45 -84 0 -59 30 -89 81 -82 34 4 39 2
39 -14 0 -22 -41 -45 -62 -35 -7 3 -21 11 -30 18 -27 19 -36 -2 -9 -23 31 -25
85 -25 111 1 17 17 20 33 20 120 0 97 -1 100 -22 99 -13 0 -32 2 -43 5 -11 3
-29 1 -40 -5z m56 -29 c14 -8 19 -21 19 -56 0 -38 -4 -46 -25 -56 -21 -9 -28
-8 -45 7 -24 22 -27 77 -4 99 18 19 28 20 55 6z"/>
<path d="M2020 2615 c0 -50 4 -85 10 -85 6 0 10 35 10 85 0 50 -4 85 -10 85
-6 0 -10 -35 -10 -85z"/>
<path d="M3410 2615 c0 -69 3 -85 15 -85 12 0 15 16 15 85 0 69 -3 85 -15 85
-12 0 -15 -16 -15 -85z"/>
<path d="M1902 2368 c6 -18 28 -21 28 -4 0 9 -7 16 -16 16 -9 0 -14 -5 -12
-12z"/>
<path d="M2072 2265 c3 -121 21 -160 26 -58 4 67 15 85 51 81 25 -3 26 -7 31
-71 7 -90 24 -91 28 -1 2 56 -1 75 -13 88 -19 18 -48 21 -76 6 -17 -10 -19 -7
-19 30 0 29 -4 40 -15 40 -13 0 -15 -17 -13 -115z"/>
<path d="M2362 2265 c3 -116 20 -164 26 -72 l3 47 50 0 c40 0 55 5 74 25 30
29 32 68 5 95 -16 16 -33 20 -90 20 l-71 0 3 -115z m136 73 c34 -34 1 -68 -67
-68 l-41 0 0 40 0 40 48 0 c26 0 53 -5 60 -12z"/>
<path d="M2830 2265 c0 -96 3 -115 15 -115 12 0 15 13 15 59 0 64 13 85 52 79
21 -3 23 -9 28 -71 7 -90 24 -91 28 -1 2 56 -1 75 -13 88 -19 18 -48 21 -76 6
-17 -10 -19 -7 -19 30 0 29 -4 40 -15 40 -12 0 -15 -19 -15 -115z"/>
<path d="M1987 2363 c-4 -3 -7 -15 -7 -25 0 -10 -4 -18 -10 -18 -5 0 -10 -7
-10 -15 0 -8 5 -15 10 -15 6 0 10 -26 10 -59 0 -61 15 -91 46 -91 18 0 18 17
-1 36 -9 10 -15 34 -15 65 0 37 4 49 15 49 8 0 15 7 15 15 0 8 -7 15 -16 15
-12 0 -15 6 -10 25 6 24 -10 35 -27 18z"/>
<path d="M2747 2363 c-4 -3 -7 -15 -7 -25 0 -10 -4 -18 -10 -18 -5 0 -10 -7
-10 -15 0 -8 5 -15 10 -15 6 0 10 -26 10 -59 0 -61 15 -91 46 -91 17 0 19 27
2 32 -6 2 -13 30 -16 61 -4 48 -2 57 12 57 9 0 16 7 16 15 0 8 -6 15 -14 15
-10 0 -13 8 -10 25 4 24 -13 35 -29 18z"/>
<path d="M1650 2313 c0 -5 11 -42 24 -83 31 -98 52 -102 76 -15 l17 60 12 -40
c6 -22 11 -47 11 -56 0 -21 22 -40 36 -31 14 10 59 160 51 169 -12 11 -24 -9
-42 -72 l-18 -60 -17 65 c-22 90 -41 91 -65 3 l-19 -68 -19 68 c-12 40 -25 67
-33 67 -8 0 -14 -3 -14 -7z"/>
<path d="M1909 2318 c-1 -2 -3 -40 -4 -85 -2 -66 0 -83 11 -83 11 0 14 19 14
85 0 50 -4 85 -10 85 -5 0 -11 -1 -11 -2z"/>
<path d="M2565 2304 c27 -66 56 -158 53 -172 -2 -9 -14 -22 -28 -29 -22 -11
-23 -13 -6 -19 10 -4 26 -3 35 3 16 10 89 184 90 216 2 47 -39 -14 -54 -82 -9
-41 -19 -32 -43 39 -12 36 -25 56 -37 59 -14 2 -16 -1 -10 -15z"/>
<path d="M3032 2297 c-32 -34 -30 -100 3 -132 64 -65 150 2 125 96 -17 62 -86
81 -128 36z m99 -28 c22 -42 -8 -109 -50 -109 -22 0 -41 33 -41 74 0 51 4 56
46 56 24 0 37 -6 45 -21z"/>
<path d="M3202 2235 c3 -96 21 -116 26 -28 4 67 15 85 51 81 25 -3 26 -7 31
-72 3 -43 10 -71 18 -74 20 -6 17 142 -4 162 -18 18 -47 21 -74 6 -13 -7 -21
-7 -25 0 -18 29 -26 3 -23 -75z"/>
<path d="M1900 1870 c0 -47 4 -80 10 -80 6 0 10 16 10 35 0 33 2 35 33 35 43
0 60 12 60 45 0 34 -17 45 -70 45 l-43 0 0 -80z m84 54 c9 -8 16 -17 16 -19 0
-2 -7 -11 -16 -19 -20 -20 -64 -21 -65 -1 -1 8 -2 21 -3 28 -1 6 -1 15 1 20 7
13 51 7 67 -9z"/>
<path d="M2730 1924 c0 -19 -4 -25 -15 -20 -8 3 -26 1 -40 -4 -21 -8 -25 -16
-25 -49 0 -47 15 -61 63 -59 l37 1 0 79 c0 45 -4 78 -10 78 -5 0 -10 -12 -10
-26z m-12 -36 c23 -23 9 -88 -19 -88 -16 0 -39 33 -39 55 0 13 8 29 18 34 22
13 26 13 40 -1z"/>
<path d="M2850 1871 l0 -81 44 0 c52 0 81 22 71 54 -4 12 -8 39 -8 61 l-2 40
-52 3 -53 3 0 -80z m85 55 c16 -12 17 -16 6 -30 -7 -9 -26 -16 -42 -16 -26 0
-29 4 -29 30 0 25 4 30 23 30 13 0 32 -6 42 -14z m3 -65 c8 -5 12 -17 10 -27
-2 -14 -13 -20 -41 -22 -35 -3 -37 -2 -37 27 0 27 3 31 28 31 15 0 33 -4 40
-9z"/>
<path d="M2063 1900 c-19 -8 -23 -17 -23 -50 0 -33 4 -42 25 -52 49 -22 84 11
75 72 -4 29 -42 44 -77 30z m49 -17 c10 -9 18 -23 18 -31 0 -16 -28 -52 -41
-52 -14 0 -39 31 -39 50 0 18 24 50 37 50 4 0 15 -7 25 -17z"/>
<path d="M2358 1899 c-21 -12 -25 -78 -6 -97 23 -23 78 -8 78 22 0 5 -9 1 -19
-8 -15 -14 -24 -15 -40 -6 -38 20 -26 40 24 40 38 0 43 3 38 18 -7 20 -32 42
-47 42 -6 0 -19 -5 -28 -11z m52 -19 c10 -18 8 -20 -25 -20 -37 0 -43 8 -23
28 18 18 36 15 48 -8z"/>
<path d="M2490 1901 c-8 -6 -18 -7 -22 -5 -4 3 -7 -21 -7 -53 1 -54 2 -55 8
-18 8 48 17 65 37 65 8 0 14 5 14 10 0 12 -10 13 -30 1z"/>
<path d="M2546 1894 c-18 -18 -21 -56 -6 -85 12 -21 50 -25 68 -7 20 20 13 32
-7 14 -15 -14 -24 -15 -40 -6 -38 20 -26 40 24 40 49 0 55 10 25 40 -24 24
-43 25 -64 4z m52 -6 c20 -20 14 -28 -23 -28 -38 0 -46 13 -17 29 22 13 26 13
40 -1z"/>
<path d="M2179 1848 c19 -55 34 -65 39 -26 2 16 0 19 -6 10 -6 -9 -12 -1 -21
28 -6 22 -16 40 -21 40 -5 0 -1 -24 9 -52z"/>
<path d="M2227 1893 c-4 -3 -7 -16 -6 -27 0 -20 1 -20 8 -2 9 23 16 14 26 -31
3 -18 10 -35 15 -38 10 -6 45 93 36 102 -6 6 -10 -4 -21 -52 l-7 -30 -15 43
c-14 41 -23 49 -36 35z"/>
<path d="M3006 1863 c27 -62 29 -85 9 -100 -16 -11 -16 -13 -3 -13 9 0 23 16
31 38 9 20 23 54 31 75 9 20 12 37 8 37 -5 0 -17 -19 -26 -42 l-18 -43 -15 43
c-8 23 -19 42 -24 42 -5 0 -2 -17 7 -37z"/>
<path d="M2480 1643 c-8 -3 -23 -12 -32 -21 -16 -14 -18 -13 -18 1 0 12 -9 17
-30 17 l-30 0 0 -130 0 -130 30 0 30 0 0 85 c0 72 3 88 20 105 11 11 27 20 35
20 8 0 15 6 15 14 0 8 3 21 6 30 6 16 0 19 -26 9z"/>
<path d="M2574 1636 c-34 -15 -44 -33 -44 -75 0 -34 20 -53 83 -76 33 -13 47
-23 45 -34 -4 -23 -46 -26 -69 -5 -16 14 -24 15 -44 6 -30 -14 -31 -23 -5 -47
14 -12 41 -20 80 -23 53 -4 61 -2 84 21 47 47 27 111 -38 127 -53 13 -71 24
-71 41 0 19 33 24 60 9 17 -9 28 -9 43 -1 28 15 19 34 -24 54 -41 20 -59 21
-100 3z"/>
<path d="M2844 1634 c-80 -27 -111 -99 -75 -178 15 -35 29 -50 55 -61 46 -19
90 -19 132 1 39 18 43 34 15 51 -16 10 -25 9 -48 -2 -15 -8 -37 -12 -48 -9
-23 7 -55 33 -55 46 0 4 42 8 94 8 52 0 97 4 100 8 10 17 -14 79 -42 105 -40
38 -80 48 -128 31z m69 -55 c22 -12 37 -28 37 -41 0 -5 -29 -8 -65 -8 -36 0
-65 4 -65 9 0 11 49 51 62 51 5 0 19 -5 31 -11z"/>
<path d="M3160 1643 c-8 -3 -23 -12 -32 -21 -16 -14 -18 -13 -18 1 0 13 -9 17
-34 17 l-34 0 -1 -130 0 -130 34 0 35 0 0 85 c0 72 3 88 20 105 11 11 27 20
35 20 10 0 15 10 15 30 0 17 -1 30 -2 29 -2 0 -10 -3 -18 -6z"/>
<path d="M1578 1610 c-93 -77 -36 -230 85 -230 40 0 85 19 106 44 10 12 8 17
-16 29 -24 13 -31 13 -48 1 -63 -46 -150 35 -102 97 29 38 90 44 111 10 4 -6
17 -4 36 7 32 19 27 33 -21 58 -48 25 -109 18 -151 -16z"/>
<path d="M1874 1630 c-11 -4 -33 -22 -47 -40 -69 -81 -5 -210 103 -210 71 0
140 65 140 131 0 36 -32 90 -64 110 -32 20 -95 24 -132 9z m117 -78 c53 -67
-46 -150 -109 -92 -38 36 -27 95 21 115 38 16 62 9 88 -23z"/>
<path d="M2100 1535 c0 -102 1 -107 26 -130 32 -30 97 -34 126 -8 17 15 18 15
18 0 0 -13 9 -17 35 -17 l35 0 0 130 0 130 -35 0 -34 0 -3 -92 c-3 -88 -4 -93
-29 -107 -24 -13 -29 -13 -53 2 -25 17 -26 21 -26 107 l0 90 -30 0 -30 0 0
-105z"/>
<path d="M3245 1618 c-30 -24 -55 -74 -55 -112 0 -92 112 -158 185 -110 23 15
25 15 25 0 0 -11 9 -16 30 -16 l30 0 0 130 0 130 -30 0 c-20 0 -30 -5 -30 -16
0 -14 -2 -14 -22 0 -33 23 -100 20 -133 -6z m132 -60 c47 -44 11 -118 -58
-118 -30 0 -69 39 -69 70 0 10 9 29 21 44 26 33 73 35 106 4z"/>
<path d="M1324 942 c-17 -20 -40 -53 -53 -72 l-23 -35 32 35 c50 55 83 100 78
105 -3 3 -18 -12 -34 -33z"/>
<path d="M3626 972 c-8 -14 82 -132 100 -132 11 0 6 12 -16 43 -56 77 -77 99
-84 89z"/>
<path d="M1348 871 l-47 -70 44 -25 c24 -14 50 -26 57 -26 21 0 38 21 38 47 0
12 9 27 20 33 34 18 25 54 -20 84 -22 14 -41 26 -42 26 -2 0 -24 -31 -50 -69z
m96 28 c42 -33 27 -80 -20 -62 -14 5 -14 3 -3 -14 14 -23 7 -51 -16 -59 -14
-6 -85 31 -85 44 0 4 9 18 19 31 16 21 21 22 42 11 24 -13 24 -13 5 9 -18 20
-18 22 -1 41 23 25 26 25 59 -1z"/>
<path d="M3566 869 c-14 -11 -26 -27 -26 -35 0 -22 16 -17 34 11 9 14 21 25
26 25 17 0 11 -26 -12 -55 -16 -21 -19 -31 -11 -44 15 -23 39 -25 60 -3 10 10
26 22 36 25 20 7 23 27 5 27 -7 0 -23 16 -36 35 -26 40 -39 43 -76 14z m74
-59 c0 -23 -35 -46 -45 -30 -9 14 23 62 35 55 6 -4 10 -15 10 -25z"/>
<path d="M3456 851 c-4 -5 -2 -12 3 -15 5 -4 12 -2 15 3 4 5 2 12 -3 15 -5 4
-12 2 -15 -3z"/>
<path d="M1503 803 c-31 -52 -55 -103 -49 -103 3 0 19 26 37 58 18 31 39 62
47 68 10 7 11 13 4 18 -6 3 -23 -15 -39 -41z"/>
<path d="M3478 814 c-8 -7 52 -104 63 -104 14 0 11 8 -18 61 -25 48 -33 55
-45 43z"/>
<path d="M1532 780 c0 -19 2 -27 5 -17 2 9 2 25 0 35 -3 9 -5 1 -5 -18z"/>
<path d="M3387 803 c-4 -3 -2 -13 5 -20 9 -11 9 -17 -3 -24 -13 -8 -12 -10 11
-13 5 0 21 -18 36 -39 25 -37 53 -46 62 -19 2 7 -2 10 -12 6 -10 -4 -21 7 -36
35 -11 23 -16 41 -10 41 5 0 10 5 10 11 0 6 -7 8 -15 5 -9 -3 -18 1 -21 9 -7
16 -17 19 -27 8z"/>
<path d="M1620 755 c-13 -14 -39 -34 -57 -45 l-33 -19 -1 27 c-1 24 -3 22 -8
-8 -4 -19 -6 -38 -4 -42 2 -4 31 15 64 42 33 28 62 50 65 50 3 0 -11 -29 -31
-65 -20 -36 -34 -65 -31 -65 6 0 86 133 86 143 0 16 -28 5 -50 -18z"/>
<path d="M3306 715 c-8 -8 -21 -15 -30 -15 -12 0 -11 -9 9 -52 14 -29 29 -54
35 -56 14 -5 12 12 -6 52 -35 73 17 93 55 21 28 -52 48 -51 26 2 -27 65 -56
80 -89 48z"/>
<path d="M1746 655 c-14 -36 -26 -71 -26 -78 0 -15 55 -37 92 -37 17 0 34 10
47 26 54 69 32 129 -55 148 -31 7 -32 6 -58 -59z m100 14 c12 -13 15 -27 10
-53 -10 -50 -52 -71 -89 -43 -16 11 -15 16 4 68 23 61 39 67 75 28z"/>
<path d="M1940 656 c0 -9 5 -16 10 -16 6 0 10 4 10 9 0 6 -4 13 -10 16 -5 3
-10 -1 -10 -9z"/>
<path d="M3060 666 c0 -3 5 -17 10 -31 10 -26 9 -27 -15 -21 -29 7 -65 -22
-65 -53 0 -48 81 -96 96 -57 3 8 13 12 26 8 15 -4 19 -1 15 9 -3 8 -13 44 -23
82 -11 38 -24 67 -31 67 -7 0 -13 -2 -13 -4z m19 -80 c7 -8 11 -27 9 -43 -6
-52 -68 -37 -68 17 0 14 3 30 7 33 11 12 40 8 52 -7z"/>
<path d="M3172 663 c-41 -16 -30 -108 14 -119 29 -7 74 19 74 43 0 14 -4 13
-23 -5 -27 -25 -38 -27 -55 -10 -10 10 -3 17 35 33 l47 21 -22 22 c-21 21 -43
26 -70 15z m48 -26 c0 -11 -39 -37 -55 -37 -10 0 -5 26 7 38 16 16 48 15 48
-1z"/>
<path d="M1911 576 c-6 -24 -14 -51 -17 -61 -5 -12 -3 -16 6 -13 12 4 22 26
44 96 5 16 3 22 -7 22 -9 0 -19 -17 -26 -44z"/>
<path d="M2150 600 c0 -5 5 -10 10 -10 6 0 10 5 10 10 0 6 -4 10 -10 10 -5 0
-10 -4 -10 -10z"/>
<path d="M1982 578 c-17 -17 -15 -83 3 -98 8 -7 26 -10 41 -7 19 3 24 1 20
-10 -3 -8 -6 -17 -6 -19 0 -11 -46 -2 -62 13 -16 15 -18 15 -18 0 0 -20 30
-37 64 -37 32 0 55 40 63 111 5 43 4 49 -11 43 -9 -3 -16 -1 -16 5 0 15 -63
14 -78 -1z m66 -10 c31 -31 -2 -97 -39 -78 -23 13 -25 47 -2 72 19 21 25 22
41 6z"/>
<path d="M2220 575 c0 -8 -7 -15 -15 -15 -8 0 -15 -4 -15 -10 0 -5 5 -10 10
-10 6 0 9 -21 8 -52 -3 -45 0 -53 17 -56 16 -4 17 -2 8 10 -16 19 -5 88 13 88
8 0 14 5 14 10 0 6 -4 10 -10 10 -5 0 -10 9 -10 20 0 11 -4 20 -10 20 -5 0
-10 -7 -10 -15z"/>
<path d="M2614 583 c-32 -23 -43 -83 -23 -127 24 -51 103 -55 129 -6 16 30 2
39 -18 14 -27 -34 -50 -37 -78 -9 -58 58 7 153 68 98 22 -19 37 -9 22 15 -12
18 -80 28 -100 15z"/>
<path d="M2440 548 c0 -18 -3 -57 -6 -85 -6 -45 -4 -53 10 -53 14 0 16 13 16
85 0 50 -4 85 -10 85 -5 0 -10 -15 -10 -32z"/>
<path d="M2866 558 c-32 -46 -6 -98 49 -98 24 0 38 6 45 20 8 14 8 20 0 20 -6
0 -13 -7 -16 -15 -7 -18 -35 -20 -52 -3 -20 20 -14 26 28 33 48 8 54 15 34 43
-20 30 -68 29 -88 0z m71 -14 c2 -6 -9 -14 -24 -17 -33 -6 -38 -3 -29 18 7 18
47 17 53 -1z"/>
<path d="M2136 553 c-13 -47 -17 -101 -7 -107 6 -4 13 9 16 31 3 21 8 48 11
60 5 26 -12 41 -20 16z"/>
<path d="M2805 556 c-11 -8 -25 -11 -33 -8 -11 4 -13 -2 -8 -26 3 -18 9 -45
12 -62 9 -50 23 -33 17 21 -5 45 -4 51 16 56 11 3 21 12 21 19 0 17 -2 17 -25
0z"/>
<path d="M2300 530 c-21 -13 -5 -23 18 -11 11 6 28 8 36 5 29 -11 16 -31 -26
-40 -29 -6 -44 -15 -46 -28 -6 -27 11 -38 65 -41 l49 -3 -4 57 c-3 31 -10 59
-16 63 -15 11 -58 10 -76 -2z m58 -77 c-4 -20 -27 -27 -47 -14 -19 12 -4 31
25 31 19 0 25 -5 22 -17z"/>
</g>
</svg>
