<?xml version="1.0" standalone="no"?>
<!DOCTYPE svg PUBLIC "-//W3C//DTD SVG 20010904//EN"
 "http://www.w3.org/TR/2001/REC-SVG-20010904/DTD/svg10.dtd">
<svg version="1.0" xmlns="http://www.w3.org/2000/svg"
 width="500.000000pt" height="500.000000pt" viewBox="0 0 500.000000 500.000000"
 preserveAspectRatio="xMidYMid meet">
<metadata>
Created by potrace 1.16, written by Peter Selinger 2001-2019
</metadata>
<g transform="translate(0.000000,500.000000) scale(0.100000,-0.100000)"
fill="#000000" stroke="none">
<path d="M0 2500 l0 -2500 2500 0 2500 0 0 2500 0 2500 -2500 0 -2500 0 0
-2500z m2834 2435 c149 -25 297 -59 391 -90 64 -21 202 -73 222 -83 10 -6 61
-31 113 -56 52 -26 102 -51 110 -56 8 -5 45 -27 82 -49 68 -40 236 -162 293
-210 145 -125 435 -452 435 -491 0 -5 3 -10 8 -10 4 0 12 -9 17 -19 6 -11 35
-61 66 -113 111 -184 193 -380 252 -603 65 -248 71 -301 71 -635 1 -237 -3
-316 -17 -400 -18 -102 -21 -120 -54 -245 -45 -172 -124 -369 -202 -510 -24
-44 -51 -91 -58 -105 -30 -54 -134 -209 -156 -232 -7 -7 -32 -39 -57 -72 -58
-76 -256 -275 -334 -334 -34 -25 -63 -49 -66 -52 -3 -3 -41 -31 -85 -61 -44
-30 -81 -57 -83 -61 -2 -5 -8 -8 -13 -8 -5 0 -38 -18 -73 -40 -55 -33 -213
-112 -281 -139 -180 -74 -329 -118 -475 -141 -41 -6 -95 -16 -120 -22 -25 -5
-144 -12 -265 -15 -221 -5 -328 4 -556 47 -97 19 -282 77 -409 130 -540 224
-997 656 -1244 1175 -26 55 -52 108 -56 117 -20 37 -87 235 -113 333 -60 222
-72 330 -72 635 1 271 5 325 41 500 54 260 183 590 295 758 16 24 29 45 29 47
0 4 106 159 126 185 95 121 247 282 354 374 67 58 216 166 290 211 36 22 75
45 85 52 11 7 63 33 115 59 52 25 103 50 113 56 20 10 158 62 222 83 88 29
237 64 380 89 116 20 558 21 679 1z"/>
<path d="M2285 4933 c-254 -31 -424 -71 -608 -140 -323 -122 -614 -309 -852
-548 -393 -395 -630 -887 -700 -1449 -18 -146 -12 -493 10 -636 68 -435 237
-823 513 -1175 82 -104 303 -320 417 -406 727 -548 1685 -639 2489 -237 258
129 458 278 671 500 318 330 538 761 624 1218 66 353 52 745 -40 1090 -152
572 -520 1084 -1010 1403 -398 260 -843 390 -1319 386 -91 -1 -178 -4 -195 -6z
m575 -118 c242 -43 422 -101 635 -205 645 -313 1118 -931 1255 -1640 39 -198
52 -522 29 -715 -81 -705 -475 -1334 -1074 -1716 -241 -153 -563 -272 -865
-320 -176 -28 -479 -30 -650 -5 -637 94 -1167 419 -1557 956 -214 295 -362
686 -408 1076 -64 549 73 1123 378 1575 353 523 898 881 1507 988 196 35 573
38 750 6z"/>
<path d="M2265 4780 c-1000 -114 -1797 -871 -1970 -1873 -64 -371 -33 -751 90
-1122 46 -137 163 -379 245 -505 296 -455 745 -790 1253 -936 227 -65 331 -79
617 -79 222 0 271 3 375 22 309 58 598 173 843 336 340 226 627 558 797 920
166 355 236 719 213 1119 -59 1051 -833 1923 -1863 2099 -137 24 -466 34 -600
19z m590 -44 c458 -84 837 -276 1163 -590 194 -187 343 -394 461 -637 156
-322 225 -623 225 -984 0 -255 -36 -486 -110 -711 -261 -783 -927 -1361 -1725
-1498 -429 -74 -862 -19 -1261 159 -433 193 -812 546 -1043 970 -420 769 -350
1734 175 2430 221 292 480 507 805 666 218 106 423 170 665 204 131 19 522 14
645 -9z"/>
<path d="M2626 4587 c-45 -46 -30 -99 34 -118 51 -15 67 -33 50 -54 -16 -20
-35 -19 -71 2 -26 16 -30 16 -45 2 -14 -15 -13 -18 12 -38 19 -15 41 -21 75
-21 39 0 51 4 68 26 12 15 21 37 21 50 0 28 -33 61 -71 69 -32 7 -54 29 -44
45 8 13 58 13 72 -1 8 -8 17 -8 33 1 l22 12 -20 20 c-11 12 -39 22 -65 25 -39
5 -49 2 -71 -20z"/>
<path d="M2831 4509 c-12 -50 -24 -108 -27 -130 -6 -37 -5 -39 19 -39 21 0 26
5 29 28 4 38 30 34 42 -7 9 -31 48 -62 62 -48 3 3 -4 31 -15 62 -23 62 -23 64
32 96 10 5 15 14 12 20 -11 17 -46 9 -81 -17 -39 -30 -39 -30 -20 51 11 45 12
62 3 67 -27 17 -36 4 -56 -83z"/>
<path d="M2373 4463 c4 -49 7 -89 7 -90 0 -2 11 -3 25 -3 26 0 26 1 19 60 l-7
61 32 12 c19 7 31 18 31 29 0 21 -30 24 -48 6 -9 -9 -12 -9 -12 0 0 7 -12 12
-26 12 l-27 0 6 -87z"/>
<path d="M3050 4534 c-11 -12 -10 -18 3 -31 8 -9 23 -13 31 -10 21 8 21 43 0
51 -21 8 -20 8 -34 -10z"/>
<path d="M2197 4520 c-14 -11 -28 -33 -32 -49 -8 -36 16 -95 43 -110 31 -17
77 -13 103 8 20 16 21 21 10 35 -12 14 -15 14 -28 0 -20 -19 -67 -14 -71 7 -2
13 9 18 53 24 50 6 55 9 55 31 0 34 -42 74 -78 74 -16 0 -41 -9 -55 -20z m78
-40 c0 -10 -12 -16 -32 -18 -35 -3 -41 6 -21 26 17 17 53 11 53 -8z"/>
<path d="M3147 4487 c-8 -18 -27 -69 -43 -115 l-29 -84 24 -19 c13 -10 27 -19
31 -19 13 0 21 33 10 40 -7 4 1 39 25 105 19 53 35 101 35 105 0 4 -9 10 -20
13 -16 4 -23 -2 -33 -26z"/>
<path d="M2015 4491 c-3 -6 -19 -11 -36 -11 -17 0 -29 -5 -29 -12 0 -7 13 -62
28 -123 24 -93 31 -110 48 -110 16 0 19 6 16 43 -2 41 -1 42 22 36 19 -4 32 1
52 21 23 23 26 32 21 67 -8 58 -36 92 -80 96 -19 2 -38 -2 -42 -7z m54 -44
c20 -25 24 -72 7 -86 -28 -23 -50 -9 -60 38 -7 33 -6 45 5 52 20 12 35 11 48
-4z"/>
<path d="M3007 4393 c-26 -88 -24 -102 10 -103 10 0 69 168 61 175 -2 1 -12 5
-24 9 -18 6 -23 -2 -47 -81z"/>
<path d="M3215 4370 c-26 -60 -45 -116 -42 -124 10 -26 43 -38 58 -20 10 13
10 17 0 24 -10 6 -4 29 28 101 22 52 41 97 41 101 0 4 -8 12 -19 17 -17 9 -23
-1 -66 -99z"/>
<path d="M1635 4426 c-20 -14 -19 -17 32 -120 44 -88 57 -106 75 -106 13 0 29
4 36 8 16 11 5 43 -14 40 -8 -2 -32 36 -61 95 -46 94 -49 97 -68 83z"/>
<path d="M1813 4430 c-61 -25 -69 -113 -13 -162 17 -16 38 -28 48 -28 32 0 80
37 87 68 9 42 -17 97 -54 116 -34 18 -37 18 -68 6z m56 -53 c6 -8 14 -28 17
-45 5 -24 2 -32 -14 -41 -16 -9 -24 -7 -36 5 -19 19 -30 58 -22 79 7 19 40 20
55 2z"/>
<path d="M3304 4325 c-19 -29 -11 -60 22 -81 26 -18 32 -44 10 -44 -16 0 -46
26 -46 40 0 4 -9 6 -20 3 -27 -7 -25 -19 9 -54 33 -33 80 -39 105 -13 26 25
19 60 -15 87 -18 14 -29 29 -25 36 10 16 23 14 45 -10 12 -13 26 -19 35 -16
23 9 20 22 -15 51 -40 34 -83 34 -105 1z"/>
<path d="M1511 4276 c-40 -43 -25 -113 34 -152 41 -27 125 11 125 57 0 24 -29
33 -37 11 -9 -22 -23 -32 -50 -32 -37 0 -26 23 22 49 51 27 55 38 22 69 -32
30 -87 29 -116 -2z m76 -32 c3 -9 -36 -34 -52 -34 -8 0 -6 36 2 44 10 10 46 3
50 -10z"/>
<path d="M3540 4180 c-36 -50 -66 -93 -68 -98 -1 -4 6 -12 17 -19 16 -10 23
-4 60 49 24 33 45 58 47 56 2 -3 -1 -42 -7 -88 -9 -76 -9 -86 8 -97 9 -7 22
-12 27 -10 5 2 40 44 77 94 49 67 64 94 56 102 -19 19 -31 12 -76 -50 -24 -33
-44 -59 -46 -57 -1 2 3 41 9 86 10 86 4 114 -25 120 -8 1 -43 -39 -79 -88z"/>
<path d="M1416 4217 c-20 -15 -20 -15 22 -137 4 -10 -2 -8 -19 6 -60 52 -88
65 -110 54 -20 -11 -17 -15 52 -66 78 -57 99 -63 119 -39 10 12 7 32 -16 106
-27 85 -30 89 -48 76z"/>
<path d="M1211 4054 c-44 -37 -43 -84 3 -130 38 -38 72 -43 110 -19 33 22 54
74 35 86 -21 13 -27 11 -31 -12 -4 -28 -38 -51 -58 -39 -12 8 -7 17 29 54 l44
45 -34 20 c-44 27 -61 26 -98 -5z m59 -24 c13 -9 11 -13 -10 -30 -14 -11 -28
-20 -32 -20 -12 0 -9 35 4 48 14 14 19 15 38 2z"/>
<path d="M3732 4024 c-32 -22 -55 -71 -47 -101 14 -56 105 -102 105 -53 0 13
-7 20 -18 20 -25 0 -42 19 -42 47 0 31 10 29 50 -12 40 -41 53 -43 74 -13 23
32 20 62 -10 97 -29 35 -75 41 -112 15z m87 -38 c11 -13 6 -46 -7 -46 -11 0
-42 34 -42 47 0 17 34 17 49 -1z"/>
<path d="M988 3914 c-23 -25 -43 -49 -43 -54 0 -10 168 -161 176 -157 16 6 80
92 86 115 14 58 -67 142 -138 142 -31 0 -44 -7 -81 -46z m124 -20 c21 -15 41
-38 44 -51 7 -24 -18 -73 -37 -73 -6 0 -34 22 -62 49 l-52 50 24 25 c30 32 36
32 83 0z"/>
<path d="M3966 3933 c-4 -4 -19 -7 -34 -8 -20 0 -28 -6 -30 -21 -2 -11 -21
-38 -42 -59 -44 -43 -47 -55 -24 -91 13 -19 19 -22 30 -13 8 7 12 19 9 28 -3
11 8 29 30 51 28 27 37 31 49 21 20 -17 38 -4 31 20 -4 11 -1 26 5 34 20 24
-3 59 -24 38z"/>
<path d="M3956 3753 c-56 -71 -58 -75 -41 -93 17 -19 18 -19 68 0 28 11 52 18
54 16 2 -2 -7 -16 -19 -32 -49 -61 -48 -59 -33 -81 l15 -21 83 32 c85 32 100
44 74 60 -10 6 -31 3 -63 -11 -27 -12 -50 -20 -53 -18 -2 2 13 24 33 49 33 39
36 47 25 64 -13 20 -13 20 -77 -4 l-63 -24 40 47 c43 48 49 64 29 81 -10 7
-28 -10 -72 -65z"/>
<path d="M1860 3770 c0 -6 45 -10 115 -10 70 0 115 4 115 10 0 6 -45 10 -115
10 -70 0 -115 -4 -115 -10z"/>
<path d="M2140 3770 c0 -6 61 -10 163 -10 108 0 157 4 147 10 -20 13 -310 13
-310 0z"/>
<path d="M2560 3770 c0 -6 40 -10 100 -10 60 0 100 4 100 10 0 6 -40 10 -100
10 -60 0 -100 -4 -100 -10z"/>
<path d="M2920 3770 c0 -6 40 -10 100 -10 60 0 100 4 100 10 0 6 -40 10 -100
10 -60 0 -100 -4 -100 -10z"/>
<path d="M820 3705 c-9 -11 -4 -27 25 -80 l37 -65 -72 6 c-56 6 -74 4 -81 -7
-5 -8 -9 -17 -9 -21 0 -7 165 -113 193 -123 11 -5 17 -2 17 8 0 9 -34 37 -75
62 -41 26 -75 49 -75 50 0 2 35 1 77 -2 l76 -6 -37 66 c-20 37 -35 67 -32 67
3 0 38 -20 78 -45 78 -49 88 -52 88 -31 0 10 -107 85 -186 129 -7 4 -17 0 -24
-8z"/>
<path d="M1860 3705 c0 -12 19 -15 115 -15 96 0 115 3 115 15 0 12 -19 15
-115 15 -96 0 -115 -3 -115 -15z"/>
<path d="M2140 3705 c0 -13 27 -15 191 -15 148 0 190 3 187 13 -4 9 -53 13
-191 15 -162 2 -187 0 -187 -13z"/>
<path d="M2560 3705 c0 -12 19 -15 110 -15 91 0 110 3 110 15 0 12 -19 15
-110 15 -91 0 -110 -3 -110 -15z"/>
<path d="M2896 3705 c-5 -13 11 -15 103 -15 88 0 110 3 115 15 5 13 -11 15
-103 15 -88 0 -110 -3 -115 -15z"/>
<path d="M1930 3640 c0 -5 20 -10 45 -10 25 0 45 5 45 10 0 6 -20 10 -45 10
-25 0 -45 -4 -45 -10z"/>
<path d="M2210 3640 c0 -5 23 -10 50 -10 28 0 50 5 50 10 0 6 -22 10 -50 10
-27 0 -50 -4 -50 -10z"/>
<path d="M2420 3640 c0 -5 23 -10 50 -10 28 0 50 5 50 10 0 6 -22 10 -50 10
-27 0 -50 -4 -50 -10z"/>
<path d="M2630 3640 c0 -6 37 -10 91 -10 57 0 88 4 84 10 -3 6 -44 10 -91 10
-49 0 -84 -4 -84 -10z"/>
<path d="M2875 3640 c-4 -6 27 -10 84 -10 54 0 91 4 91 10 0 6 -35 10 -84 10
-47 0 -88 -4 -91 -10z"/>
<path d="M1930 3570 c0 -5 20 -10 45 -10 25 0 45 5 45 10 0 6 -20 10 -45 10
-25 0 -45 -4 -45 -10z"/>
<path d="M2210 3570 c0 -6 51 -10 134 -10 79 0 137 4 141 10 4 6 -43 10 -134
10 -87 0 -141 -4 -141 -10z"/>
<path d="M2630 3570 c0 -5 23 -10 50 -10 28 0 50 5 50 10 0 6 -22 10 -50 10
-27 0 -50 -4 -50 -10z"/>
<path d="M2740 3570 c0 -5 20 -10 45 -10 25 0 45 5 45 10 0 6 -20 10 -45 10
-25 0 -45 -4 -45 -10z"/>
<path d="M2850 3570 c0 -5 18 -10 39 -10 22 0 43 5 46 10 4 6 -12 10 -39 10
-25 0 -46 -4 -46 -10z"/>
<path d="M2950 3570 c0 -5 23 -10 51 -10 31 0 48 4 44 10 -3 6 -26 10 -51 10
-24 0 -44 -4 -44 -10z"/>
<path d="M4095 3519 c-43 -38 -46 -74 -8 -119 24 -29 31 -32 66 -27 85 12 126
99 72 152 -35 36 -85 34 -130 -6z m105 -24 c25 -30 -17 -75 -70 -75 -20 0 -37
37 -23 50 10 10 65 40 74 40 4 0 12 -7 19 -15z"/>
<path d="M1930 3500 c0 -5 20 -10 45 -10 25 0 45 5 45 10 0 6 -20 10 -45 10
-25 0 -45 -4 -45 -10z"/>
<path d="M2210 3500 c0 -6 55 -10 146 -10 94 0 143 4 139 10 -4 6 -63 10 -146
10 -86 0 -139 -4 -139 -10z"/>
<path d="M2630 3500 c0 -5 23 -10 50 -10 28 0 50 5 50 10 0 6 -22 10 -50 10
-27 0 -50 -4 -50 -10z"/>
<path d="M2770 3500 c0 -6 30 -10 70 -10 40 0 70 4 70 10 0 6 -30 10 -70 10
-40 0 -70 -4 -70 -10z"/>
<path d="M2950 3500 c0 -5 23 -10 50 -10 28 0 50 5 50 10 0 6 -22 10 -50 10
-27 0 -50 -4 -50 -10z"/>
<path d="M1930 3435 c0 -11 12 -15 45 -15 33 0 45 4 45 15 0 11 -12 15 -45 15
-33 0 -45 -4 -45 -15z"/>
<path d="M2210 3435 c0 -13 9 -16 48 -13 26 2 47 8 47 13 0 6 -21 11 -47 13
-39 3 -48 0 -48 -13z"/>
<path d="M2420 3435 c0 -11 12 -15 50 -15 38 0 50 4 50 15 0 11 -12 15 -50 15
-38 0 -50 -4 -50 -15z"/>
<path d="M2630 3435 c0 -11 12 -15 50 -15 38 0 50 4 50 15 0 11 -12 15 -50 15
-38 0 -50 -4 -50 -15z"/>
<path d="M2790 3435 c0 -11 12 -15 50 -15 38 0 50 4 50 15 0 11 -12 15 -50 15
-38 0 -50 -4 -50 -15z"/>
<path d="M2950 3434 c0 -12 10 -14 47 -12 66 4 70 28 4 28 -39 0 -51 -4 -51
-16z"/>
<path d="M661 3418 c-21 -21 -57 -105 -50 -112 7 -8 201 -96 210 -96 10 0 59
105 59 127 0 26 -49 65 -78 62 -18 -2 -35 4 -50 19 -28 28 -65 28 -91 0z m60
-18 c22 -12 24 -37 7 -75 -13 -28 -17 -30 -53 -13 -30 14 -31 23 -5 66 22 36
23 36 51 22z m109 -48 c21 -17 21 -18 5 -60 -10 -23 -19 -42 -21 -42 -2 0 -19
7 -38 17 l-35 16 15 36 c22 53 39 61 74 33z"/>
<path d="M4212 3350 c-76 -36 -82 -41 -72 -60 13 -25 10 -25 72 6 l52 26 22
-25 c20 -23 24 -24 40 -11 18 13 18 15 -5 34 -13 11 -19 20 -13 20 10 0 5 37
-7 44 -4 3 -44 -13 -89 -34z"/>
<path d="M1860 3370 c0 -6 45 -10 115 -10 70 0 115 4 115 10 0 6 -45 10 -115
10 -70 0 -115 -4 -115 -10z"/>
<path d="M2140 3370 c0 -6 68 -10 184 -10 113 0 187 4 191 10 4 7 -60 10 -184
10 -121 0 -191 -4 -191 -10z"/>
<path d="M2560 3370 c0 -6 35 -10 85 -10 50 0 85 4 85 10 0 6 -35 10 -85 10
-50 0 -85 -4 -85 -10z"/>
<path d="M2810 3370 c0 -5 11 -10 24 -10 14 0 28 5 31 10 4 6 -7 10 -24 10
-17 0 -31 -4 -31 -10z"/>
<path d="M2950 3370 c0 -6 35 -10 85 -10 50 0 85 4 85 10 0 6 -35 10 -85 10
-50 0 -85 -4 -85 -10z"/>
<path d="M1860 3300 c0 -6 45 -10 115 -10 70 0 115 4 115 10 0 6 -45 10 -115
10 -70 0 -115 -4 -115 -10z"/>
<path d="M2140 3300 c0 -12 276 -12 305 0 12 5 -42 9 -142 9 -103 1 -163 -3
-163 -9z"/>
<path d="M2560 3300 c0 -6 35 -10 85 -10 50 0 85 4 85 10 0 6 -35 10 -85 10
-50 0 -85 -4 -85 -10z"/>
<path d="M2950 3300 c0 -6 35 -10 85 -10 50 0 85 4 85 10 0 6 -35 10 -85 10
-50 0 -85 -4 -85 -10z"/>
<path d="M4305 3237 c-60 -22 -112 -42 -113 -43 -2 -1 -1 -12 3 -23 5 -18 12
-20 46 -15 46 8 48 2 14 -38 -26 -30 -31 -53 -17 -75 6 -9 20 3 46 37 21 28
42 50 48 50 5 0 23 -7 39 -16 35 -18 44 -14 35 14 -4 11 -27 28 -53 39 l-45
18 66 24 c56 20 67 27 64 44 -2 11 -7 21 -13 22 -5 2 -59 -16 -120 -38z"/>
<path d="M561 3200 c-14 -46 -5 -73 14 -46 12 15 19 14 99 -15 74 -27 86 -34
81 -50 -13 -39 22 -18 38 23 18 46 8 76 -15 46 -12 -15 -21 -13 -95 14 -64 23
-83 35 -83 49 0 34 -27 20 -39 -21z"/>
<path d="M640 2650 l0 -120 64 0 c87 0 116 24 124 98 9 99 -32 142 -138 142
l-50 0 0 -120z m137 64 c22 -22 25 -32 21 -76 -6 -61 -24 -78 -85 -78 l-43 0
0 90 0 90 40 0 c31 0 47 -7 67 -26z"/>
<path d="M1527 2764 c-4 -4 -7 -58 -7 -121 l0 -113 75 0 c60 0 75 3 75 15 0
12 -13 15 -55 15 l-54 0 -3 102 c-3 94 -11 121 -31 102z"/>
<path d="M2375 2760 c-7 -12 2 -30 16 -30 5 0 9 9 9 20 0 21 -15 27 -25 10z"/>
<path d="M2917 2764 c-4 -4 -7 -58 -7 -121 l0 -113 90 0 c73 0 90 3 90 15 0
12 -14 15 -70 15 l-70 0 0 40 0 40 66 0 c48 0 65 3 62 13 -3 7 -28 13 -66 15
l-62 3 0 34 0 35 71 0 c52 0 70 3 67 13 -5 13 -158 23 -171 11z"/>
<path d="M3930 2751 c0 -12 6 -21 16 -21 9 0 14 7 12 17 -5 25 -28 28 -28 4z"/>
<path d="M4190 2651 c0 -102 2 -121 15 -121 13 0 15 17 13 117 -2 82 -7 118
-15 121 -10 3 -13 -25 -13 -117z"/>
<path d="M3853 2753 c-7 -3 -13 -15 -13 -28 0 -13 -6 -26 -12 -28 -10 -4 -10
-7 -1 -14 7 -5 13 -39 15 -78 3 -68 4 -70 31 -73 29 -4 37 12 12 22 -11 4 -15
21 -15 66 0 47 3 60 15 60 8 0 15 5 15 10 0 6 -6 10 -14 10 -9 0 -16 12 -18
28 -2 18 -8 27 -15 25z"/>
<path d="M883 2673 c-43 -65 -8 -147 61 -147 33 0 76 26 76 46 0 13 -27 9 -40
-7 -25 -30 -80 -12 -80 27 0 15 9 18 60 18 57 0 60 1 60 25 0 38 -33 65 -80
65 -32 0 -43 -5 -57 -27z m95 -5 c25 -25 13 -38 -33 -38 -30 0 -45 4 -45 13 0
19 21 37 45 37 12 0 26 -5 33 -12z"/>
<path d="M1071 2674 c-22 -29 -28 -83 -11 -114 15 -28 73 -44 102 -29 36 19
51 49 24 49 -8 0 -16 -7 -20 -15 -12 -33 -86 -7 -86 31 0 11 15 14 66 14 l66
0 -7 28 c-11 43 -34 62 -76 62 -29 0 -42 -6 -58 -26z m97 -21 c14 -23 14 -23
-37 -23 -54 0 -62 8 -35 35 22 21 53 16 72 -12z"/>
<path d="M1240 2578 c0 -98 3 -118 15 -118 11 0 15 11 15 40 0 43 2 45 31 30
22 -12 73 9 83 35 11 30 6 90 -9 113 -14 19 -24 21 -75 20 l-60 -2 0 -118z
m108 90 c7 -7 12 -30 12 -53 0 -46 -13 -65 -47 -65 -26 0 -43 27 -43 69 0 49
48 79 78 49z"/>
<path d="M1720 2680 c-22 -22 -27 -87 -10 -120 12 -22 64 -42 88 -33 22 8 52
34 52 45 0 13 -27 9 -40 -7 -18 -21 -57 -19 -70 4 -19 36 -12 41 56 41 63 0
65 1 59 23 -16 51 -34 67 -75 67 -27 0 -47 -7 -60 -20z m88 -12 c25 -25 13
-38 -33 -38 -48 0 -55 9 -29 34 18 19 45 21 62 4z"/>
<path d="M1906 2684 c-9 -8 -16 -20 -16 -25 0 -15 27 -10 34 7 9 24 71 15 71
-11 0 -14 -8 -21 -25 -23 -40 -5 -78 -23 -85 -39 -16 -43 32 -81 81 -63 14 6
35 8 47 5 21 -6 22 -4 19 67 -2 40 -8 79 -14 86 -15 18 -93 15 -112 -4z m94
-92 c0 -26 -20 -42 -51 -42 -44 0 -47 42 -4 53 41 10 55 7 55 -11z"/>
<path d="M2080 2615 c0 -68 3 -85 15 -85 11 0 15 16 17 67 3 62 5 68 27 73 14
3 26 11 29 18 5 16 -40 16 -56 0 -9 -9 -12 -9 -12 0 0 7 -4 12 -10 12 -6 0
-10 -35 -10 -85z"/>
<path d="M2190 2615 c0 -68 3 -85 15 -85 11 0 15 16 17 66 3 74 21 99 56 78
13 -8 18 -27 20 -78 2 -50 6 -66 17 -66 12 0 15 15 15 66 0 86 -10 104 -58
104 -21 0 -43 -5 -50 -12 -9 -9 -12 -9 -12 0 0 7 -4 12 -10 12 -6 0 -10 -35
-10 -85z"/>
<path d="M2370 2615 c0 -69 3 -85 15 -85 12 0 15 16 15 85 0 69 -3 85 -15 85
-12 0 -15 -16 -15 -85z"/>
<path d="M2450 2615 c0 -68 3 -85 15 -85 11 0 15 16 17 66 3 74 21 99 56 78
13 -8 18 -27 20 -78 2 -52 6 -66 19 -66 13 0 15 12 11 76 -2 52 -8 78 -18 84
-21 14 -74 12 -88 -2 -9 -9 -12 -9 -12 0 0 7 -4 12 -10 12 -6 0 -10 -35 -10
-85z"/>
<path d="M2641 2674 c-27 -34 -27 -84 1 -119 18 -23 26 -26 60 -22 32 4 38 2
38 -14 0 -10 -9 -23 -20 -29 -22 -12 -60 -5 -60 11 0 5 -7 9 -15 9 -22 0 -19
-27 4 -40 28 -15 73 -12 99 6 20 14 22 23 22 117 l0 103 -54 2 c-48 2 -57 -1
-75 -24z m97 -26 c17 -36 6 -77 -25 -91 -22 -10 -28 -8 -44 12 -24 29 -24 69
-2 93 23 25 55 19 71 -14z"/>
<path d="M3142 2688 c-16 -16 -15 -53 1 -66 6 -6 28 -14 47 -19 25 -7 35 -15
35 -29 0 -25 -41 -31 -65 -9 -29 26 -46 14 -22 -15 14 -17 29 -24 55 -24 47 0
69 20 65 57 -3 25 -10 32 -43 44 -72 24 -68 22 -55 38 16 19 39 19 61 -1 25
-23 45 -8 23 17 -20 22 -83 26 -102 7z"/>
<path d="M3306 2684 c-32 -31 -16 -59 45 -79 36 -12 49 -22 47 -33 -4 -23 -66
-29 -74 -8 -3 9 -13 16 -21 16 -10 0 -13 -6 -9 -16 3 -9 6 -18 6 -20 0 -3 12
-9 26 -15 39 -14 92 6 100 38 8 31 -8 48 -61 65 -23 8 -40 19 -40 28 0 21 43
25 65 5 12 -11 20 -13 25 -5 21 34 -77 57 -109 24z"/>
<path d="M3480 2680 c-14 -14 -20 -33 -20 -64 0 -59 25 -90 73 -90 34 0 77 26
77 46 0 13 -27 9 -40 -7 -18 -21 -57 -19 -70 4 -19 36 -12 41 54 41 l65 0 -10
33 c-5 17 -17 38 -26 45 -26 19 -80 15 -103 -8z m88 -12 c25 -25 13 -38 -33
-38 -30 0 -45 4 -45 13 0 19 21 37 45 37 12 0 26 -5 33 -12z"/>
<path d="M3650 2613 c0 -67 3 -83 15 -83 12 0 15 13 15 59 0 75 21 102 64 85
12 -5 16 -21 16 -75 0 -55 3 -69 15 -69 20 0 22 142 2 159 -7 6 -39 10 -70 9
l-57 -2 0 -83z"/>
<path d="M3930 2615 c0 -69 3 -85 15 -85 12 0 15 16 15 85 0 69 -3 85 -15 85
-12 0 -15 -16 -15 -85z"/>
<path d="M4016 2684 c-9 -8 -16 -20 -16 -25 0 -14 20 -11 37 7 21 21 68 15 68
-10 0 -14 -12 -22 -49 -31 -63 -16 -80 -41 -53 -79 7 -10 24 -17 38 -17 13 1
42 2 64 2 l41 2 -4 71 c-2 39 -9 77 -14 84 -15 18 -93 15 -112 -4z m94 -92 c0
-26 -20 -42 -51 -42 -45 0 -45 36 1 53 31 11 50 7 50 -11z"/>
<path d="M4272 2688 c-16 -16 -15 -53 1 -66 6 -6 28 -14 47 -19 25 -7 35 -15
35 -29 0 -24 -46 -32 -65 -10 -13 17 -40 22 -40 8 0 -21 43 -46 76 -45 44 1
64 18 64 53 0 28 -4 31 -82 59 -19 7 -26 15 -22 26 8 20 43 19 65 -1 25 -23
45 -8 23 17 -20 22 -83 26 -102 7z"/>
<path d="M1990 2365 c0 -8 7 -15 15 -15 8 0 15 7 15 15 0 8 -7 15 -15 15 -8 0
-15 -7 -15 -15z"/>
<path d="M2159 2378 c0 -2 -1 -54 -2 -117 0 -80 3 -116 11 -119 8 -2 12 12 12
47 0 73 13 101 49 101 35 0 41 -13 41 -92 0 -71 23 -78 28 -7 8 102 -25 146
-89 122 -29 -11 -29 -11 -29 28 0 21 -4 39 -10 39 -5 0 -10 -1 -11 -2z"/>
<path d="M2440 2260 c0 -100 3 -120 15 -120 11 0 15 11 15 43 0 31 6 49 20 62
11 10 22 16 23 14 2 -2 23 -30 46 -61 23 -32 48 -58 56 -58 22 0 20 5 -30 74
-25 35 -45 68 -45 74 0 6 18 26 40 45 44 37 49 47 23 47 -10 0 -43 -26 -75
-57 l-58 -57 0 57 c0 44 -3 57 -15 57 -12 0 -15 -20 -15 -120z"/>
<path d="M2077 2363 c-4 -3 -7 -15 -7 -25 0 -10 -4 -18 -10 -18 -5 0 -10 -7
-10 -15 0 -8 5 -15 10 -15 6 0 10 -28 10 -63 0 -36 5 -68 12 -75 17 -17 48
-15 48 3 0 8 -7 15 -15 15 -23 0 -21 108 3 126 16 12 16 13 0 19 -10 4 -18 18
-18 31 0 23 -10 31 -23 17z"/>
<path d="M1737 2313 c-2 -4 8 -44 22 -88 32 -99 50 -104 71 -22 8 31 17 57 20
57 3 0 12 -26 20 -57 24 -94 39 -79 95 96 4 15 2 21 -9 21 -10 0 -21 -20 -32
-60 -9 -33 -20 -60 -23 -60 -4 0 -13 26 -21 58 -10 37 -20 57 -30 57 -10 0
-20 -20 -30 -57 -8 -32 -17 -58 -21 -58 -4 0 -13 26 -21 57 -12 52 -30 76 -41
56z"/>
<path d="M1990 2229 c0 -68 3 -90 13 -87 8 3 13 33 15 91 2 73 0 87 -13 87
-12 0 -15 -16 -15 -91z"/>
<path d="M2689 2310 c-25 -15 -42 -65 -35 -105 8 -39 38 -65 76 -65 31 0 70
26 70 46 0 19 -7 18 -37 -6 -14 -11 -30 -20 -34 -20 -12 0 -49 38 -49 50 0 6
29 10 66 10 l67 0 -7 33 c-11 55 -70 84 -117 57z m74 -32 l22 -23 -27 -3 c-16
-2 -40 -2 -55 0 l-28 3 23 23 c12 12 27 22 32 22 6 0 20 -10 33 -22z"/>
<path d="M2847 2313 c-11 -19 -1 -167 11 -171 8 -2 12 11 12 47 0 65 14 101
39 101 11 0 23 5 26 10 10 16 -26 24 -46 11 -12 -7 -19 -7 -19 -1 0 12 -17 14
-23 3z"/>
<path d="M2969 2299 c-16 -16 -18 -23 -9 -29 7 -4 20 0 32 12 20 20 56 17 70
-5 11 -17 0 -26 -40 -33 -57 -10 -72 -21 -72 -55 0 -39 35 -57 85 -42 21 7 37
7 41 2 15 -25 24 -2 24 59 0 87 -16 112 -71 112 -26 0 -46 -7 -60 -21z m101
-84 c0 -16 -35 -55 -49 -55 -46 0 -57 46 -13 56 15 3 32 7 37 9 20 7 25 5 25
-10z"/>
<path d="M3150 2300 c-30 -30 -13 -61 44 -79 50 -16 63 -44 24 -54 -23 -6 -58
8 -58 23 0 6 -7 10 -15 10 -21 0 -19 -16 5 -40 38 -38 120 -15 120 34 0 29
-17 44 -58 52 -45 9 -59 29 -32 44 17 9 26 8 45 -4 30 -20 35 -20 35 -1 0 36
-78 47 -110 15z"/>
<path d="M1900 1869 c0 -51 4 -78 10 -74 6 3 10 19 10 36 0 26 3 29 33 29 38
0 57 15 57 45 0 32 -20 45 -67 45 l-43 0 0 -81z m86 57 c26 -20 8 -50 -35 -54
-30 -3 -31 -2 -31 32 0 31 3 36 23 36 13 0 32 -6 43 -14z"/>
<path d="M2740 1924 c0 -23 -3 -25 -25 -20 -42 11 -65 -9 -65 -54 0 -45 11
-54 63 -55 l37 -1 0 78 c0 43 -2 78 -5 78 -3 0 -5 -12 -5 -26z m-3 -60 c6 -15
-22 -64 -37 -64 -15 0 -40 31 -40 50 0 30 28 52 51 39 11 -6 23 -17 26 -25z"/>
<path d="M2850 1870 l0 -80 33 0 c17 0 42 3 55 6 25 7 41 49 24 66 -6 6 -8 24
-5 40 7 37 -7 48 -64 48 l-43 0 0 -80z m85 56 c16 -12 17 -16 6 -30 -7 -9 -26
-16 -42 -16 -26 0 -29 4 -29 30 0 25 4 30 23 30 13 0 32 -6 42 -14z m3 -65 c8
-5 12 -17 10 -27 -2 -14 -13 -20 -41 -22 -35 -3 -37 -2 -37 27 0 27 3 31 28
31 15 0 33 -4 40 -9z"/>
<path d="M2056 1894 c-34 -33 -10 -104 34 -104 46 0 68 71 32 103 -23 21 -46
22 -66 1z m68 -20 c10 -25 7 -41 -9 -57 -31 -32 -75 7 -60 53 8 25 60 28 69 4z"/>
<path d="M2220 1864 l-12 -49 -14 30 c-7 17 -13 36 -14 43 0 6 -4 12 -9 12 -6
0 -2 -23 7 -51 10 -28 22 -50 27 -50 6 0 15 19 20 43 12 45 18 43 30 -9 3 -18
10 -35 15 -38 9 -6 45 93 37 102 -3 3 -11 -14 -17 -38 -9 -31 -14 -39 -21 -28
-5 8 -9 21 -9 30 0 8 -6 23 -13 34 -13 16 -15 14 -27 -31z"/>
<path d="M2355 1896 c-24 -17 -23 -75 1 -93 22 -16 46 -17 62 -1 20 20 13 32
-7 14 -15 -14 -24 -15 -40 -6 -38 20 -26 40 24 40 38 0 43 3 38 18 -7 20 -32
42 -48 42 -6 0 -19 -6 -30 -14z m65 -26 c0 -6 -16 -10 -35 -10 -38 0 -46 13
-18 29 19 10 53 -2 53 -19z"/>
<path d="M2495 1900 c-4 -6 -13 -9 -21 -6 -11 4 -14 -7 -13 -52 l1 -57 9 45
c5 25 16 51 26 57 9 7 14 15 11 19 -3 3 -9 0 -13 -6z"/>
<path d="M2548 1899 c-27 -15 -25 -85 3 -100 24 -13 69 2 69 22 0 7 -8 5 -19
-5 -15 -14 -24 -15 -40 -6 -38 20 -26 40 24 40 49 0 55 10 25 40 -22 22 -37
24 -62 9z m60 -26 c2 -9 -8 -13 -32 -13 -34 0 -44 8 -29 24 11 11 56 2 61 -11z"/>
<path d="M2992 1899 c42 -111 44 -120 23 -136 -19 -14 -19 -15 -1 -11 13 2 27
26 46 76 16 39 24 72 20 72 -5 0 -15 -18 -21 -40 -7 -22 -15 -40 -19 -40 -4 0
-12 18 -19 40 -6 21 -17 42 -23 46 -7 5 -9 2 -6 -7z"/>
<path d="M1593 1620 c-114 -69 -62 -240 74 -240 42 0 103 32 103 53 0 8 -11
19 -24 25 -19 9 -27 8 -36 -4 -33 -39 -120 2 -120 57 0 53 82 93 118 57 9 -9
18 -9 37 0 33 15 32 28 -7 52 -42 25 -104 26 -145 0z"/>
<path d="M1859 1617 c-115 -77 -50 -250 88 -234 87 9 139 96 107 176 -31 77
-125 105 -195 58z m131 -64 c37 -47 4 -113 -57 -113 -42 0 -73 30 -73 70 0 67
88 96 130 43z"/>
<path d="M2100 1544 c0 -129 20 -163 94 -164 23 0 47 7 58 17 17 15 18 15 18
0 0 -12 9 -17 30 -17 l30 0 0 130 0 130 -30 0 -29 0 -3 -92 c-3 -88 -4 -93
-29 -107 -24 -13 -29 -13 -53 2 -25 17 -26 21 -26 107 l0 90 -30 0 -30 0 0
-96z"/>
<path d="M2370 1510 l0 -130 30 0 30 0 0 85 c0 72 3 88 20 105 11 11 26 20 34
20 7 0 16 11 18 25 4 20 1 25 -15 25 -11 0 -29 -7 -39 -17 -17 -15 -18 -15
-18 0 0 12 -9 17 -30 17 l-30 0 0 -130z"/>
<path d="M2552 1620 c-21 -20 -27 -38 -22 -70 3 -26 29 -46 73 -59 56 -17 71
-30 56 -47 -15 -18 -44 -18 -74 2 -18 12 -28 13 -44 4 -26 -14 -26 -22 -1 -45
14 -12 41 -20 78 -23 72 -5 112 21 112 72 0 40 -19 59 -85 83 -51 19 -66 45
-31 51 10 2 29 -1 41 -8 17 -9 28 -9 44 -1 29 16 26 28 -9 46 -43 22 -111 20
-138 -5z"/>
<path d="M2812 1620 c-33 -21 -62 -71 -62 -110 0 -37 37 -95 73 -114 44 -24
120 -18 150 13 21 20 21 21 2 35 -16 11 -24 11 -53 -1 -36 -15 -63 -11 -87 13
-28 29 -15 34 80 34 l95 0 0 33 c-1 95 -112 149 -198 97z m101 -41 c22 -12 37
-28 37 -40 0 -3 -29 -7 -65 -8 -36 -1 -65 2 -65 6 0 13 14 29 35 41 25 14 32
15 58 1z"/>
<path d="M3050 1510 l0 -130 30 0 29 0 3 93 3 92 32 15 c22 10 33 22 33 38 0
27 -25 29 -52 5 -17 -15 -18 -15 -18 0 0 12 -9 17 -30 17 l-30 0 0 -130z"/>
<path d="M3246 1619 c-34 -27 -56 -70 -56 -109 0 -94 104 -161 183 -119 16 9
22 9 25 0 2 -6 17 -11 33 -11 l29 0 0 130 0 130 -30 0 c-20 0 -30 -5 -30 -15
0 -8 -3 -15 -6 -15 -3 0 -12 7 -20 15 -23 23 -96 19 -128 -6z m133 -65 c27
-34 27 -62 -1 -91 -30 -33 -80 -31 -107 3 -12 15 -21 34 -21 44 0 34 39 70 75
70 24 0 39 -7 54 -26z"/>
<path d="M1308 923 c-49 -63 -62 -83 -54 -83 8 0 109 131 104 136 -3 2 -25
-22 -50 -53z"/>
<path d="M3626 971 c-8 -13 92 -143 105 -135 5 3 -4 24 -21 47 -58 79 -77 99
-84 88z"/>
<path d="M1347 870 l-47 -69 43 -25 c24 -15 50 -26 58 -26 21 0 39 21 39 45 0
11 9 26 20 33 33 20 25 56 -20 86 -22 14 -41 26 -42 26 -2 0 -24 -31 -51 -70z
m118 -11 c0 -33 -32 -36 -69 -6 -29 23 -29 24 -11 50 l18 28 31 -25 c19 -14
31 -33 31 -47z m-65 -21 c30 -22 40 -61 19 -73 -14 -9 -49 1 -78 23 -23 18
-23 20 -6 45 21 33 28 33 65 5z"/>
<path d="M3566 869 c-14 -11 -26 -27 -26 -35 0 -21 18 -17 25 5 7 22 34 36 47
23 5 -5 -2 -22 -17 -40 -18 -22 -24 -38 -20 -52 8 -26 40 -26 62 0 10 11 23
20 30 20 26 0 21 19 -16 59 -21 22 -43 41 -48 41 -6 0 -22 -9 -37 -21z m74
-58 c0 -22 -25 -45 -40 -36 -14 9 -13 21 6 39 21 21 34 20 34 -3z"/>
<path d="M3456 851 c-4 -5 -2 -12 3 -15 5 -4 12 -2 15 3 4 5 2 12 -3 15 -5 4
-12 2 -15 -3z"/>
<path d="M1527 844 c-4 -4 -4 -16 -1 -28 2 -12 1 -49 -4 -83 -5 -35 -7 -65 -4
-68 3 -2 31 18 62 45 32 28 61 50 64 50 4 0 -10 -30 -30 -67 -21 -36 -33 -63
-27 -60 10 6 83 131 83 142 0 15 -30 -1 -77 -41 -30 -26 -57 -44 -60 -41 -3 3
-1 37 5 74 9 63 5 93 -11 77z"/>
<path d="M1481 764 c-40 -75 -33 -82 9 -9 18 31 30 58 27 61 -3 3 -19 -21 -36
-52z"/>
<path d="M3480 809 c0 -16 51 -99 61 -99 15 0 10 17 -18 64 -27 44 -43 57 -43
35z"/>
<path d="M3394 785 c4 -15 2 -25 -4 -25 -6 0 -8 -5 -5 -10 4 -6 10 -8 15 -5 5
3 19 -13 32 -35 23 -40 56 -52 66 -22 2 7 -2 10 -11 6 -9 -3 -22 8 -37 33 -14
23 -18 39 -11 41 6 2 11 8 11 14 0 6 -7 7 -15 4 -9 -3 -18 1 -21 9 -10 25 -27
17 -20 -10z"/>
<path d="M3304 716 c-3 -9 -12 -16 -20 -16 -8 0 -14 -4 -14 -10 0 -16 43 -100
52 -100 12 0 10 18 -8 51 -17 34 -10 69 14 69 9 0 27 -18 40 -40 12 -22 27
-40 32 -40 15 0 12 11 -13 55 -25 44 -71 61 -83 31z"/>
<path d="M1746 652 c-14 -37 -26 -72 -26 -78 0 -12 64 -34 97 -34 40 0 81 68
69 116 -6 23 -69 64 -100 64 -8 0 -25 -27 -40 -68z m100 17 c19 -21 13 -79
-11 -99 -16 -14 -85 -5 -85 10 0 5 9 34 20 64 22 58 40 64 76 25z"/>
<path d="M3067 674 c-3 -4 -3 -20 0 -36 5 -27 4 -30 -15 -24 -14 5 -27 1 -41
-13 -24 -24 -26 -40 -9 -76 14 -31 48 -41 80 -24 12 7 29 12 37 10 8 -1 12 3
8 12 -3 8 -15 47 -27 86 -22 73 -22 75 -33 65z m12 -88 c7 -8 11 -27 9 -43 -6
-52 -68 -37 -68 17 0 14 3 30 7 33 11 12 40 8 52 -7z"/>
<path d="M1940 656 c0 -9 5 -16 10 -16 6 0 10 4 10 9 0 6 -4 13 -10 16 -5 3
-10 -1 -10 -9z"/>
<path d="M3160 650 c-23 -23 -24 -29 -10 -64 14 -39 53 -53 85 -32 14 9 25 24
24 34 0 14 -3 13 -16 -5 -17 -25 -42 -30 -62 -10 -10 10 -3 16 35 33 l47 21
-21 21 c-27 27 -56 28 -82 2z m67 -15 c4 -14 -55 -36 -63 -24 -9 15 17 40 39
37 11 -2 22 -8 24 -13z"/>
<path d="M1913 578 c-7 -24 -15 -51 -18 -60 -5 -12 -2 -18 7 -18 9 0 19 19 27
50 15 58 15 64 4 67 -5 2 -14 -16 -20 -39z"/>
<path d="M2140 600 c0 -5 7 -10 15 -10 8 0 15 5 15 10 0 6 -7 10 -15 10 -8 0
-15 -4 -15 -10z"/>
<path d="M1987 572 c-24 -26 -22 -79 3 -92 12 -6 30 -8 42 -4 17 5 20 3 15
-11 -4 -9 -7 -19 -7 -21 0 -11 -46 -2 -62 13 -17 15 -18 15 -18 -1 0 -22 42
-40 74 -32 19 5 28 17 40 59 23 80 23 92 4 92 -9 0 -20 4 -24 8 -14 13 -51 7
-67 -11z m66 -14 c6 -8 7 -27 3 -42 -5 -22 -11 -27 -34 -24 -21 2 -28 9 -30
29 -3 28 22 63 41 56 6 -2 15 -10 20 -19z"/>
<path d="M2220 575 c0 -8 -7 -15 -15 -15 -8 0 -15 -4 -15 -10 0 -5 5 -10 10
-10 6 0 9 -21 8 -52 -3 -50 -1 -53 22 -56 22 -3 23 -2 9 10 -21 16 -15 88 7
88 8 0 14 5 14 10 0 6 -4 10 -10 10 -5 0 -10 9 -10 20 0 11 -4 20 -10 20 -5 0
-10 -7 -10 -15z"/>
<path d="M2601 564 c-24 -30 -27 -90 -7 -116 32 -43 103 -42 126 2 18 33 3 36
-24 7 -14 -15 -30 -27 -36 -27 -20 0 -60 49 -60 72 0 54 60 89 90 53 16 -19
30 -19 30 0 0 19 -31 35 -69 35 -20 0 -36 -8 -50 -26z"/>
<path d="M2438 503 c-5 -82 -3 -97 13 -88 12 8 12 165 0 165 -5 0 -11 -35 -13
-77z"/>
<path d="M2865 556 c-33 -49 15 -117 68 -97 27 10 43 29 33 38 -3 4 -15 -2
-27 -12 -15 -14 -24 -17 -36 -9 -32 20 -25 33 21 39 51 8 53 11 30 43 -21 31
-69 30 -89 -2z m72 -12 c4 -12 -46 -26 -60 -17 -4 3 -3 11 4 19 14 17 50 15
56 -2z"/>
<path d="M2137 554 c-13 -45 -18 -102 -9 -108 13 -8 35 105 23 117 -5 5 -11 2
-14 -9z"/>
<path d="M2795 550 c-3 -5 -13 -6 -21 -3 -13 5 -14 -1 -9 -33 11 -72 15 -84
26 -84 7 0 9 12 5 35 -8 43 0 75 20 75 8 0 14 5 14 10 0 13 -27 13 -35 0z"/>
<path d="M2300 530 c-20 -12 -6 -24 16 -12 22 12 54 4 54 -14 0 -9 -11 -14
-28 -14 -37 0 -65 -21 -60 -46 2 -14 12 -19 41 -20 20 0 40 -3 44 -7 3 -4 12
-7 18 -7 15 0 7 112 -9 122 -15 11 -58 10 -76 -2z m60 -69 c0 -25 -14 -34 -40
-26 -26 8 -25 24 3 35 33 13 37 12 37 -9z"/>
</g>
</svg>
