<?xml version="1.0" standalone="no"?>
<!DOCTYPE svg PUBLIC "-//W3C//DTD SVG 20010904//EN"
 "http://www.w3.org/TR/2001/REC-SVG-20010904/DTD/svg10.dtd">
<svg version="1.0" xmlns="http://www.w3.org/2000/svg"
 width="1080.000000pt" height="1080.000000pt" viewBox="0 0 1080.000000 1080.000000"
 preserveAspectRatio="xMidYMid meet">
<metadata>
Created by potrace 1.16, written by Peter Selinger 2001-2019
</metadata>
<g transform="translate(0.000000,1080.000000) scale(0.100000,-0.100000)"
fill="#000000" stroke="none">
<path d="M0 5400 l0 -5400 5400 0 5400 0 0 5400 0 5400 -5400 0 -5400 0 0
-5400z m10695 3630 l0 -1665 -2807 -3 c-2670 -2 -2808 -1 -2808 15 0 16 -8 18
-58 15 -45 -3 -63 0 -76 13 -22 23 -17 57 10 69 12 6 29 21 37 35 l15 26 -49
-3 c-27 -2 -61 -1 -74 2 -41 10 -46 78 -6 89 11 2 24 14 30 25 10 19 8 19 -47
16 -64 -3 -102 14 -102 46 0 10 7 25 15 32 62 52 59 58 -19 52 -50 -4 -67 -1
-80 11 -23 24 -20 53 9 79 l25 24 -26 6 c-15 4 -39 4 -55 1 -15 -4 -38 -1 -50
5 -19 11 -21 17 -15 67 l6 56 -27 -6 c-16 -3 -36 -9 -45 -12 -10 -4 -24 1 -37
14 -17 17 -20 28 -14 66 5 41 4 45 -15 45 -11 0 -24 -4 -27 -10 -3 -5 -17 -10
-30 -10 -36 0 -53 35 -50 103 3 60 -7 71 -29 31 -15 -26 -27 -34 -52 -34 -33
0 -43 20 -45 89 -2 51 -5 61 -18 59 -9 -2 -22 -16 -29 -31 -10 -20 -20 -27
-42 -27 -39 0 -53 28 -48 96 2 35 -1 54 -8 54 -13 0 -39 -28 -47 -52 -4 -12
-17 -18 -37 -18 -38 0 -53 33 -48 103 2 26 2 47 0 47 -15 0 -45 -26 -57 -50
-11 -20 -23 -30 -39 -30 -35 0 -49 24 -50 90 -1 33 -4 60 -7 60 -9 0 -41 -37
-53 -63 -12 -24 -43 -33 -64 -19 -18 12 -34 86 -26 117 3 14 2 25 -3 25 -15 0
-51 -42 -62 -72 -10 -28 -34 -36 -58 -20 -18 11 -33 59 -33 104 l0 41 -21 -19
c-12 -10 -28 -34 -36 -52 -16 -39 -34 -48 -62 -33 -22 12 -46 82 -38 112 3 11
2 21 -3 24 -10 6 -60 -66 -60 -87 0 -9 -10 -20 -22 -24 -30 -9 -65 33 -74 91
-8 54 -21 49 -53 -21 -17 -35 -26 -44 -46 -44 -31 0 -55 35 -62 89 -7 50 -18
44 -49 -24 -12 -29 -28 -56 -33 -60 -30 -18 -81 51 -81 112 l0 28 -20 -25
c-11 -14 -22 -39 -26 -57 -8 -45 -36 -68 -63 -54 -26 14 -51 61 -51 96 0 42
-17 28 -39 -30 -12 -31 -21 -60 -21 -64 0 -19 -35 -21 -60 -3 -20 15 -39 56
-49 111 -3 13 -16 -16 -36 -76 -14 -46 -27 -69 -39 -71 -27 -6 -63 35 -76 86
l-12 47 -14 -30 c-7 -16 -13 -39 -14 -51 0 -40 -21 -84 -40 -84 -27 0 -59 31
-73 70 -18 55 -31 48 -42 -22 -6 -35 -14 -69 -19 -76 -21 -34 -88 11 -101 69
-13 59 -35 22 -35 -61 0 -104 -84 -91 -121 18 l-13 37 -7 -30 c-4 -16 -7 -53
-8 -80 -1 -56 -13 -75 -46 -75 -25 0 -44 19 -71 70 l-19 35 -5 -79 c-4 -57 -9
-82 -21 -89 -28 -17 -64 0 -88 43 -33 59 -45 52 -36 -24 7 -72 -6 -106 -41
-106 -21 0 -76 52 -86 82 -3 7 -9 10 -13 6 -4 -4 -3 -37 3 -74 8 -50 8 -71 -1
-85 -24 -39 -72 -18 -119 51 -16 23 -17 24 -17 4 -1 -11 4 -46 9 -77 20 -106
-24 -129 -97 -51 -49 53 -53 46 -27 -47 15 -53 15 -58 -1 -83 -22 -33 -47 -28
-95 21 -43 45 -49 30 -21 -47 21 -56 21 -61 5 -85 -22 -34 -43 -32 -93 11 -23
20 -44 34 -46 32 -3 -3 6 -32 20 -66 27 -66 31 -92 15 -92 -5 0 -10 -7 -10
-15 0 -24 -34 -17 -75 15 -64 51 -68 35 -17 -63 21 -41 23 -50 11 -58 -8 -4
-14 -14 -14 -21 0 -24 -30 -19 -78 13 -26 17 -51 29 -54 26 -3 -4 11 -34 31
-67 40 -69 43 -80 20 -80 -10 0 -14 -5 -10 -15 3 -9 -1 -18 -10 -22 -14 -5
-27 -1 -83 32 -42 24 -42 6 -1 -55 44 -65 47 -75 24 -84 -8 -3 -12 -10 -9 -16
13 -21 -26 -21 -65 -1 -60 31 -77 28 -51 -8 12 -16 21 -32 21 -35 0 -3 -110
-6 -245 -6 l-245 0 0 1663 c0 915 3 1667 7 1670 3 4 2387 6 5297 5 l5291 -3 0
-1665z m-7560 -510 c3 -5 24 -10 45 -10 58 0 278 -57 368 -96 18 -8 32 -10 32
-4 0 16 -58 47 -102 54 -51 8 -78 23 -78 41 0 22 37 19 126 -11 488 -164 899
-483 1184 -920 78 -120 190 -339 190 -373 0 -25 -17 -27 -48 -5 -13 9 -26 13
-30 10 -12 -13 15 -41 69 -71 51 -29 54 -33 77 -105 36 -116 72 -280 72 -330
0 -47 -21 -90 -44 -90 -24 0 -39 30 -45 92 -5 50 -10 64 -31 77 -23 15 -24 15
-16 -4 4 -11 12 -47 17 -80 17 -104 32 -165 44 -175 20 -16 43 -1 55 36 6 19
18 34 25 34 21 0 28 -68 28 -262 0 -177 0 -177 -27 -219 -24 -35 -27 -48 -21
-83 13 -80 9 -152 -15 -255 -13 -57 -34 -118 -45 -136 -12 -17 -24 -54 -27
-81 -10 -107 -134 -354 -288 -577 -154 -221 -444 -494 -661 -622 -268 -158
-540 -255 -839 -301 -152 -23 -463 -23 -608 0 -378 59 -738 210 -1027 429
-309 234 -555 552 -691 891 -25 61 -31 95 -13 63 11 -20 38 -16 74 10 19 14
19 15 -8 10 -34 -5 -49 19 -24 38 22 16 21 22 0 29 -10 3 0 3 22 1 22 -2 32
-1 22 1 -9 3 -14 10 -11 16 5 8 -6 9 -34 4 -37 -5 -42 -4 -42 13 0 20 48 51
78 51 12 0 12 3 1 16 -10 12 -23 14 -61 9 -28 -4 -48 -3 -48 3 0 19 69 62 100
62 17 0 19 3 11 18 -9 16 -16 17 -70 8 -33 -5 -64 -6 -68 -2 -21 21 98 66 121
46 11 -8 12 0 4 41 -5 28 -7 56 -4 62 2 7 5 1 6 -13 1 -14 9 -43 19 -64 l17
-40 20 29 c10 16 43 52 73 82 30 29 53 54 50 56 -2 1 -21 17 -42 35 -43 36
-34 41 20 12 57 -30 73 -27 73 16 0 37 -24 67 -117 146 -22 19 -37 45 -49 83
-9 34 -20 54 -27 52 -7 -3 -27 6 -44 20 l-32 24 -5 -23 c-3 -13 -8 -44 -11
-69 -6 -45 -8 -47 -40 -51 -52 -6 -106 2 -102 16 2 6 31 15 65 20 56 9 62 12
62 34 0 21 -3 23 -29 17 -38 -8 -103 4 -98 19 2 6 27 15 56 20 71 12 67 37 -7
49 -71 12 -70 33 4 43 l55 6 -30 19 c-17 10 -42 21 -56 25 -35 9 -31 30 8 39
l32 8 -27 4 c-16 3 -28 9 -28 14 0 5 12 9 28 10 l27 1 -28 10 c-18 6 -27 16
-25 27 2 9 -2 21 -9 26 -17 13 -24 97 -14 165 17 112 69 290 84 287 6 -1 15
21 20 51 5 28 12 52 16 52 5 0 6 11 3 25 -2 14 4 39 16 59 11 19 18 44 15 55
-11 43 182 363 319 526 143 172 350 354 524 463 89 55 275 151 356 183 58 23
78 14 48 -21 -26 -30 -19 -36 17 -17 54 29 283 89 428 112 99 16 611 20 620 5z
m1905 -1199 c0 -21 34 -31 107 -31 49 0 54 -15 12 -38 -27 -14 -106 -10 -139
8 -22 12 -27 49 -8 68 17 17 28 15 28 -7z m-4431 -40 c16 -10 6 -31 -14 -31
-26 0 -66 20 -60 30 8 12 55 13 74 1z m4491 -110 c0 -16 10 -20 64 -26 76 -8
97 -18 78 -37 -21 -21 -137 -16 -162 7 -23 20 -26 45 -8 63 17 17 28 15 28 -7z
m-4556 -37 c20 -8 20 -20 1 -28 -20 -7 -68 11 -60 24 7 11 35 13 59 4z m4609
-117 c3 -8 34 -20 69 -27 78 -16 82 -18 67 -36 -14 -18 -105 -19 -138 -1 -31
15 -46 40 -38 61 8 19 33 21 40 3z m-4658 -46 c3 -5 1 -12 -5 -16 -13 -8 -50
3 -50 16 0 12 47 12 55 0z m4695 -105 c0 -13 86 -46 118 -46 18 0 25 -22 11
-31 -19 -12 -66 -11 -112 2 -45 12 -68 49 -47 74 16 19 30 19 30 1z m-4740
-56 c0 -5 -9 -10 -20 -10 -11 0 -20 5 -20 10 0 6 9 10 20 10 11 0 20 -4 20
-10z m4769 -104 c7 -8 36 -22 65 -31 66 -21 80 -30 72 -44 -9 -14 -59 -14
-109 0 -41 11 -71 47 -61 73 8 20 18 20 33 2z m2562 -86 c22 -12 27 -68 7 -88
-31 -31 -98 -5 -98 38 0 50 44 75 91 50z m1550 0 c22 -12 27 -68 7 -88 -31
-31 -98 -5 -98 38 0 50 44 75 91 50z m-3311 -238 c38 -120 70 -222 70 -225 0
-4 -22 -7 -49 -7 l-49 0 -17 50 -17 50 -73 0 -74 0 -13 -47 -14 -48 -52 -3
c-29 -2 -52 -2 -52 0 0 3 135 411 145 436 3 8 26 12 64 12 l60 0 71 -218z
m330 178 c0 -36 -2 -40 -25 -40 l-25 0 0 -145 0 -145 25 0 c23 0 25 -4 25 -40
l0 -40 -105 0 -105 0 0 40 c0 38 2 40 30 40 l31 0 -3 143 -3 142 -27 3 c-25 3
-28 7 -28 43 l0 39 105 0 105 0 0 -40z m540 -5 l0 -45 -105 0 -105 0 0 -45 0
-45 90 0 90 0 0 -45 0 -45 -90 0 -90 0 0 -45 0 -45 105 0 105 0 0 -45 0 -45
-155 0 -155 0 0 225 0 225 155 0 155 0 0 -45z m-1652 -7 c6 -6 40 -23 74 -38
86 -37 89 -55 9 -47 -78 7 -111 27 -111 67 0 32 9 37 28 18z m2402 -33 c0 -34
-1 -35 -36 -35 l-37 0 26 -25 c30 -31 38 -66 25 -112 -14 -50 -57 -73 -140
-73 -60 0 -68 -2 -68 -19 0 -25 19 -31 105 -31 41 0 85 -5 98 -11 45 -21 62
-97 32 -143 -25 -37 -71 -51 -172 -51 -77 0 -96 3 -120 21 -45 34 -40 100 9
116 8 3 4 12 -10 26 -12 12 -22 31 -22 42 0 20 36 60 54 60 6 0 1 7 -11 15
-30 21 -44 75 -32 121 14 49 58 74 132 74 46 0 59 4 64 18 12 33 26 42 64 42
38 0 39 -1 39 -35z m2460 0 c0 -34 -1 -35 -36 -35 l-37 0 26 -25 c30 -31 38
-66 25 -112 -14 -50 -57 -73 -140 -73 -60 0 -68 -2 -68 -19 0 -25 19 -31 105
-31 41 0 85 -5 98 -11 45 -21 62 -97 32 -143 -25 -37 -71 -51 -172 -51 -77 0
-96 3 -120 21 -45 34 -40 100 9 116 8 3 4 12 -10 26 -12 12 -22 31 -22 42 0
20 36 60 54 60 6 0 1 7 -11 15 -30 21 -44 75 -32 121 14 49 58 74 132 74 46 0
59 4 64 18 12 33 26 42 64 42 38 0 39 -1 39 -35z m-3033 -45 c5 -20 5 -20 30
0 37 29 103 27 132 -4 31 -33 40 -82 41 -208 l0 -108 -50 0 -50 0 0 111 c0
124 -8 149 -48 149 -47 0 -52 -14 -52 -142 l0 -118 -50 0 -50 0 0 170 0 170
46 0 c37 0 47 -4 51 -20z m731 -152 l2 -168 -50 0 -50 0 0 171 0 170 48 -3 47
-3 3 -167z m189 152 c5 -20 5 -20 30 0 37 29 103 27 132 -4 31 -33 40 -82 41
-208 l0 -108 -50 0 -50 0 0 111 c0 124 -8 149 -48 149 -47 0 -52 -14 -52 -142
l0 -118 -50 0 -50 0 0 170 0 170 46 0 c37 0 47 -4 51 -20z m519 -10 c34 -32
54 -79 54 -130 l0 -40 -105 0 c-91 0 -105 -2 -105 -17 0 -48 75 -70 126 -36
24 16 26 15 51 -10 22 -21 24 -28 14 -41 -23 -27 -97 -49 -150 -44 -92 9 -141
69 -141 175 0 71 22 119 70 151 49 33 146 28 186 -8z m360 0 c34 -32 54 -79
54 -130 l0 -40 -105 0 c-91 0 -105 -2 -105 -17 0 -48 75 -70 126 -36 24 16 26
15 51 -10 22 -21 24 -28 14 -41 -23 -27 -97 -49 -150 -44 -92 9 -141 69 -141
175 0 71 22 119 70 151 49 33 146 28 186 -8z m225 0 c5 -21 7 -22 13 -8 7 15
54 38 77 38 5 0 9 -20 9 -44 0 -46 -10 -56 -54 -56 -40 0 -46 -18 -46 -132 l0
-108 -50 0 -50 0 0 171 0 170 47 -3 c41 -3 48 -6 54 -28z m257 -142 l2 -168
-50 0 -50 0 0 171 0 170 48 -3 47 -3 3 -167z m179 152 c5 -20 5 -20 30 0 37
29 103 27 132 -4 31 -33 40 -82 41 -208 l0 -108 -50 0 -50 0 0 111 c0 124 -8
149 -48 149 -47 0 -52 -14 -52 -142 l0 -118 -50 0 -50 0 0 170 0 170 46 0 c37
0 47 -4 51 -20z m-4277 -79 c0 -4 29 -23 65 -40 36 -18 65 -36 65 -42 0 -14
-77 -11 -115 6 -35 14 -57 48 -48 73 6 14 33 17 33 3z m2 -159 c2 -4 31 -25
66 -46 73 -44 72 -63 -4 -46 -69 16 -94 34 -94 70 0 28 23 43 32 22z m-4434
-134 c3 -16 -5 -18 -63 -18 -48 0 -66 3 -63 12 10 30 121 35 126 6z m42 12 c0
-5 -7 -10 -15 -10 -8 0 -15 5 -15 10 0 6 7 10 15 10 8 0 15 -4 15 -10z m4432
-77 c37 -25 68 -51 68 -56 0 -14 -80 1 -115 21 -22 13 -31 27 -33 50 -2 18 0
32 4 32 4 0 38 -21 76 -47z m-4341 -9 c21 -24 22 -26 3 -16 -25 13 -50 42 -37
42 5 0 20 -12 34 -26z m-133 10 c12 -4 22 -12 22 -19 0 -16 -32 -25 -93 -25
-57 0 -59 16 -7 35 43 16 49 16 78 9z m39 -121 c-3 -10 -5 -2 -5 17 0 19 2 27
5 18 2 -10 2 -26 0 -35z m-22 27 c4 -6 1 -17 -5 -25 -16 -20 -110 -21 -110 -2
0 26 101 49 115 27z m4440 -71 c65 -49 70 -64 18 -54 -74 14 -120 54 -105 93
6 17 21 11 87 -39z m-4425 -25 c0 -17 -40 -34 -81 -34 -35 0 -40 24 -6 35 70
25 87 24 87 -1z m4421 -160 c31 -33 19 -39 -41 -19 -56 19 -86 52 -75 85 6 20
8 19 50 -11 24 -18 54 -42 66 -55z m-95 -110 c44 -35 70 -71 61 -81 -11 -10
-96 36 -112 61 -16 24 -15 56 1 56 4 0 27 -16 50 -36z m-42 -164 c51 -54 59
-75 24 -65 -66 20 -113 73 -93 104 11 18 21 13 69 -39z m-77 -130 l34 -30
2802 0 2802 0 0 -2212 0 -2213 -5295 0 -5295 0 0 2214 0 2213 240 -1 c131 -1
241 -4 243 -6 2 -2 -6 -17 -18 -32 l-22 -28 74 -3 c40 -2 77 -7 82 -12 4 -4
-10 -35 -33 -68 -23 -34 -41 -64 -41 -67 0 -3 36 -2 80 1 49 4 80 3 80 -3 0
-5 -16 -35 -35 -67 -19 -32 -35 -62 -35 -67 0 -8 48 -5 123 6 35 6 35 -12 -2
-87 -16 -32 -27 -59 -25 -61 2 -2 36 3 75 11 38 8 73 11 76 8 4 -3 -6 -36 -20
-73 -15 -37 -25 -68 -23 -71 3 -2 36 4 75 14 40 9 74 15 76 12 3 -2 -6 -37
-19 -76 -13 -39 -22 -73 -19 -75 3 -3 24 3 47 12 23 10 56 22 74 26 38 8 39 4
13 -82 -10 -34 -17 -64 -14 -67 2 -2 36 9 74 25 50 20 71 25 74 16 3 -7 -2
-41 -9 -77 -8 -36 -12 -67 -10 -69 3 -3 34 9 70 27 35 18 67 32 70 32 4 0 3
-37 -1 -81 l-7 -82 67 37 c36 20 70 36 76 36 7 0 8 -25 4 -75 -9 -89 -5 -91
67 -39 67 48 78 42 78 -46 0 -38 2 -70 5 -70 3 0 30 18 60 41 30 22 59 38 65
34 5 -3 10 -23 10 -43 0 -20 3 -54 6 -74 l7 -38 55 51 c30 27 60 48 66 46 6
-2 14 -34 19 -72 4 -38 10 -71 12 -74 3 -3 30 19 60 49 34 33 58 50 64 45 5
-6 14 -39 20 -74 12 -74 18 -83 36 -57 30 41 87 96 94 92 4 -3 16 -35 26 -71
9 -36 21 -65 25 -65 4 0 27 25 50 55 23 30 46 55 50 55 4 0 12 -12 18 -27 5
-16 17 -46 25 -68 8 -21 18 -40 23 -42 5 -1 26 25 46 57 34 54 58 75 58 51 0
-14 53 -131 60 -131 3 0 19 26 36 58 17 31 37 58 46 60 10 2 26 -19 48 -63 18
-36 36 -62 40 -58 4 4 13 24 20 43 20 50 40 80 56 80 7 0 27 -27 45 -60 17
-33 36 -60 40 -60 5 0 11 12 15 28 9 39 46 113 55 110 5 -2 25 -28 46 -57 21
-30 42 -54 48 -53 5 0 13 17 18 38 8 40 37 96 48 92 4 -2 25 -27 48 -55 53
-67 65 -68 59 -2 -3 28 -2 45 2 39 5 -9 12 -3 21 16 8 15 19 29 24 31 6 1 28
-19 50 -47 60 -73 69 -73 61 0 -6 51 -5 59 9 54 9 -4 15 -1 15 9 0 35 25 27
76 -24 45 -44 54 -50 60 -35 4 10 -1 34 -10 53 -16 35 -16 35 9 59 14 13 29
24 33 24 4 0 30 -20 59 -45 28 -25 54 -45 57 -45 12 0 6 47 -9 66 -19 25 -19
54 0 54 9 0 18 7 21 15 9 23 25 18 79 -25 28 -22 53 -40 58 -40 13 0 7 29 -13
67 l-20 38 25 22 c13 13 29 23 35 23 5 0 32 -16 59 -35 45 -32 71 -43 71 -29
0 3 -12 25 -26 50 -24 41 -27 83 -5 69 6 -3 14 2 20 12 9 16 15 15 75 -17 35
-19 68 -32 72 -28 4 4 -5 23 -20 42 -33 44 -34 78 -2 95 20 11 31 9 85 -19 74
-37 92 -35 59 5 -49 59 -53 75 -25 103 l25 25 45 -21 c53 -25 97 -37 97 -27 0
4 -16 25 -35 46 -42 46 -43 61 -10 83 24 16 29 15 91 -4 91 -28 95 -26 46 21
-44 44 -53 77 -26 100 13 10 26 10 72 0 116 -26 112 -28 60 21 -27 25 -48 54
-48 65 0 27 39 53 65 43 11 -4 45 -11 75 -14 l55 -7 -47 41 c-48 42 -60 74
-36 98 7 7 38 9 92 6 68 -4 78 -3 61 8 -39 26 -75 67 -75 86 0 36 25 45 105
39 41 -4 75 -3 75 1 0 4 -21 19 -45 34 -48 29 -66 67 -45 93 9 11 33 15 86 15
72 0 98 12 51 24 -36 9 -77 52 -77 81 0 33 15 32 57 -5z"/>
<path d="M6514 9706 c-3 -8 -4 -25 -2 -38 l3 -23 308 -3 308 -2 -3 37 -3 38
-303 3 c-256 2 -303 0 -308 -12z"/>
<path d="M7180 9680 l0 -40 381 0 c340 0 380 2 369 15 -43 52 -136 65 -472 65
l-278 0 0 -40z"/>
<path d="M8084 9696 c-3 -8 -4 -24 -2 -36 3 -21 8 -21 226 -26 163 -4 222 -3
222 6 0 6 -7 24 -15 40 l-16 30 -205 0 c-168 0 -206 -3 -210 -14z"/>
<path d="M8915 9674 c-8 -20 -15 -38 -15 -40 0 -3 102 -3 228 -2 l227 3 -1 30
c-1 17 -2 33 -3 38 -1 4 -95 7 -211 7 l-210 0 -15 -36z"/>
<path d="M6514 9546 c-3 -8 -4 -25 -2 -38 l3 -23 300 -5 c194 -3 303 -1 308 5
4 6 6 24 5 40 l-3 30 -303 3 c-261 3 -303 1 -308 -12z"/>
<path d="M7180 9521 l0 -39 418 -4 c229 -2 420 -1 425 2 4 4 3 20 -3 37 l-11
30 -256 6 c-141 4 -328 7 -415 7 l-158 0 0 -39z"/>
<path d="M8082 9513 l3 -38 258 -3 c141 -1 257 -1 257 2 0 2 -7 20 -15 40
l-15 36 -246 0 -245 0 3 -37z"/>
<path d="M8851 9519 c-6 -18 -11 -36 -11 -40 0 -5 115 -9 255 -9 l255 0 0 40
0 40 -244 0 -244 0 -11 -31z"/>
<path d="M6687 9394 c-4 -4 -7 -20 -7 -36 l0 -28 141 0 140 0 -3 33 -3 32
-131 3 c-71 1 -133 -1 -137 -4z"/>
<path d="M7322 9363 l3 -38 108 -3 c68 -2 107 1 108 8 1 5 1 19 1 30 0 11 0
25 -1 30 -1 6 -45 10 -112 10 l-110 0 3 -37z"/>
<path d="M7762 9391 c-8 -5 -12 -21 -10 -37 l3 -29 134 0 135 0 7 29 c5 17 7
31 6 32 -9 6 -265 11 -275 5z"/>
<path d="M8220 9360 c0 -16 1 -30 3 -31 1 0 100 -3 220 -6 151 -4 217 -2 217
5 0 6 -5 23 -12 37 l-11 25 -209 0 -208 0 0 -30z"/>
<path d="M8790 9364 c-6 -14 -10 -30 -10 -35 0 -13 427 -12 435 2 4 5 4 21 1
35 l-6 24 -205 0 -205 0 -10 -26z"/>
<path d="M6680 9215 l0 -36 138 3 137 3 0 30 0 30 -137 3 -138 3 0 -36z"/>
<path d="M7320 9210 l0 -40 316 2 317 3 20 27 c11 15 19 29 16 31 -2 3 -154 7
-336 11 l-333 6 0 -40z"/>
<path d="M8227 9244 c-4 -4 -7 -20 -7 -36 l0 -28 198 1 c108 0 262 -3 342 -6
93 -5 155 -3 172 4 17 6 29 7 33 1 4 -6 60 -10 126 -10 l119 0 0 35 0 35 -235
0 c-206 0 -235 -2 -243 -16 -8 -15 -11 -15 -29 3 -17 17 -37 19 -244 22 -123
1 -227 -1 -232 -5z"/>
<path d="M6680 9075 l0 -36 138 3 137 3 0 30 0 30 -137 3 -138 3 0 -36z"/>
<path d="M8224 9096 c-3 -8 -4 -25 -2 -38 3 -23 5 -23 123 -23 l120 0 0 35 0
35 -118 3 c-95 2 -118 0 -123 -12z"/>
<path d="M8524 9098 c-3 -4 1 -20 8 -35 l13 -28 168 -3 168 -2 14 32 c10 24
10 33 2 35 -44 7 -369 8 -373 1z"/>
<path d="M8957 9093 c-3 -7 -3 -15 1 -50 2 -10 34 -13 127 -13 l125 0 0 35 0
35 -124 0 c-69 0 -127 -3 -129 -7z"/>
<path d="M7318 9083 c-2 -5 -3 -19 -3 -33 l0 -25 338 -3 c362 -2 365 -2 314
46 -23 22 -29 22 -335 22 -171 0 -312 -3 -314 -7z"/>
<path d="M6680 8915 l0 -45 135 0 c83 0 135 4 136 10 0 6 1 25 2 43 l1 32
-137 3 -137 3 0 -46z"/>
<path d="M8227 8954 c-4 -4 -7 -25 -7 -46 l0 -38 126 0 125 0 -3 43 -3 42
-116 3 c-63 1 -118 -1 -122 -4z"/>
<path d="M8577 8954 c-3 -3 0 -22 7 -42 l13 -37 115 -3 115 -3 11 26 c7 14 12
35 12 45 0 19 -8 20 -133 20 -74 0 -136 -3 -140 -6z"/>
<path d="M7322 8941 c-8 -5 -12 -21 -10 -37 l3 -29 113 -3 112 -3 0 36 0 35
-89 0 c-49 0 -95 2 -103 5 -7 3 -19 1 -26 -4z"/>
<path d="M8954 8936 c-3 -8 -4 -27 -2 -43 l3 -28 128 -3 127 -3 0 46 0 45
-125 0 c-99 0 -127 -3 -131 -14z"/>
<path d="M7752 8908 l3 -33 138 -3 137 -3 0 36 0 35 -141 0 -140 0 3 -32z"/>
<path d="M6514 8776 c-3 -8 -4 -25 -2 -38 l3 -23 303 -3 302 -2 0 40 0 40
-300 0 c-251 0 -302 -2 -306 -14z"/>
<path d="M7174 8776 c-3 -8 -4 -25 -2 -38 l3 -23 416 -3 417 -2 6 22 c16 62
48 58 -414 58 -355 0 -421 -2 -426 -14z"/>
<path d="M8088 8784 c-13 -12 -9 -72 5 -75 6 -2 93 -4 192 -4 l180 0 3 38 3
37 -114 0 c-63 0 -147 3 -188 6 -41 3 -77 3 -81 -2z"/>
<path d="M8645 8744 c8 -20 15 -38 15 -40 0 -2 25 -4 55 -4 50 0 56 2 65 26
20 51 16 54 -70 54 l-80 0 15 -36z"/>
<path d="M8954 8766 c-3 -8 -4 -25 -2 -38 l3 -23 198 -3 197 -2 0 40 0 40
-195 0 c-160 0 -197 -3 -201 -14z"/>
<path d="M9435 8678 c-15 -14 -28 -38 -32 -60 -5 -32 -1 -41 25 -68 44 -43
112 -39 149 9 22 28 16 89 -12 116 -32 33 -93 34 -130 3z m110 -13 c31 -30 32
-71 3 -102 -29 -31 -72 -30 -103 2 -33 32 -31 60 4 96 36 35 64 37 96 4z"/>
<path d="M9473 8653 c-8 -2 -13 -22 -13 -44 0 -40 13 -52 24 -23 6 16 8 16 24
0 26 -23 29 -21 24 22 -6 46 -23 60 -59 45z m35 -24 c-2 -6 -8 -10 -13 -10 -5
0 -11 4 -13 10 -2 6 4 11 13 11 9 0 15 -5 13 -11z"/>
<path d="M6517 8623 c-4 -3 -7 -21 -7 -40 l0 -33 305 0 305 0 0 33 0 34 -182
6 c-233 9 -413 9 -421 0z"/>
<path d="M7174 8617 c-3 -9 -4 -26 -2 -39 l3 -23 313 -3 c188 -1 329 2 350 8
37 10 107 48 101 54 -2 2 -174 7 -381 11 -334 6 -379 5 -384 -8z"/>
<path d="M8082 8583 l3 -38 190 0 190 0 3 38 3 37 -196 0 -196 0 3 -37z"/>
<path d="M8690 8616 c0 -3 5 -17 10 -32 11 -29 23 -24 35 14 5 19 3 22 -19 22
-14 0 -26 -2 -26 -4z"/>
<path d="M8954 8606 c-3 -8 -4 -25 -2 -38 l3 -23 198 -3 198 -2 -3 37 -3 38
-193 3 c-161 2 -193 0 -198 -12z"/>
<path d="M4425 8170 c-3 -5 -2 -10 4 -10 5 0 13 5 16 10 3 6 2 10 -4 10 -5 0
-13 -4 -16 -10z"/>
<path d="M2593 8193 c-28 -6 -72 -50 -80 -81 -9 -37 9 -93 37 -113 14 -10 56
-23 95 -29 80 -13 95 -22 95 -61 0 -53 -79 -77 -144 -44 -28 15 -31 14 -49 -4
-24 -23 -16 -38 29 -57 105 -44 234 17 234 110 0 69 -49 115 -127 117 -61 2
-87 13 -97 42 -14 40 14 67 71 67 24 0 52 -6 63 -12 16 -11 22 -9 34 7 19 25
16 37 -15 52 -23 12 -99 15 -146 6z"/>
<path d="M3005 8172 c-46 -28 -58 -49 -59 -98 -1 -39 3 -50 31 -74 18 -16 49
-34 70 -39 57 -16 83 -38 83 -71 0 -22 -7 -33 -29 -44 -26 -14 -34 -14 -74 0
-25 8 -51 22 -58 30 -16 19 -33 18 -52 -4 -16 -17 -16 -20 6 -39 38 -35 84
-53 137 -53 92 0 140 42 140 121 0 40 -5 51 -28 71 -16 13 -51 32 -78 42 -65
25 -74 33 -74 67 0 23 6 32 27 40 34 13 82 3 111 -24 l22 -21 22 22 22 22 -21
22 c-47 46 -146 61 -198 30z"/>
<path d="M2190 8098 c-63 -22 -117 -42 -119 -44 -4 -4 4 -32 72 -227 24 -71
49 -133 54 -138 7 -7 35 -1 84 16 41 15 88 31 104 36 17 5 39 14 48 21 16 12
16 15 2 35 l-15 22 -82 -30 c-44 -16 -84 -29 -88 -29 -11 0 -43 90 -35 98 3 4
37 18 73 32 65 25 81 42 63 68 -6 11 -19 10 -67 -6 -32 -11 -67 -23 -77 -27
-13 -6 -20 1 -32 29 -21 50 -19 73 8 79 56 13 147 51 147 62 0 6 -6 18 -12 27
-12 15 -24 12 -128 -24z"/>
<path d="M3396 8083 c-5 -11 1 -23 16 -34 l22 -17 -50 -129 c-47 -122 -51
-128 -77 -128 -32 0 -55 -28 -35 -42 28 -17 152 -62 160 -57 15 9 8 36 -14 53
-21 17 -21 20 -6 52 8 19 33 78 54 132 36 95 39 98 65 92 19 -4 28 -2 33 11 7
19 -10 44 -30 44 -8 0 -24 5 -37 12 -48 24 -57 28 -76 28 -10 0 -22 -8 -25
-17z"/>
<path d="M1780 7895 c-52 -35 -95 -67 -95 -72 0 -15 207 -323 217 -323 16 0
48 20 48 31 0 6 -18 37 -40 69 -22 32 -40 63 -40 69 0 6 27 29 60 51 33 22 60
44 60 48 0 5 -6 16 -13 26 -13 18 -17 16 -78 -23 l-64 -41 -27 32 c-16 18 -28
39 -28 48 0 8 32 35 70 59 70 43 80 57 58 79 -18 18 -26 15 -128 -53z"/>
<path d="M3750 7900 c-48 -9 -72 -23 -108 -65 -41 -46 -72 -115 -72 -159 0
-96 72 -166 172 -166 49 0 83 18 129 67 55 57 73 99 74 170 0 55 -3 65 -30 93
-50 53 -103 72 -165 60z m79 -66 c18 -9 40 -32 49 -51 16 -34 16 -36 -12 -89
-37 -71 -96 -124 -137 -124 -39 0 -99 56 -99 92 0 35 73 144 112 168 40 24 46
24 87 4z"/>
<path d="M1438 7602 c-47 -33 -63 -56 -77 -107 -20 -77 43 -180 141 -229 78
-39 134 -32 191 22 82 78 79 171 -8 259 -88 87 -176 107 -247 55z m171 -83
c86 -69 103 -128 52 -180 -43 -43 -92 -40 -152 9 -91 73 -109 126 -63 181 21
26 33 31 69 31 35 0 52 -7 94 -41z"/>
<path d="M4146 7611 c-6 -9 -154 -132 -235 -194 -38 -30 -47 -63 -20 -80 13
-8 36 7 115 72 54 44 104 81 111 81 15 0 18 -26 4 -34 -8 -6 -38 -75 -87 -202
l-23 -61 22 -31 c12 -18 25 -32 30 -32 4 0 31 19 61 43 162 129 246 200 246
206 0 4 -9 16 -20 26 -22 20 -15 24 -160 -94 -78 -64 -104 -67 -72 -10 10 19
38 85 62 147 l43 113 -20 27 c-22 29 -47 39 -57 23z"/>
<path d="M2471 7374 c-28 -25 -56 -56 -63 -68 -54 -97 -88 -171 -108 -231 -12
-38 -26 -73 -29 -78 -4 -4 -20 4 -34 17 -15 14 -29 24 -31 23 -2 -1 -24 25
-48 58 -38 51 -98 107 -98 91 0 -3 22 -35 50 -71 70 -93 125 -213 146 -319 31
-160 3 -432 -41 -396 -34 28 -141 181 -171 245 -53 111 -65 165 -71 334 -6
161 -13 174 -32 54 -14 -90 -14 -196 0 -248 44 -164 42 -169 -61 -131 -77 28
-201 39 -150 13 14 -7 52 -24 85 -37 147 -58 239 -124 336 -240 57 -69 81
-111 125 -218 35 -89 39 -107 26 -116 -13 -8 -209 81 -280 127 -118 79 -210
194 -270 340 -17 40 -37 85 -46 101 -13 26 -16 27 -22 12 -15 -40 5 -143 46
-232 22 -48 48 -96 57 -106 15 -17 15 -19 -3 -33 -18 -14 -18 -14 8 -15 36 0
59 -10 52 -22 -3 -5 6 -21 20 -35 15 -15 25 -31 23 -37 -2 -5 -41 -16 -86 -22
-61 -9 -88 -17 -102 -33 -11 -12 -24 -19 -30 -16 -5 4 -9 -4 -10 -17 0 -22 -1
-22 -9 -3 -4 12 -15 27 -24 34 -9 7 -16 28 -16 47 0 18 -4 36 -10 39 -16 10
-12 -101 4 -114 8 -7 17 -28 21 -47 4 -23 21 -51 48 -78 23 -23 55 -59 70 -79
23 -31 34 -37 65 -37 45 -1 106 -22 133 -46 10 -9 27 -34 36 -55 16 -37 19
-39 64 -39 26 0 51 -5 55 -11 4 -7 -9 -10 -40 -8 -25 2 -48 0 -51 -3 -4 -3 3
-24 14 -47 12 -22 21 -54 21 -71 0 -16 5 -30 11 -30 6 0 40 23 75 50 35 28 68
50 74 50 5 0 10 4 10 8 0 14 110 60 220 93 60 18 294 18 338 0 27 -11 40 -11
80 0 64 18 271 16 343 -4 94 -25 192 -71 271 -125 80 -56 135 -108 125 -118
-11 -11 -178 -33 -247 -33 -57 0 -191 23 -257 44 -14 4 -23 3 -23 -3 0 -15 77
-80 122 -103 l36 -19 -27 -62 c-47 -112 -37 -108 -124 -49 -76 51 -139 118
-207 219 -19 29 -40 52 -46 52 -6 0 -33 -32 -60 -72 -57 -83 -186 -218 -209
-218 -4 0 -13 -7 -22 -15 -28 -28 36 -6 96 33 67 45 86 37 86 -34 0 -47 1 -49
29 -52 41 -5 76 6 76 23 0 12 4 11 19 -4 17 -17 36 -19 172 -20 112 -1 175 4
230 16 75 16 77 18 88 54 6 20 11 44 11 53 0 37 18 13 22 -29 2 -25 0 -45 -4
-45 -5 0 -8 -4 -8 -10 0 -5 11 -10 24 -10 25 0 48 20 24 20 -7 1 6 10 30 22
23 11 42 24 42 29 0 5 6 9 13 9 22 0 129 84 181 141 49 55 126 154 126 163 0
12 53 82 68 90 13 8 5 12 -36 21 -42 10 -66 10 -115 -1 -34 -7 -81 -13 -105
-14 -24 0 -52 -5 -64 -11 -12 -7 -34 -8 -57 -3 l-36 8 55 8 c30 4 80 11 110
15 l55 8 -32 18 c-18 10 -34 22 -34 27 -1 6 -2 14 -3 19 -1 5 36 28 81 51 80
40 173 113 194 152 13 25 7 22 -71 -36 -55 -41 -68 -49 -145 -92 -54 -30 -183
-63 -275 -70 -69 -6 -277 17 -302 33 -25 14 138 142 245 193 87 41 112 48 222
65 87 13 210 9 298 -11 15 -4 27 -4 27 0 0 13 -71 34 -149 45 -45 6 -87 13
-92 16 -25 16 11 64 63 84 19 7 26 15 22 26 -4 10 0 15 10 15 9 0 16 4 16 8 0
5 11 22 26 38 72 83 143 214 148 277 2 23 2 32 -1 20 -2 -13 -9 -23 -14 -23
-5 0 -9 -6 -9 -14 0 -20 -55 -119 -106 -192 -75 -107 -179 -185 -330 -248 -92
-39 -134 -45 -134 -21 0 16 23 79 51 141 11 22 19 44 19 48 0 12 59 96 107
153 24 29 71 73 104 98 60 46 229 135 255 135 8 0 14 5 14 10 0 6 -3 10 -7 10
-20 0 -92 -24 -135 -45 -60 -29 -95 -38 -103 -25 -7 11 5 55 38 140 22 58 22
57 25 168 2 67 4 73 26 82 13 5 26 13 29 17 9 15 -10 36 -26 30 -21 -8 -33 9
-45 63 -8 37 -10 18 -9 -100 2 -177 -7 -222 -68 -353 -29 -61 -124 -196 -169
-236 -16 -15 -26 -35 -26 -52 0 -30 -14 -46 -25 -28 -4 6 -2 22 5 35 11 20 10
46 -5 154 -10 72 -15 150 -11 173 3 23 10 69 15 103 13 86 55 186 121 284 78
118 76 114 52 99 -18 -11 -24 -10 -41 5 -20 18 -20 18 -27 -10 -8 -32 -49 -95
-70 -107 -8 -4 -14 -15 -14 -24 0 -30 -48 27 -65 76 -8 26 -33 77 -55 115 -22
37 -40 72 -40 76 0 5 -9 12 -21 15 -15 5 -18 10 -10 18 7 7 1 15 -19 26 -15 9
-40 24 -54 35 -36 26 -45 12 -14 -22 94 -102 179 -279 197 -412 16 -115 -14
-371 -42 -363 -4 2 -36 41 -72 88 -149 195 -199 363 -176 591 14 137 14 145
-6 109 -8 -16 -22 -37 -29 -45 -10 -12 -13 -52 -10 -170 3 -172 15 -230 71
-347 22 -48 30 -75 23 -79 -6 -4 0 -13 16 -21 14 -7 26 -18 26 -23 0 -19 78
-94 122 -116 40 -20 49 -30 58 -66 6 -24 15 -59 21 -78 27 -101 -2 -218 -58
-238 l-28 -10 28 -7 c30 -8 36 -22 11 -27 -11 -2 -17 -15 -18 -44 -3 -55 -25
-87 -81 -114 -26 -12 -78 -53 -116 -91 -39 -38 -77 -69 -84 -69 -8 0 -15 -4
-15 -10 0 -5 -20 -10 -45 -10 -38 0 -47 4 -54 23 -9 21 -9 21 -16 -8 -13 -58
-15 -61 -25 -45 -6 8 -10 31 -11 50 l-1 35 -10 -27 c-9 -26 -14 -28 -63 -28
-71 0 -100 12 -127 53 -12 19 -38 45 -57 58 -20 13 -38 27 -41 30 -3 3 -26 18
-51 32 -70 41 -88 65 -86 116 2 35 -2 45 -15 49 -27 7 -22 21 10 28 45 10 48
12 15 13 -40 1 -51 13 -87 89 l-29 61 21 49 c12 27 24 69 28 93 3 24 14 55 22
69 9 14 15 30 13 35 -10 27 -30 209 -31 276 0 174 38 283 161 456 32 46 57 83
55 83 -2 0 -27 -21 -55 -46z m-281 -1341 c30 -9 75 -25 100 -36 103 -47 281
-180 263 -198 -10 -10 -203 -39 -257 -39 -44 0 -171 22 -222 38 -91 28 -296
159 -332 211 -12 18 -10 20 40 30 118 24 314 21 408 -6z m1167 -715 c-3 -7 -5
-2 -5 12 0 14 2 19 5 13 2 -7 2 -19 0 -25z"/>
<path d="M2600 7345 c0 -22 5 -69 11 -104 10 -66 1 -170 -23 -256 -24 -84 -88
-204 -157 -292 -39 -51 -69 -93 -66 -93 28 0 174 132 168 152 -2 3 15 44 36
90 55 118 71 202 71 360 0 117 -3 136 -20 158 l-20 25 0 -40z"/>
<path d="M1191 7232 c-26 -13 -45 -38 -83 -110 -28 -51 -48 -98 -45 -105 5
-12 324 -177 343 -177 9 0 34 41 34 55 0 2 -29 18 -65 34 -36 17 -65 35 -65
41 0 6 7 24 15 40 15 30 17 30 100 30 75 0 85 2 99 22 30 43 22 48 -69 48 -80
0 -85 1 -85 21 0 36 -33 78 -77 99 -52 24 -59 25 -102 2z m98 -88 c11 -14 17
-33 15 -42 -14 -43 -48 -102 -60 -102 -26 0 -94 44 -94 62 0 14 17 51 47 101
2 4 19 7 38 7 24 0 39 -7 54 -26z"/>
<path d="M4439 7085 c-4 -3 -64 -10 -135 -15 -71 -5 -143 -12 -161 -16 -30 -6
-31 -8 -21 -36 10 -29 12 -30 64 -23 l53 6 30 -66 c33 -71 33 -77 -11 -113
-30 -26 -37 -62 -14 -81 12 -10 43 13 170 124 l154 137 -17 41 c-17 39 -21 42
-62 45 -25 2 -47 0 -50 -3z m46 -64 c6 -11 -113 -111 -132 -111 -16 0 -53 82
-42 94 4 5 36 12 71 16 94 11 96 11 103 1z"/>
<path d="M753 6915 c-3 -9 -3 -19 1 -22 3 -4 6 1 6 10 0 8 6 18 13 20 9 4 9 6
-1 6 -7 1 -15 -6 -19 -14z"/>
<path d="M4861 6843 c-1 -6 -8 -13 -16 -15 -9 -2 -12 -8 -6 -16 15 -24 38 -10
30 18 -4 14 -7 20 -8 13z"/>
<path d="M998 6771 c-23 -26 -46 -102 -63 -203 -5 -33 -3 -38 17 -42 13 -3 37
-8 53 -11 17 -3 49 -10 73 -16 44 -10 92 -20 181 -38 59 -12 74 -5 69 34 -3
19 -9 22 -96 45 l-44 11 8 62 c14 106 11 127 -24 159 -28 24 -41 28 -91 28
-53 0 -62 -3 -83 -29z m136 -60 c14 -16 17 -29 11 -63 -11 -72 -14 -78 -43
-78 -28 0 -102 18 -102 25 0 20 25 113 32 123 16 19 82 15 102 -7z"/>
<path d="M4873 6734 c-3 -8 -1 -20 6 -27 8 -8 11 -4 11 16 0 30 -7 35 -17 11z"/>
<path d="M4560 6689 c-121 -18 -197 -31 -244 -41 l-48 -11 5 -36 c4 -20 11
-67 17 -106 12 -80 20 -91 49 -76 18 10 20 17 14 59 -4 26 -7 61 -8 77 0 28 3
30 45 37 25 3 77 11 115 18 39 6 89 14 113 17 49 7 55 13 46 48 -7 27 -12 28
-104 14z"/>
<path d="M4902 6655 c0 -16 2 -22 5 -12 2 9 2 23 0 30 -3 6 -5 -1 -5 -18z"/>
<path d="M1685 6280 c-4 -6 5 -10 19 -10 14 0 26 5 26 10 0 6 -9 10 -19 10
-11 0 -23 -4 -26 -10z"/>
<path d="M1590 6250 c0 -5 11 -10 25 -10 14 0 25 5 25 10 0 6 -11 10 -25 10
-14 0 -25 -4 -25 -10z"/>
<path d="M1688 6228 c9 -9 15 -9 24 0 9 9 7 12 -12 12 -19 0 -21 -3 -12 -12z"/>
<path d="M1110 6219 c0 -7 -12 -8 -32 -4 l-33 7 40 -41 c21 -23 40 -41 42 -41
2 0 3 20 3 45 0 25 -4 45 -10 45 -5 0 -10 -5 -10 -11z"/>
<path d="M1160 6186 l0 -50 28 26 c15 14 36 31 47 37 17 10 15 11 -17 6 -29
-4 -39 -2 -47 12 -8 14 -10 8 -11 -31z"/>
<path d="M1546 6198 c-3 -13 -6 -40 -6 -60 0 -21 -4 -38 -9 -38 -5 0 -16 -2
-24 -6 -8 -3 -37 16 -71 47 -31 28 -59 50 -61 47 -3 -3 11 -26 31 -52 40 -52
85 -75 128 -66 l29 6 -2 69 c-3 77 -5 87 -15 53z"/>
<path d="M4898 6193 c7 -3 16 -2 19 1 4 3 -2 6 -13 5 -11 0 -14 -3 -6 -6z"/>
<path d="M4905 6110 c-16 -7 -17 -9 -3 -9 9 -1 20 4 23 9 7 11 7 11 -20 0z"/>
<path d="M4878 6013 c6 -2 18 -2 25 0 6 3 1 5 -13 5 -14 0 -19 -2 -12 -5z"/>
<path d="M4808 5993 c7 -3 16 -2 19 1 4 3 -2 6 -13 5 -11 0 -14 -3 -6 -6z"/>
<path d="M4770 5975 c0 -8 2 -15 4 -15 2 0 6 7 10 15 3 8 1 15 -4 15 -6 0 -10
-7 -10 -15z"/>
<path d="M4232 5787 c-15 -18 -102 -205 -102 -220 0 -7 15 -19 33 -26 73 -33
186 -84 242 -112 33 -16 65 -29 72 -29 7 0 22 21 34 48 12 26 35 75 51 110 33
67 31 95 -4 90 -24 -3 -30 -12 -68 -102 -13 -31 -29 -56 -36 -56 -27 0 -84 34
-84 50 0 9 13 43 29 76 26 53 28 60 13 72 -29 22 -41 13 -73 -58 -18 -38 -35
-70 -39 -70 -14 0 -79 30 -84 39 -3 5 10 43 29 84 19 42 35 80 35 86 0 18 -37
32 -48 18z"/>
<path d="M1255 5746 c-58 -22 -112 -60 -135 -95 -28 -43 -31 -121 -6 -168 35
-69 127 -109 139 -61 7 26 -8 48 -33 48 -21 0 -58 42 -66 76 -10 37 25 81 89
114 81 41 136 41 171 -1 28 -32 33 -67 15 -100 -8 -16 -6 -23 13 -39 28 -22
34 -19 53 27 12 29 13 43 3 77 -15 53 -52 101 -91 121 -35 17 -108 18 -152 1z"/>
<path d="M3823 5734 c-38 -16 -45 -37 -9 -28 65 16 98 31 81 38 -23 8 -35 7
-72 -10z"/>
<path d="M897 5663 c-4 -3 -7 -11 -7 -17 0 -6 5 -5 12 2 6 6 9 14 7 17 -3 3
-9 2 -12 -2z"/>
<path d="M2518 5480 c-44 -26 -184 -42 -311 -36 -137 7 -163 -3 -59 -24 31 -7
64 -15 72 -20 9 -4 36 -5 60 -3 24 2 59 2 77 -2 29 -5 33 -10 33 -38 0 -35 45
-137 61 -137 14 0 11 10 -21 75 -16 33 -30 63 -30 66 0 4 18 14 40 23 40 16
120 81 120 97 0 12 -21 11 -42 -1z"/>
<path d="M3992 5384 c-83 -103 -92 -127 -56 -141 10 -4 25 6 45 31 17 20 35
36 40 36 5 0 66 -46 135 -101 121 -99 125 -101 144 -84 11 10 20 24 20 31 0 6
-56 56 -124 110 -69 55 -125 103 -125 108 -1 4 13 26 30 47 25 32 29 42 19 54
-24 29 -46 13 -128 -91z"/>
<path d="M1430 5349 c-80 -67 -145 -127 -145 -134 0 -21 149 -196 164 -193 8
2 19 10 24 20 9 13 0 29 -46 83 -31 37 -57 70 -57 75 0 23 100 76 100 53 0 -5
20 -30 43 -57 40 -45 44 -48 65 -35 12 8 22 17 22 21 0 3 -20 30 -45 59 -25
29 -45 59 -45 66 0 16 49 62 66 63 6 0 36 -29 65 -65 54 -65 73 -74 92 -44 8
13 -6 35 -68 110 -42 52 -80 95 -84 96 -3 1 -71 -52 -151 -118z"/>
<path d="M884 5430 c-30 -12 -38 -40 -17 -56 23 -17 43 -17 67 1 17 13 15 14
-18 8 -41 -6 -45 3 -16 35 22 23 18 26 -16 12z"/>
<path d="M905 5330 c-23 -26 -8 -26 25 0 18 14 21 20 9 20 -9 0 -24 -9 -34
-20z"/>
<path d="M930 5296 c0 -9 30 -14 35 -6 4 6 -3 10 -14 10 -12 0 -21 -2 -21 -4z"/>
<path d="M952 5233 c2 -18 10 -29 23 -32 17 -3 18 -1 6 13 -7 9 -11 23 -7 31
3 9 0 15 -10 15 -11 0 -14 -8 -12 -27z"/>
<path d="M1699 5058 c-56 -79 -107 -149 -113 -157 -8 -10 -4 -18 13 -32 13
-11 26 -19 30 -19 4 0 24 25 46 55 22 30 45 55 50 55 6 0 21 -7 33 -16 25 -17
28 -50 12 -134 -9 -45 -8 -56 6 -72 27 -29 54 -23 54 11 0 16 5 52 12 80 11
50 12 51 48 51 86 0 146 101 106 178 -14 27 -163 142 -184 142 -6 0 -57 -64
-113 -142z m190 22 c23 -17 44 -37 48 -45 9 -25 -6 -64 -32 -81 -23 -15 -27
-15 -68 5 -25 12 -52 30 -62 41 -16 18 -16 21 16 64 18 25 38 46 44 46 7 0 31
-14 54 -30z"/>
<path d="M1010 5179 c0 -5 5 -7 10 -4 6 3 10 8 10 11 0 2 -4 4 -10 4 -5 0 -10
-5 -10 -11z"/>
<path d="M3753 5150 c-18 -16 -31 -35 -28 -42 16 -51 78 -227 85 -243 5 -11
16 -42 26 -70 23 -67 30 -73 55 -48 20 20 21 23 7 65 -8 23 -13 48 -11 55 6
17 100 83 119 83 8 0 30 -11 49 -25 l33 -26 28 24 27 24 -173 116 c-95 65
-176 117 -179 117 -3 0 -21 -14 -38 -30z m123 -97 c35 -27 64 -52 64 -58 0
-11 -64 -65 -78 -65 -9 0 -19 18 -51 98 -19 46 -21 72 -5 72 3 0 35 -21 70
-47z"/>
<path d="M1015 5130 c4 -6 11 -8 16 -5 14 9 11 15 -7 15 -8 0 -12 -5 -9 -10z"/>
<path d="M2690 5130 c0 -5 25 -10 55 -10 30 0 55 5 55 10 0 6 -25 10 -55 10
-30 0 -55 -4 -55 -10z"/>
<path d="M2840 5129 c0 -7 44 -9 133 -7 205 4 232 15 40 17 -116 1 -173 -2
-173 -10z"/>
<path d="M1040 5080 c0 -5 5 -10 10 -10 6 0 10 5 10 10 0 6 -4 10 -10 10 -5 0
-10 -4 -10 -10z"/>
<path d="M2090 4991 c0 -5 -3 -17 -6 -25 -5 -12 4 -20 32 -32 66 -27 66 -28
32 -107 -46 -109 -54 -128 -76 -177 l-21 -45 21 -17 c11 -10 26 -18 33 -18 7
0 38 64 70 143 32 78 63 147 67 154 7 9 21 7 56 -8 44 -19 47 -19 59 -3 7 10
13 23 13 29 0 10 -243 115 -268 115 -6 0 -12 -4 -12 -9z"/>
<path d="M3450 4972 c-36 -17 -72 -47 -86 -73 -24 -48 -18 -133 15 -203 59
-123 165 -155 268 -79 35 25 69 85 58 102 -3 6 -19 11 -36 11 -21 0 -29 -5
-29 -17 -1 -39 -48 -73 -100 -73 -38 0 -74 33 -100 94 -41 97 -33 147 29 178
30 15 38 15 67 3 29 -12 34 -11 48 4 21 23 20 38 -3 51 -22 11 -107 12 -131 2z"/>
<path d="M1188 4913 c7 -3 16 -2 19 1 4 3 -2 6 -13 5 -11 0 -14 -3 -6 -6z"/>
<path d="M2442 4868 c-19 -19 -14 -37 14 -44 24 -6 25 -9 19 -58 -4 -28 -10
-67 -15 -86 -5 -19 -14 -61 -21 -92 -11 -50 -15 -58 -35 -58 -13 0 -28 -9 -34
-20 -13 -24 -11 -24 70 -39 30 -6 65 -13 77 -17 16 -4 23 -1 28 17 5 13 3 25
-2 26 -39 13 -46 30 -36 74 6 24 17 71 23 104 22 116 24 120 50 120 16 0 26 7
28 19 5 26 -8 35 -69 45 -30 5 -61 12 -69 15 -9 4 -21 1 -28 -6z"/>
<path d="M3145 4870 c-16 -5 -43 -12 -58 -15 -22 -4 -28 -11 -25 -28 2 -16 10
-22 27 -22 28 0 35 -12 50 -85 7 -30 16 -73 21 -95 21 -94 21 -102 -6 -113
-24 -11 -32 -36 -15 -46 5 -3 35 -1 67 4 104 18 104 18 104 46 0 21 -4 25 -19
21 -28 -7 -42 6 -51 49 -4 22 -13 64 -20 94 -26 118 -27 129 -17 139 6 6 17
11 25 11 8 0 12 9 10 23 -3 25 -41 32 -93 17z"/>
<path d="M1230 4850 c0 -6 7 -10 15 -10 8 0 15 2 15 4 0 2 -7 6 -15 10 -8 3
-15 1 -15 -4z"/>
<path d="M2783 4833 l-63 -4 0 -199 0 -200 35 0 34 0 3 88 3 87 78 3 c78 3 78
3 75 29 -3 25 -5 26 -78 27 l-75 1 -3 53 -3 52 91 0 91 0 -3 33 -3 32 -60 1
c-33 0 -88 -1 -122 -3z"/>
<path d="M1350 4735 c0 -8 4 -15 10 -15 5 0 7 7 4 15 -4 8 -8 15 -10 15 -2 0
-4 -7 -4 -15z"/>
<path d="M1508 4593 c7 -3 16 -2 19 1 4 3 -2 6 -13 5 -11 0 -14 -3 -6 -6z"/>
<path d="M1810 4400 c0 -5 5 -10 10 -10 6 0 10 5 10 10 0 6 -4 10 -10 10 -5 0
-10 -4 -10 -10z"/>
<path d="M1870 4381 c0 -18 30 -25 43 -11 9 10 9 11 -1 6 -7 -4 -19 -2 -27 4
-11 9 -15 9 -15 1z"/>
<path d="M2060 4290 c0 -5 5 -10 10 -10 6 0 10 5 10 10 0 6 -4 10 -10 10 -5 0
-10 -4 -10 -10z"/>
<path d="M2210 4265 c0 -5 5 -17 10 -25 5 -8 10 -10 10 -5 0 6 -5 17 -10 25
-5 8 -10 11 -10 5z"/>
<path d="M3072 4205 c0 -16 2 -22 5 -12 2 9 2 23 0 30 -3 6 -5 -1 -5 -18z"/>
<path d="M2982 4200 c0 -14 2 -19 5 -12 2 6 2 18 0 25 -3 6 -5 1 -5 -13z"/>
<path d="M2892 4190 c0 -14 2 -19 5 -12 2 6 2 18 0 25 -3 6 -5 1 -5 -13z"/>
<path d="M2588 4163 c7 -3 16 -2 19 1 4 3 -2 6 -13 5 -11 0 -14 -3 -6 -6z"/>
<path d="M5862 6428 c-12 -42 -22 -79 -22 -82 0 -3 20 -6 45 -6 25 0 45 3 45
8 0 4 -10 41 -23 82 l-23 74 -22 -76z"/>
<path d="M7448 6419 c-28 -16 -23 -67 7 -81 38 -17 75 3 75 41 0 43 -42 64
-82 40z"/>
<path d="M7397 6128 c-2 -7 0 -21 5 -30 7 -15 22 -18 77 -18 76 0 105 16 81
45 -16 19 -156 22 -163 3z"/>
<path d="M9908 6419 c-28 -16 -23 -67 7 -81 38 -17 75 3 75 41 0 43 -42 64
-82 40z"/>
<path d="M9857 6128 c-2 -7 0 -21 5 -30 7 -15 22 -18 77 -18 76 0 105 16 81
45 -16 19 -156 22 -163 3z"/>
<path d="M8367 6402 c-33 -37 -22 -52 38 -52 48 0 55 3 55 19 0 46 -62 67 -93
33z"/>
<path d="M8727 6402 c-33 -37 -22 -52 38 -52 48 0 55 3 55 19 0 46 -62 67 -93
33z"/>
<path d="M6722 3608 c2 -102 7 -162 13 -161 6 2 12 33 15 70 l5 68 78 5 c67 4
82 8 98 29 25 30 25 92 0 122 -17 22 -29 24 -115 27 l-97 4 3 -164z m161 131
c29 -16 37 -28 37 -61 0 -48 -31 -68 -105 -68 l-65 0 0 70 0 70 56 0 c30 0 65
-5 77 -11z"/>
<path d="M8490 3715 c0 -30 -4 -55 -9 -55 -5 0 -24 6 -42 14 -43 17 -90 5
-118 -30 -32 -40 -29 -123 5 -163 32 -39 84 -50 120 -26 19 12 29 14 37 6 6
-6 15 -11 19 -11 4 0 8 72 8 160 0 100 -4 160 -10 160 -5 0 -10 -25 -10 -55z
m-30 -80 c34 -36 34 -119 1 -146 -31 -25 -86 -24 -111 1 -29 29 -28 115 2 147
30 32 77 31 108 -2z"/>
<path d="M8730 3610 l0 -160 94 0 c87 0 97 2 125 26 40 34 43 84 6 118 -29 27
-31 39 -10 56 9 7 15 29 15 51 0 57 -24 69 -137 69 l-93 0 0 -160z m183 126
c24 -19 23 -82 -2 -96 -11 -5 -49 -10 -85 -10 l-66 0 0 53 c0 30 3 57 7 60 12
12 128 7 146 -7z m17 -156 c27 -27 25 -62 -4 -89 -20 -19 -32 -22 -92 -19
l-69 3 -3 63 -3 62 76 0 c62 0 79 -4 95 -20z"/>
<path d="M7039 3651 c-28 -28 -35 -53 -30 -111 6 -89 119 -131 180 -66 47 50
45 141 -4 184 -40 34 -108 31 -146 -7z m129 -13 c28 -31 36 -70 22 -113 -13
-38 -35 -55 -74 -55 -38 0 -55 10 -71 41 -22 42 -18 83 11 118 32 39 80 42
112 9z"/>
<path d="M7277 3673 c-7 -13 61 -216 75 -224 19 -12 24 -3 47 90 11 46 22 86
24 88 10 9 26 -28 42 -94 19 -81 37 -106 54 -75 18 34 73 214 67 220 -12 12
-25 -14 -45 -91 -32 -123 -41 -125 -66 -13 -18 81 -37 117 -54 101 -5 -5 -19
-45 -30 -89 -20 -80 -37 -112 -45 -85 -2 8 -14 51 -26 97 -21 75 -32 94 -43
75z"/>
<path d="M7684 3662 c-32 -25 -44 -55 -44 -106 0 -95 100 -149 168 -91 18 15
32 31 32 36 0 16 -19 10 -37 -11 -13 -14 -30 -20 -60 -20 -38 0 -46 4 -62 31
-31 51 -20 59 75 59 l84 0 0 31 c0 46 -47 89 -97 89 -21 0 -48 -8 -59 -18z
m112 -29 c13 -14 23 -31 21 -37 -2 -6 -36 -12 -75 -14 -67 -3 -72 -1 -72 18 0
57 83 80 126 33z"/>
<path d="M7906 3673 c-3 -3 -6 -55 -6 -115 0 -89 3 -108 15 -108 12 0 15 15
15 73 0 82 12 107 60 127 16 7 30 16 30 21 0 15 -26 10 -53 -11 -30 -24 -37
-25 -37 -6 0 17 -14 28 -24 19z"/>
<path d="M8082 3655 c-56 -47 -50 -159 11 -195 18 -11 43 -20 57 -20 32 0 90
35 90 55 0 21 -13 19 -35 -5 -28 -31 -91 -24 -118 12 -35 46 -19 58 78 58 95
0 98 4 70 65 -28 58 -102 73 -153 30z m115 -17 c13 -12 23 -30 23 -40 0 -17
-7 -19 -72 -16 -40 2 -73 8 -75 14 -2 6 6 23 17 37 27 34 74 36 107 5z"/>
<path d="M9030 3670 c0 -7 6 -26 14 -43 38 -82 66 -163 66 -189 0 -30 -31 -68
-56 -68 -8 0 -12 -4 -9 -10 9 -15 36 -12 56 6 21 19 134 302 125 311 -11 12
-24 -11 -54 -97 -16 -46 -34 -86 -39 -87 -5 -2 -25 38 -44 89 -19 50 -40 93
-46 96 -7 2 -13 -2 -13 -8z"/>
<path d="M6117 3096 c-90 -33 -163 -108 -187 -196 -43 -155 63 -317 232 -351
44 -9 66 -8 118 5 64 17 141 64 166 101 13 19 10 23 -41 54 l-55 32 -31 -25
c-112 -94 -275 -8 -256 135 16 121 161 171 253 87 24 -21 33 -19 115 31 l30
18 -41 41 c-73 73 -206 102 -303 68z"/>
<path d="M6673 3089 c-232 -89 -242 -408 -15 -515 86 -41 171 -38 260 7 184
94 214 316 60 454 -82 74 -199 95 -305 54z m187 -131 c109 -75 103 -209 -12
-266 -38 -19 -56 -22 -89 -17 -47 8 -101 51 -119 95 -17 40 -8 111 18 148 45
62 141 81 202 40z"/>
<path d="M7910 3089 c-19 -12 -40 -29 -47 -38 -11 -14 -12 -11 -13 17 l0 32
-70 0 -70 0 0 -275 0 -275 54 0 c91 0 86 -10 86 177 0 132 3 172 16 199 18 38
58 64 97 64 21 0 26 6 32 38 3 20 9 47 12 60 5 19 1 22 -28 22 -19 0 -50 -10
-69 -21z"/>
<path d="M8145 3091 c-81 -36 -119 -114 -96 -192 16 -53 65 -87 164 -116 105
-30 129 -46 125 -81 -6 -54 -117 -55 -170 -1 l-29 29 -60 -30 c-66 -34 -67
-40 -12 -92 65 -63 221 -81 321 -38 66 28 94 67 100 134 7 90 -52 147 -187
181 -83 21 -111 38 -111 70 0 51 95 58 140 10 l23 -24 58 30 c33 16 59 33 59
37 0 16 -56 61 -100 81 -59 27 -169 28 -225 2z"/>
<path d="M8709 3092 c-73 -30 -116 -68 -149 -135 -25 -50 -30 -72 -29 -126 0
-36 6 -80 12 -98 52 -141 214 -218 367 -175 44 13 140 75 140 90 0 4 -20 22
-44 40 l-43 32 -44 -25 c-80 -45 -183 -30 -228 34 -44 61 -43 61 189 61 l210
0 0 45 c0 98 -68 204 -160 251 -52 26 -164 29 -221 6z m164 -116 c37 -15 62
-41 71 -73 l7 -23 -140 0 c-80 0 -141 4 -141 9 0 18 54 74 85 87 39 17 78 17
118 0z"/>
<path d="M9370 3099 c-14 -6 -37 -22 -52 -36 l-28 -27 0 32 0 32 -70 0 -70 0
0 -270 0 -270 70 0 70 0 0 153 c0 83 5 169 10 189 13 45 61 88 100 88 24 0 29
5 39 44 17 67 15 76 -16 75 -16 0 -39 -5 -53 -10z"/>
<path d="M9660 3101 c-50 -16 -89 -41 -128 -86 -119 -135 -89 -342 62 -430 89
-52 188 -52 268 0 l37 24 3 -22 c3 -20 9 -22 71 -25 l67 -3 0 271 0 270 -64 0
c-64 0 -64 0 -71 -31 l-7 -31 -22 21 c-47 44 -145 63 -216 42z m168 -141 c46
-29 72 -76 72 -134 0 -88 -62 -150 -150 -150 -88 0 -150 62 -150 150 0 90 63
154 150 154 27 0 58 -8 78 -20z"/>
<path d="M7132 2893 c3 -206 3 -208 30 -255 63 -106 226 -130 315 -46 l23 21
0 -26 c0 -27 1 -27 70 -27 l70 0 0 270 0 270 -70 0 -70 0 0 -176 c0 -146 -3
-181 -17 -204 -20 -35 -52 -50 -104 -50 -96 0 -109 29 -109 255 l0 175 -71 0
-70 0 3 -207z"/>
</g>
</svg>
